<svg id="Layer_1" data-name="Layer 1" xmlns="http://www.w3.org/2000/svg" viewBox="0 0 70 70"><defs><style>.icon_occasion_05_1{fill:#ffce31;}</style></defs><title>icon_occasion_05</title><path class="icon_occasion_05_1" d="M24.84,2.5C24.84,19.65,15.57,35,2.5,35c13.07,0,22.34,15.35,22.34,32.5,0-17.15,9.27-32.5,22.35-32.5C34.11,35,24.84,19.65,24.84,2.5Z"/><path class="icon_occasion_05_1" d="M56.33,2.5c0,8.58-4.64,16.25-11.17,16.25,6.53,0,11.17,7.67,11.17,16.25,0-8.58,4.63-16.25,11.17-16.25C61,18.75,56.33,11.08,56.33,2.5Z"/><path class="icon_occasion_05_1" d="M51.25,35c0,8.58-4.64,16.25-11.17,16.25,6.53,0,11.17,7.67,11.17,16.25,0-8.58,4.63-16.25,11.17-16.25C55.88,51.25,51.25,43.58,51.25,35Z"/></svg>
