<svg xmlns="http://www.w3.org/2000/svg" xmlns:xlink="http://www.w3.org/1999/xlink" viewBox="0 0 260 75"><defs><style>.cls-1{fill:none;}.cls-2{isolation:isolate;}.cls-3{opacity:0.45;mix-blend-mode:multiply;}.cls-4{clip-path:url(#clip-path);}.cls-5{clip-path:url(#clip-path-2);}.cls-6{fill:#2d221f;}.cls-7{fill:#1d1d1b;}</style><clipPath id="clip-path"><polygon class="cls-1" points="2.58 2.32 3.52 73.99 3.56 73.99 257.9 70.66 257.48 38.67 256.96 -1.01 2.58 2.32"/></clipPath><clipPath id="clip-path-2"><rect class="cls-1" x="3.04" y="-3.33" width="254.4" height="79.62" transform="translate(-0.47 1.71) rotate(-0.75)"/></clipPath></defs><title>Artboard 1</title><g class="cls-2"><g id="Layer_1" data-name="Layer 1"><path class="cls-6" d="M137.54,42.06c0,3-.82,4.5-4.23,4.49-2.11,0-3.35-1.18-3.35-3.64l-3.09.39c-.36,3.25,2,5.48,6.43,5.78l.5,0c4,.27,7.09-2.81,7.09-7.15a5.88,5.88,0,0,0-2.75-5.12c4.89-2.69,2.11-11.45-4.88-11.46-4.2,0-6.27,2.23-5.91,5.18l2.79.4c0-2.17,1.25-3.35,3-3.35,2.23,0,4.16,1.06,4.16,4.47a3.29,3.29,0,0,1-3.61,3.31h-1.15v3h1.41a3.52,3.52,0,0,1,3.6,3.71"/><path class="cls-7" d="M39.64,39.39a3.45,3.45,0,0,1-3.49-3.5,3.48,3.48,0,0,1,3.5-3.55,3.34,3.34,0,0,1,2.7,1.17l-1,1a2.26,2.26,0,0,0-1.75-.84,2,2,0,0,0-1.94,2.16,2.06,2.06,0,0,0,2,2.19,2.38,2.38,0,0,0,1.75-.85l.94.92A3.41,3.41,0,0,1,39.64,39.39Z"/><path class="cls-7" d="M48.11,39.39a3.49,3.49,0,0,1-3.58-3.5,3.54,3.54,0,0,1,3.61-3.55,3.53,3.53,0,1,1,0,7Zm0-5.69a2,2,0,0,0-2,2.16,2.09,2.09,0,0,0,2.06,2.19,2,2,0,0,0,2-2.16A2.09,2.09,0,0,0,48.11,33.7Z"/><path class="cls-7" d="M56.14,39.24H54.59V32.48h1.55v1.05a2.42,2.42,0,0,1,2.11-1.19,2.32,2.32,0,0,1,2.4,2.6v4.3H59.1V35.4c0-1-.52-1.65-1.44-1.65a1.5,1.5,0,0,0-1.52,1.67Z"/><path class="cls-7" d="M66.92,39.39a3.45,3.45,0,0,1-3.49-3.5,3.49,3.49,0,0,1,3.51-3.55,3.35,3.35,0,0,1,2.7,1.17l-1,1a2.28,2.28,0,0,0-1.76-.84A2,2,0,0,0,65,35.86a2.06,2.06,0,0,0,2,2.19,2.36,2.36,0,0,0,1.75-.85l.94.92A3.41,3.41,0,0,1,66.92,39.39Z"/><path class="cls-7" d="M75.31,38.12a2.48,2.48,0,0,0,1.83-.8l.9.8a3.52,3.52,0,0,1-6.23-2.25,3.36,3.36,0,0,1,3.3-3.53c2.15,0,3.24,1.69,3.24,3.65,0,.14,0,.27,0,.42h-5A1.89,1.89,0,0,0,75.31,38.12Zm1.51-2.73a1.76,1.76,0,0,0-1.72-1.78,1.82,1.82,0,0,0-1.75,1.78Z"/><path class="cls-7" d="M85,39.38a2.74,2.74,0,0,1-2.29-1.19v3.1H81.19V32.48h1.55v1.13A2.68,2.68,0,0,1,85,32.34a3.25,3.25,0,0,1,3.15,3.52A3.24,3.24,0,0,1,85,39.38Zm-.36-5.7a2.19,2.19,0,0,0,0,4.36,2,2,0,0,0,1.94-2.18A2,2,0,0,0,84.67,33.68Z"/><path class="cls-7" d="M92.9,37.13a.74.74,0,0,0,.83.84,2.09,2.09,0,0,0,1-.23V39a2.67,2.67,0,0,1-1.39.34,1.73,1.73,0,0,1-2-2V33.81H90.5V32.48h.85V30.63H92.9v1.85h1.82v1.33H92.9Z"/><path class="cls-7" d="M106,39.24h-1.55V32.48H106v1.05a2.42,2.42,0,0,1,2.11-1.19,2.32,2.32,0,0,1,2.41,2.6v4.3H109V35.4c0-1-.53-1.65-1.45-1.65A1.5,1.5,0,0,0,106,35.42Z"/><path class="cls-7" d="M116.9,39.39a3.5,3.5,0,0,1-3.59-3.5,3.61,3.61,0,1,1,3.59,3.5Zm0-5.69a2,2,0,0,0-2,2.16,2.09,2.09,0,0,0,2.06,2.19,2,2,0,0,0,2-2.16A2.09,2.09,0,0,0,116.9,33.7Z"/><path class="cls-7" d="M123,39.24V37.48h1.7v1.76Z"/><path class="cls-7" d="M161.36,33.32c0,1.52-.13,1.57-.8,1.65l-.32.05a.3.3,0,0,0,0,.41c.63,0,1.28,0,1.82,0s1.21.08,2.08.08a8,8,0,0,0,3.56-.68,4.56,4.56,0,0,0,2.56-4.13,4.39,4.39,0,0,0-2.94-4.29,9.48,9.48,0,0,0-3.38-.49c-1.4,0-2.55.05-3.58.13a.28.28,0,0,0,0,.4l.3,0c.68.06.69.26.69,1.64Zm1.66-5.6c0-.67,0-1,.12-1.06a2.45,2.45,0,0,1,1.16-.2c2.39,0,4,1.37,4,4.21,0,2.43-1.14,4.23-3.7,4.23-1.52,0-1.62-.74-1.62-2.13Zm13.55,3.61c.06-1.26-.64-1.79-1.78-1.79a3.94,3.94,0,0,0-2.2.9c-.48.45-.56.75-.56.92s.08.23.27.23a2,2,0,0,0,.92-.26.62.62,0,0,0,.27-.51.7.7,0,0,1,.76-.63c.7,0,.9.63.87,1.36v.37c0,.14,0,.27-.33.37l-1.58.58c-1,.34-1.19.81-1.19,1.33a1.36,1.36,0,0,0,1.46,1.39,2.32,2.32,0,0,0,1.22-.37c.22-.13.32-.2.39-.2s.13.07.23.17a1.36,1.36,0,0,0,1,.4,2,2,0,0,0,1.44-.63c0-.13-.06-.29-.13-.29a1.41,1.41,0,0,1-.49.16c-.52,0-.73-.43-.69-1.26ZM175,34.11a.64.64,0,0,1-.69.69.8.8,0,0,1-.8-.83.94.94,0,0,1,.77-1,2.39,2.39,0,0,1,.63-.17c.07,0,.12.08.12.24Zm7.57-2.78c.44-1,.64-1.07,1.07-1.16l.29-.06a.28.28,0,0,0,0-.41c-.32,0-.68,0-1.05,0s-.77,0-1.2,0a.26.26,0,0,0-.06.41l.35.08c.17,0,.3.08.3.18a2.23,2.23,0,0,1-.21.65c-.37.9-.71,1.77-1.06,2.49-.21-.43-.94-2.21-1.14-2.74a1.27,1.27,0,0,1-.12-.46c0-.08.16-.12.36-.15l.26-.05a.26.26,0,0,0,0-.41c-.5,0-.93,0-1.58,0-.5,0-1,0-1.5,0a.3.3,0,0,0,0,.41l.27.06c.43.09.59.27.88.89l1.37,3.11c.18.37.4.93.55,1.33a.39.39,0,0,0,.26.09.32.32,0,0,0,.24-.09c.17-.48.44-1.16.67-1.67Zm4.27-.13c0-.58,0-1.27,0-1.75a.24.24,0,0,0-.2-.11,8.48,8.48,0,0,1-1.86.77.39.39,0,0,0,0,.33l.17.1c.36.22.36.39.36,1v2.1c0,1.06-.05,1.21-.54,1.29l-.26.05a.29.29,0,0,0,0,.41c.54,0,1,0,1.5,0s1,0,1.55,0a.29.29,0,0,0,0-.41l-.26-.05c-.48-.08-.54-.23-.54-1.29Zm-.76-3a.86.86,0,1,0-.88-.86.84.84,0,0,0,.88.86m9.29-.89c0-.61,0-1.5,0-2.08a.19.19,0,0,0-.2-.11c-.57.23-1.32.53-1.88.69-.1,0-.08.27,0,.33l.2.13c.3.2.33.28.33,1.24v1.88c0,.16,0,.22-.08.23a2.85,2.85,0,0,0-.84-.1,3.28,3.28,0,0,0-3.44,3.3,2.65,2.65,0,0,0,2.66,2.75,2.73,2.73,0,0,0,1.64-.65l.08,0a.93.93,0,0,1,0,.4l0,.22a.23.23,0,0,0,.17.15,8.9,8.9,0,0,1,2.27-.54c.16-.09.13-.43,0-.52a1.63,1.63,0,0,1-.6.13c-.24,0-.34-.44-.34-1.75ZM193.9,34a.57.57,0,0,1-.1.4,1.34,1.34,0,0,1-.84.32c-1,0-1.8-1-1.8-2.45,0-1.21.62-2.17,1.59-2.17a1.19,1.19,0,0,1,1,.49,1.1,1.1,0,0,1,.18.69Z"/><path class="cls-7" d="M160.47,36.29a.52.52,0,0,1-.66,0,3.82,3.82,0,0,0-4-3c-2.63,0-5.29,1.87-5.29,6.12,0,4.42,2.76,6.58,5.44,6.58a4.52,4.52,0,0,0,4.33-3.09.41.41,0,0,1,.62.08,8.07,8.07,0,0,1-1,3.16c-.25,0-.5.12-.73.18a12.1,12.1,0,0,1-3.23.5,9.44,9.44,0,0,1-5.32-1.39,6.54,6.54,0,0,1-2.94-5.71,6.77,6.77,0,0,1,2.61-5.49A9.65,9.65,0,0,1,156,32.47a16,16,0,0,1,3.59.46l.58.12c0,.48.08,1.71.29,3.24"/><path class="cls-7" d="M167.91,42.12c.42,0,.48,0,.36-.39l-.63-1.81a9.17,9.17,0,0,0-.44-1.25h0c-.06.1-.21.54-.47,1.25L166,41.68c-.15.44-.12.44.25.44ZM166,42.8c-.39,0-.37,0-.51.41l-.6,1.81c-.3.89-.11.92.45,1l.44.08c.1.1.09.37,0,.43-.49,0-1.06,0-1.68,0s-1,0-1.49,0a.33.33,0,0,1,0-.43L163,46c.43-.07.6-.2.83-.69s.42-1,.74-1.84l2.06-5.38A2.7,2.7,0,0,0,167,37,2.6,2.6,0,0,0,168,36.3a.28.28,0,0,1,.25.12c.24.68.44,1.39.68,2.07l2.17,6.32c.35,1,.43,1.1,1.2,1.25l.22,0a.32.32,0,0,1,0,.43c-.62,0-1.18,0-2,0s-1.32,0-1.84,0a.32.32,0,0,1,0-.43l.33,0c.55-.07.62-.16.39-.8l-.7-2c-.14-.41-.2-.41-.62-.41Z"/><path class="cls-7" d="M177.39,41c0,.48,0,.51.72.51a1.9,1.9,0,0,0,2.16-2.16,2.08,2.08,0,0,0-2.08-2.23c-.79,0-.8,0-.8.74Zm-1.75-2.18c0-1.45,0-1.63-.73-1.7l-.39-.05a.3.3,0,0,1,0-.42c1-.09,2.24-.14,3.48-.14a6.2,6.2,0,0,1,2.86.52,2.35,2.35,0,0,1,1.33,2.2,2.6,2.6,0,0,1-1.81,2.38c-.09,0-.06.17,0,.26a17.53,17.53,0,0,0,2.67,3.91,2,2,0,0,0,1,.47.26.26,0,0,1,0,.3,4.38,4.38,0,0,1-1,.09c-1.45,0-2.24-.59-3.16-2-.4-.64-.83-1.47-1.19-2.05a.84.84,0,0,0-.94-.52c-.45,0-.46,0-.46.33v1.94c0,1.6.13,1.64.84,1.73l.33,0a.31.31,0,0,1,0,.43c-.66,0-1.34,0-2,0s-1.35,0-2,0a.29.29,0,0,1,0-.43l.33,0c.71-.09.85-.13.85-1.73Z"/><path class="cls-7" d="M186.47,46.11a4.47,4.47,0,0,1-.45-2.3.34.34,0,0,1,.47-.06c.27.77,1.08,2.39,2.56,2.39a1.61,1.61,0,0,0,1.8-1.62,2.44,2.44,0,0,0-1.54-2.19l-.65-.36a3.48,3.48,0,0,1-2.13-2.91c0-1.49,1.12-2.76,3.32-2.76a10.42,10.42,0,0,1,2.07.31,6.58,6.58,0,0,1,.31,2c-.07.14-.34.15-.48.05a2.13,2.13,0,0,0-2-1.8,1.54,1.54,0,0,0-1.7,1.59,2.25,2.25,0,0,0,1.43,1.84l.94.49a3.43,3.43,0,0,1,2.07,3c0,1.72-1.32,2.94-3.51,2.94a4.58,4.58,0,0,1-2.47-.63"/><path class="cls-7" d="M197.17,41.22c0,2.08.89,4.92,3.47,4.92,1.72,0,3.11-1.29,3.11-4.32,0-2.28-1-4.92-3.43-4.92-1.51,0-3.15,1.1-3.15,4.32m8.63.33a5.12,5.12,0,0,1-5.31,5.19,5,5,0,0,1-5.37-5.09,5.19,5.19,0,0,1,5.4-5.35,5,5,0,0,1,5.28,5.25"/><path class="cls-7" d="M217.51,43.93c0,.46,0,2.24,0,2.58a.66.66,0,0,1-.57.21c-.24-.31-.62-.75-1.7-2l-3.53-4c-1-1.11-1.47-1.67-1.73-1.9,0,0,0,.17,0,1v2.94a9.06,9.06,0,0,0,.27,3,.93.93,0,0,0,.77.38l.33,0c.14.1.12.39,0,.43-.56,0-1.14,0-1.72,0s-1,0-1.57,0a.3.3,0,0,1,0-.43l.33-.08c.29-.06.56-.11.67-.35a12.14,12.14,0,0,0,.19-3V39.13c0-1.17,0-1.41-.49-1.85a2.28,2.28,0,0,0-.8-.3l-.23,0c-.1-.09-.09-.39.06-.44.57.06,1.4,0,1.78,0s.68,0,1,0A20.47,20.47,0,0,0,213,39.62l1.51,1.63c.64.69,2,2.29,2.19,2.38s0-.12,0-.36V40.33a8.81,8.81,0,0,0-.28-3,.93.93,0,0,0-.76-.37l-.34,0c-.14-.1-.12-.39,0-.44.59,0,1.14,0,1.73,0s1,0,1.59,0a.31.31,0,0,1,0,.44l-.35.08c-.29.06-.54.1-.65.34a11.09,11.09,0,0,0-.21,3Z"/></g></g></svg>
