
<svg version="1.0" xmlns="http://www.w3.org/2000/svg"
 width="306.000000pt" height="183.000000pt" viewBox="0 0 306.000000 183.000000"
 preserveAspectRatio="xMidYMid meet">

<g transform="translate(0.000000,183.000000) scale(0.100000,-0.100000)"
fill="#000000" stroke="none">
<path d="M2840 1790 c0 -5 5 -10 11 -10 5 0 7 5 4 10 -3 6 -8 10 -11 10 -2 0
-4 -4 -4 -10z"/>
<path d="M2813 1745 c0 -8 4 -15 9 -15 4 0 8 4 8 9 0 6 -4 12 -8 15 -5 3 -9
-1 -9 -9z"/>
<path d="M2245 1710 c-3 -5 -1 -10 4 -10 6 0 11 5 11 10 0 6 -2 10 -4 10 -3 0
-8 -4 -11 -10z"/>
<path d="M2743 1712 c-14 -9 -21 -38 -8 -37 5 0 10 6 10 13 0 7 7 17 15 22 8
5 11 10 5 10 -5 0 -15 -4 -22 -8z"/>
<path d="M2826 1702 c-3 -4 4 -9 15 -9 23 -2 25 3 4 10 -8 4 -16 3 -19 -1z"/>
<path d="M1941 1685 c0 -16 18 -51 18 -37 1 7 6 10 11 7 6 -3 10 -1 10 4 0 6
-6 11 -14 11 -8 0 -17 6 -19 13 -3 6 -5 8 -6 2z"/>
<path d="M2160 1686 c0 -2 7 -7 16 -10 8 -3 12 -2 9 4 -6 10 -25 14 -25 6z"/>
<path d="M2396 1661 c-3 -5 -3 -17 1 -27 5 -13 3 -15 -8 -8 -8 5 -40 10 -71
11 -47 1 -56 -1 -51 -14 5 -13 3 -13 -15 -4 -21 11 -27 8 -22 -14 1 -5 -4 -4
-11 3 -7 6 -21 12 -31 12 -10 0 -18 6 -19 13 0 6 -5 2 -11 -10 -12 -26 -34
-32 -24 -7 3 8 2 12 -4 9 -6 -3 -10 -1 -10 4 0 6 -7 11 -15 11 -8 0 -15 -4
-15 -10 0 -5 -10 -14 -22 -20 -23 -11 -23 -11 -3 5 19 16 19 16 -10 9 -16 -4
-39 -11 -49 -17 -14 -7 -22 -6 -30 5 -6 8 -19 17 -28 21 -15 5 -18 1 -18 -25
l0 -31 -19 21 c-10 12 -24 22 -30 22 -7 0 -9 5 -5 13 4 6 -2 4 -13 -5 -11 -10
-25 -18 -33 -18 -7 0 -19 -8 -26 -17 -12 -16 -12 -16 -7 5 6 23 -10 31 -23 11
-4 -8 -9 -7 -15 2 -6 11 -13 9 -32 -9 -28 -26 -39 -28 -30 -5 4 11 3 14 -6 9
-6 -4 -9 -16 -6 -26 4 -14 1 -16 -19 -13 -13 3 -27 0 -30 -6 -4 -7 1 -11 13
-11 12 0 21 -5 21 -11 0 -7 -10 -9 -26 -6 -19 3 -24 1 -20 -10 3 -8 1 -11 -4
-8 -6 3 -10 2 -10 -4 0 -18 34 -30 47 -16 6 7 9 15 7 18 -3 3 4 8 15 12 13 4
21 15 21 27 0 12 3 18 7 14 9 -8 12 -46 3 -41 -14 9 -33 -14 -25 -31 5 -11 7
-22 7 -26 -1 -5 2 -8 8 -8 5 0 10 12 10 26 0 15 4 23 11 19 5 -4 24 -1 40 5
16 7 32 10 35 7 9 -9 -56 -38 -68 -31 -6 4 -8 3 -5 -3 4 -6 0 -17 -9 -24 -14
-11 -18 -11 -29 4 -12 17 -31 25 -21 9 3 -5 -8 -6 -24 -4 -17 2 -27 8 -24 13
3 5 -2 9 -11 9 -9 0 -13 5 -10 10 4 6 1 17 -5 25 -10 12 -9 15 4 15 9 0 16 7
16 15 0 8 -4 15 -10 15 -5 0 -13 0 -17 0 -4 0 -8 -6 -9 -14 -1 -8 -7 -22 -13
-33 -8 -14 -11 -14 -11 -3 0 12 -4 10 -15 -4 -13 -17 -15 -17 -15 -4 0 13 -9
17 -37 16 -21 0 -51 5 -66 11 -34 13 -40 14 -33 2 7 -11 -60 -24 -76 -15 -7 4
-59 8 -116 9 -103 1 -104 1 -99 -22 2 -13 -2 -28 -9 -34 -8 -6 -14 -7 -14 -2
0 12 -40 11 -40 -2 0 -5 -8 -1 -17 10 -15 19 -15 19 -9 -7 5 -23 3 -26 -11
-21 -11 4 -14 3 -9 -5 4 -7 13 -12 21 -12 7 0 15 -6 18 -14 5 -11 0 -12 -24
-3 -16 6 -29 18 -29 25 0 11 -6 11 -27 -3 -28 -18 -28 -18 -10 2 20 23 13 53
-12 53 -14 -1 -13 -3 3 -15 11 -8 17 -18 13 -21 -4 -4 -18 5 -32 20 -14 15
-25 22 -25 16 0 -7 -7 -6 -19 2 -11 7 -17 16 -14 21 3 5 -4 6 -16 2 -15 -5
-29 -1 -43 12 -12 10 -18 12 -14 6 5 -9 1 -13 -11 -13 -15 0 -16 -2 -3 -10 8
-5 10 -10 4 -10 -5 0 -15 5 -22 12 -9 9 -12 9 -12 -4 0 -10 -9 -15 -25 -15
-13 0 -23 3 -20 7 2 4 -7 5 -20 2 -14 -2 -22 -9 -18 -15 4 -6 0 -8 -11 -4 -12
5 -20 -1 -28 -18 -6 -14 -14 -25 -17 -25 -4 0 -7 -9 -7 -19 0 -11 4 -18 7 -15
4 2 10 0 14 -6 3 -6 -4 -10 -17 -10 -18 0 -20 -2 -8 -10 8 -5 10 -10 4 -10 -8
0 -9 -11 -4 -37 9 -39 -6 -62 -42 -63 -9 0 -20 -4 -23 -10 -3 -6 1 -7 9 -4 9
3 22 -1 31 -9 21 -22 19 -29 -7 -21 -13 3 -20 3 -15 -1 6 -7 17 -10 60 -14 5
-1 5 -5 2 -11 -12 -19 7 -10 27 13 12 14 21 18 24 11 3 -7 15 -10 27 -7 l22 5
-22 -16 c-30 -22 -29 -34 2 -28 19 3 25 0 25 -13 0 -14 -3 -15 -14 -6 -11 9
-16 9 -22 0 -4 -8 -3 -9 4 -5 7 4 12 4 12 -1 0 -4 -12 -16 -28 -26 -15 -9 -42
-26 -59 -38 -18 -11 -38 -22 -45 -23 -7 -2 -20 -5 -28 -8 -44 -16 -107 -33
-125 -33 -13 0 -21 -8 -23 -23 -2 -12 -8 -20 -13 -17 -5 4 -17 2 -26 -4 -16
-9 -15 -10 7 -9 14 1 31 6 37 11 9 6 18 5 28 -3 12 -10 15 -9 15 8 0 11 8 22
20 25 13 3 20 0 20 -9 0 -8 5 -14 10 -14 6 0 10 7 10 15 0 8 7 15 15 15 8 0
15 -5 15 -11 0 -5 5 -7 11 -4 6 4 8 9 5 12 -3 3 20 18 52 33 31 15 72 41 90
58 18 17 46 33 62 37 18 4 27 11 24 17 -5 8 5 9 32 5 21 -4 46 -2 54 3 12 8
11 10 -7 10 -12 0 -24 4 -28 9 -6 11 -44 9 -63 -3 -7 -4 -12 -2 -12 3 0 6 5
11 11 11 6 0 9 7 5 15 -3 8 -1 15 3 15 5 0 11 -6 14 -12 3 -10 7 -10 19 -1 12
11 18 9 33 -7 10 -11 21 -17 26 -15 4 3 10 1 14 -5 3 -5 12 -10 18 -10 17 1
-32 40 -49 40 -8 0 -14 8 -14 18 0 10 3 13 8 6 16 -24 49 -33 83 -24 42 12 46
7 17 -22 -20 -20 -21 -23 -5 -26 9 -2 17 -8 17 -13 0 -5 5 -9 11 -9 5 0 7 5 4
10 -3 6 -3 15 1 21 4 7 12 -1 20 -19 7 -19 21 -32 35 -34 12 -2 24 -8 26 -14
2 -7 -8 -9 -27 -6 -16 2 -30 8 -30 12 0 4 -23 7 -52 7 -32 -1 -53 4 -56 11 -4
14 -32 16 -32 3 0 -7 -75 -49 -100 -56 -3 -1 -25 -11 -50 -23 -25 -12 -50 -22
-55 -22 -6 0 -26 -14 -45 -31 -19 -17 -29 -28 -22 -24 6 3 12 1 12 -4 0 -6 -5
-11 -12 -11 -6 0 -8 -3 -5 -6 8 -9 38 16 32 26 -3 4 1 7 8 6 6 0 13 3 14 8 1
5 7 13 15 17 17 11 141 49 150 46 4 -1 14 7 22 18 14 19 15 19 16 2 0 -11 -9
-21 -20 -24 -19 -5 -20 -7 -5 -23 21 -23 16 -42 -17 -59 -28 -13 -37 -31 -17
-31 5 0 7 -4 4 -10 -3 -5 -1 -10 4 -10 6 0 11 8 11 18 0 10 16 24 43 36 45 20
87 26 87 14 0 -4 8 -8 18 -7 10 0 12 3 5 6 -20 7 -15 19 12 31 20 9 23 9 18
-3 -3 -9 1 -15 11 -15 9 0 16 -5 16 -10 0 -7 -6 -8 -16 -2 -12 7 -22 4 -36
-10 -13 -13 -29 -18 -44 -15 -13 2 -24 0 -24 -4 0 -5 -6 -9 -14 -9 -8 0 -18
-5 -22 -12 -4 -7 -3 -8 4 -4 7 4 12 2 12 -3 0 -6 -5 -11 -12 -11 -6 0 -8 -3
-4 -7 4 -5 14 0 21 11 8 10 18 15 23 12 5 -3 17 1 27 8 19 14 55 10 55 -6 0
-5 -4 -7 -8 -4 -4 2 -28 -5 -52 -16 -25 -11 -40 -22 -33 -25 8 -3 9 -14 2 -36
-12 -42 -12 -44 7 -51 8 -3 12 -2 9 4 -3 6 1 10 9 10 9 0 16 5 16 10 0 6 9 10
20 10 11 0 20 -3 20 -6 0 -8 -28 -35 -37 -35 -4 0 -10 -3 -12 -5 -9 -8 19 -4
43 7 26 12 43 39 24 39 -17 0 42 48 76 62 23 9 31 9 34 0 2 -7 9 -12 15 -12 8
0 7 4 -1 12 -22 22 -13 31 25 25 21 -4 42 -2 50 5 10 8 13 7 14 -3 0 -8 2 -25
4 -39 l4 -25 -12 26 c-10 22 -16 25 -35 18 -16 -6 -21 -5 -16 2 4 7 1 10 -7 7
-8 -3 -14 -9 -14 -14 0 -17 -16 -34 -31 -34 -8 0 -12 4 -9 10 3 6 -1 7 -9 4
-9 -3 -16 -12 -16 -20 0 -8 -5 -14 -11 -14 -5 0 -8 4 -5 9 4 5 -3 7 -14 4 -11
-3 -20 -10 -20 -15 0 -5 4 -7 9 -3 5 3 17 -3 27 -12 10 -10 29 -19 43 -20 26
-1 26 -1 4 9 -38 18 -28 35 20 35 23 0 34 -2 25 -5 -10 -2 -18 -10 -18 -19 0
-12 3 -13 15 -3 8 6 20 8 26 4 8 -4 9 -3 5 4 -4 7 -2 12 5 12 7 0 9 9 6 23 -6
21 -5 21 8 3 12 -16 17 -17 30 -6 8 7 15 10 15 6 0 -3 10 4 22 16 20 20 23 21
26 5 3 -17 32 -25 32 -8 0 9 41 23 48 16 7 -7 -30 -55 -43 -55 -8 0 -21 7 -30
16 -23 23 -42 11 -39 -25 1 -17 -2 -28 -7 -25 -6 3 -7 14 -4 24 5 14 1 16 -21
12 -14 -2 -38 -16 -52 -29 l-27 -25 25 3 c14 2 31 11 38 19 12 13 13 12 9 -8
-5 -20 -2 -22 31 -20 21 1 47 -1 60 -6 14 -5 22 -3 22 4 0 6 5 8 10 5 6 -4 8
-11 5 -16 -13 -20 10 -8 30 16 15 18 24 22 35 15 13 -8 12 -12 -7 -31 -20 -21
-25 -21 -113 -11 -100 12 -123 8 -91 -15 12 -8 21 -19 21 -24 0 -6 -8 -3 -17
7 -17 16 -18 16 -21 1 -4 -20 -13 -21 -31 -4 -11 10 -13 9 -8 -5 5 -13 1 -18
-14 -18 -11 0 -18 -4 -14 -9 3 -5 0 -13 -6 -17 -8 -4 -9 -3 -5 4 5 8 -1 12
-14 12 -14 0 -19 -4 -14 -12 5 -9 2 -9 -9 1 -15 11 -17 11 -17 -2 0 -8 6 -18
13 -20 18 -8 -24 -8 -51 0 -17 4 -20 8 -11 14 8 4 20 3 29 -4 13 -10 13 -10 1
5 -7 10 -11 25 -7 33 7 19 -8 20 -23 1 -9 -11 -9 -15 1 -19 9 -4 7 -6 -4 -6
-9 -1 -20 4 -24 10 -5 8 -9 7 -15 -4 -8 -14 -12 -14 -39 0 -30 14 -41 43 -17
43 8 0 7 4 -3 10 -13 9 -7 14 13 11 4 0 7 3 7 9 0 14 -24 12 -39 -2 -10 -11
-11 -10 -6 3 5 13 -11 17 -102 28 -59 7 -112 16 -117 22 -11 10 -59 12 -105 3
-22 -5 -30 -11 -27 -21 3 -7 0 -13 -7 -12 -33 4 -37 -2 -17 -23 11 -12 20 -30
20 -40 0 -12 7 -18 21 -18 11 0 35 -11 53 -25 33 -25 63 -34 51 -15 -3 6 -1
10 4 10 16 0 13 -20 -3 -26 -8 -3 -27 3 -42 12 -40 27 -65 28 -71 4 -4 -14 -9
-17 -17 -11 -13 11 -30 3 -34 -18 -3 -16 17 -43 28 -36 4 3 10 -4 13 -15 5
-19 4 -19 -19 -2 -13 9 -24 21 -24 25 0 4 -9 3 -20 -3 -16 -9 -20 -8 -20 5 0
10 5 13 13 9 8 -5 8 -2 -2 9 -16 20 -22 22 -19 4 2 -6 -3 -11 -9 -9 -7 1 -13
-5 -13 -13 0 -18 -26 -20 -33 -2 -3 6 -4 2 -4 -11 1 -12 6 -22 12 -22 5 0 3
-5 -5 -10 -12 -8 -11 -10 6 -10 12 0 21 -7 21 -15 0 -11 -7 -14 -21 -9 -15 4
-17 3 -7 -4 8 -6 10 -15 5 -23 -19 -30 5 -79 38 -79 10 0 21 -7 24 -15 5 -11
10 -12 24 -3 10 6 16 17 13 24 -5 14 -53 25 -53 13 0 -17 -18 -9 -23 10 -3 14
-1 18 10 14 12 -5 14 -1 8 15 -4 13 -2 22 4 22 6 0 11 5 11 11 0 5 -4 7 -10 4
-5 -3 -10 -1 -10 4 0 6 6 11 13 11 19 -1 50 -27 43 -38 -3 -5 9 -9 27 -10 30
-1 31 0 13 14 -11 8 -14 14 -7 14 7 0 9 4 6 10 -3 5 1 10 9 10 9 0 16 -5 16
-11 0 -6 8 -8 18 -5 15 5 18 0 20 -28 1 -18 -4 -38 -11 -44 -11 -9 -13 -8 -12
6 0 9 4 23 8 29 4 6 3 14 -2 17 -11 7 -25 -29 -17 -42 3 -5 -1 -18 -9 -28 -11
-16 -16 -17 -27 -6 -10 10 -10 14 0 21 9 6 9 11 -1 26 -12 16 -14 12 -13 -31
1 -30 5 -49 13 -49 6 0 15 -3 19 -7 9 -10 34 10 34 27 0 6 7 12 15 12 13 0 13
-4 -1 -26 -12 -17 -14 -26 -5 -29 6 -2 8 -9 4 -15 -4 -7 0 -8 13 -3 10 5 25 8
32 7 6 -1 23 -2 36 -3 14 -1 22 -6 20 -10 -8 -12 34 -10 58 3 18 10 20 9 15
-6 -4 -9 -7 -20 -7 -23 0 -4 -5 0 -10 8 -8 13 -10 13 -10 -1 0 -9 7 -19 15
-23 10 -4 15 1 15 14 0 11 9 24 20 30 11 6 20 7 20 1 0 -5 18 -11 39 -13 22
-2 39 1 38 6 -2 11 93 48 108 42 6 -3 2 -5 -7 -5 -21 -1 -24 -17 -5 -24 7 -3
5 -6 -5 -6 -10 -1 -18 5 -18 12 0 9 -2 9 -8 -1 -5 -7 -16 -10 -24 -7 -9 4 -18
0 -21 -8 -4 -11 3 -13 34 -10 31 4 39 2 39 -11 0 -11 -8 -15 -30 -12 -35 4
-35 -12 -1 -35 21 -15 22 -18 6 -26 -16 -9 -16 -11 -1 -16 10 -4 15 -3 11 3
-3 6 -1 10 4 10 22 0 6 -33 -17 -38 -8 -1 -11 2 -8 7 4 5 0 11 -6 14 -10 3
-10 7 0 19 8 10 9 19 4 22 -6 3 -15 -1 -22 -9 -7 -8 -9 -15 -5 -15 5 0 1 -8
-8 -17 -20 -23 -22 -34 -5 -44 18 -12 58 -11 58 1 0 16 27 12 34 -6 3 -8 11
-12 18 -8 6 4 26 7 45 6 18 -1 43 2 56 7 15 6 26 4 35 -5 8 -9 20 -11 35 -6
12 5 31 7 42 5 11 -1 32 -5 48 -7 15 -2 27 0 27 7 0 5 3 8 6 4 3 -3 17 -2 31
4 13 5 22 5 19 0 -3 -4 18 -7 47 -6 28 1 56 0 61 -3 18 -10 66 -10 60 0 -4 6
2 7 17 2 13 -4 37 -7 52 -6 16 2 46 -2 68 -8 22 -6 45 -8 51 -4 7 4 30 8 53 9
22 1 53 6 69 10 21 6 27 5 22 -4 -4 -6 -1 -11 7 -11 8 0 17 6 20 13 9 25 129
108 146 102 13 -5 12 -3 -1 12 -27 29 -38 69 -25 82 9 9 7 11 -8 6 -19 -6 -19
-6 -2 8 12 10 14 17 8 22 -19 11 -12 25 13 25 14 0 27 -8 31 -17 5 -15 4 -16
-6 -6 -20 20 -24 16 -25 -32 0 -25 3 -45 8 -45 4 0 8 -7 8 -15 0 -8 5 -15 10
-15 14 0 82 37 89 49 4 6 12 6 19 2 10 -6 5 -17 -19 -42 -18 -19 -30 -26 -26
-16 7 17 6 17 -24 0 l-30 -18 28 -6 c19 -4 32 0 41 10 7 9 18 15 23 14 5 -2 9
4 9 12 0 9 6 18 14 21 11 4 11 10 3 28 -6 13 -17 22 -23 19 -8 -3 -11 2 -7 16
4 18 7 18 20 6 17 -18 33 -19 33 -4 0 6 6 9 13 6 6 -2 11 -10 9 -16 -1 -7 2
-10 7 -7 5 4 12 2 15 -3 3 -5 -1 -11 -9 -15 -8 -3 -15 -11 -15 -17 0 -8 5 -7
17 2 9 8 25 13 35 11 11 -2 26 5 34 15 13 17 15 17 25 0 5 -9 15 -14 21 -11 6
4 14 0 19 -7 8 -12 11 -12 18 1 6 8 12 12 15 10 2 -3 -4 -16 -15 -30 -16 -21
-20 -23 -29 -10 -9 13 -11 13 -20 0 -5 -8 -10 -21 -10 -29 0 -11 -3 -11 -15
-1 -12 10 -15 9 -15 -8 0 -16 5 -19 22 -14 14 3 19 2 14 -6 -4 -7 -2 -12 3
-12 6 0 11 5 11 11 0 6 7 9 15 5 8 -3 25 -1 37 4 13 5 17 9 10 9 -17 1 -7 18
19 32 19 10 20 9 9 -10 -14 -27 1 -27 20 -1 8 11 21 20 30 19 11 0 9 -5 -7
-16 -26 -18 -30 -33 -8 -33 8 0 14 5 12 11 -1 6 4 14 11 16 7 3 12 -4 12 -17
0 -31 32 -22 37 10 5 39 12 52 23 45 6 -4 7 -11 4 -17 -4 -6 -1 -9 5 -7 7 3
12 9 12 14 0 6 7 20 15 33 15 23 15 23 -6 12 -18 -9 -21 -9 -15 0 4 7 2 16 -5
20 -9 5 -9 9 -1 14 6 4 11 3 11 -3 0 -5 14 -8 30 -6 21 3 30 0 30 -10 0 -8 -4
-15 -10 -15 -5 0 -10 -4 -10 -10 0 -5 8 -7 18 -4 16 5 16 5 0 -9 -10 -8 -18
-19 -18 -24 0 -6 -13 -16 -30 -23 -28 -12 -41 -30 -21 -30 10 0 141 125 141
135 0 4 9 18 20 32 17 22 18 27 5 40 -24 23 -37 53 -31 69 3 8 0 14 -6 14 -24
0 1 11 36 15 23 3 35 1 31 -5 -3 -5 -1 -10 4 -10 6 0 11 5 11 12 0 6 8 20 17
30 16 18 16 18 0 12 -10 -3 -17 -1 -17 5 0 6 4 11 8 11 5 0 9 7 9 15 0 8 -4
15 -9 15 -4 0 -8 -4 -8 -10 0 -5 -7 -10 -15 -10 -19 0 -19 -9 2 -32 18 -20 4
-25 -15 -6 -9 9 -12 9 -12 -1 0 -7 -5 -9 -11 -5 -8 5 -8 9 1 14 7 4 9 13 6 19
-10 16 -26 4 -26 -20 0 -11 -6 -22 -14 -25 -8 -3 -17 -12 -20 -20 -3 -8 -2
-12 3 -9 11 6 8 -41 -2 -52 -11 -10 -8 -35 3 -28 16 10 12 -11 -5 -25 -8 -7
-15 -18 -14 -24 0 -7 2 -6 6 2 2 6 9 9 15 6 5 -3 16 2 25 12 14 17 14 17 1 -6
-15 -25 -64 -45 -73 -30 -3 5 -11 7 -18 4 -8 -3 -12 9 -13 36 -1 21 3 37 7 34
5 -3 9 0 9 7 0 7 -8 9 -21 6 -34 -9 -50 2 -38 24 5 11 6 19 1 19 -6 0 -12 11
-14 25 -3 13 -1 22 3 19 5 -3 9 0 9 6 0 7 7 10 15 6 15 -5 42 30 31 42 -3 3
-6 -1 -6 -8 0 -9 -7 -7 -22 7 -13 11 -33 23 -45 26 -26 6 -51 -17 -32 -29 7
-4 9 -3 5 4 -3 6 -2 13 2 16 5 3 14 -6 21 -20 6 -14 7 -23 2 -19 -5 3 -12 1
-16 -5 -10 -16 -38 -12 -31 5 3 9 0 15 -8 15 -8 0 -16 -4 -18 -9 -1 -4 -14
-11 -28 -15 -23 -6 -24 -6 -5 6 26 17 34 78 9 78 -13 0 -14 3 -4 15 15 18 35
20 24 3 -4 -7 -3 -8 5 -4 15 10 5 25 -17 24 -9 0 -21 0 -27 2 -5 1 -18 2 -29
1 -15 -1 -16 -4 -6 -16 10 -12 10 -15 0 -15 -8 0 -10 -3 -7 -6 4 -4 13 -1 22
6 13 11 14 10 9 -4 -4 -11 -1 -16 12 -16 15 0 16 -2 5 -9 -13 -8 -13 -12 0
-27 12 -16 12 -17 -3 -11 -9 3 -19 1 -21 -6 -2 -7 -8 -9 -12 -4 -5 4 -3 13 3
19 16 16 15 28 -1 28 -7 0 -13 -9 -14 -20 -1 -11 -11 -32 -22 -46 -20 -25 -21
-26 -21 -5 0 13 6 21 16 21 13 0 14 3 4 15 -6 8 -9 18 -6 23 9 15 -15 72 -30
72 -8 0 -14 -4 -14 -10 0 -5 4 -10 10 -10 5 0 6 -8 3 -17 -4 -11 -8 -12 -11
-5 -7 21 -22 13 -18 -10 4 -27 -10 -48 -33 -48 -12 0 -13 2 -3 9 10 6 10 10
-3 21 -13 11 -18 10 -30 -6 -9 -10 -15 -14 -14 -9 4 31 -2 47 -16 41 -8 -3
-15 -2 -15 3 0 4 -11 6 -25 3 -14 -2 -25 -8 -25 -13 0 -5 -7 -6 -15 -3 -8 4
-12 10 -9 15 3 5 1 9 -4 9 -6 0 -12 -6 -15 -13 -3 -9 -22 -13 -53 -13 -51 1
-65 -6 -77 -37 -4 -10 -12 -15 -18 -11 -6 3 -7 9 -3 13 16 11 15 33 -1 57 -15
23 -14 24 7 25 13 1 3 5 -22 10 -25 5 -127 10 -228 12 l-183 2 3 -24 c2 -15
-3 -26 -12 -28 -12 -4 -12 -3 -1 5 8 6 10 12 3 16 -6 4 -22 -5 -35 -20 -16
-17 -27 -22 -31 -15 -4 6 -12 8 -18 5 -6 -4 -9 -1 -6 7 3 8 14 15 26 17 12 2
22 7 22 12 0 4 10 11 23 15 20 7 19 8 -12 14 -34 6 -34 6 -10 18 39 19 53 21
74 10 24 -13 114 -17 121 -5 3 4 9 6 14 3 4 -3 13 2 20 10 7 8 18 15 25 15 16
0 27 27 14 35 -5 4 -8 1 -7 -7 2 -9 -6 -12 -24 -11 -16 1 -28 -3 -28 -8 0 -6
6 -7 13 -4 6 4 1 -2 -13 -14 -14 -11 -26 -16 -28 -11 -2 6 -11 10 -19 10 -10
0 -13 6 -9 16 5 13 1 15 -18 10 -14 -3 -28 -1 -31 5 -4 6 2 13 14 16 12 3 21
9 21 14 0 5 8 5 17 2 12 -5 8 3 -10 20 -26 27 -36 57 -19 57 10 0 47 -41 55
-61 4 -10 6 -9 6 4 1 9 8 17 17 17 14 0 14 3 4 15 -10 12 -16 13 -28 3 -13
-10 -14 -10 -8 0 4 7 2 12 -8 12 -8 0 -16 8 -18 18 -4 20 13 62 25 62 5 0 5
-5 2 -10 -3 -5 -1 -10 5 -10 6 0 9 -4 5 -10 -3 -5 7 -16 22 -24 16 -9 21 -16
13 -16 -13 -1 -12 -3 1 -13 14 -10 15 -16 4 -30 -6 -9 -15 -14 -19 -10 -4 4
-4 0 0 -10 3 -10 1 -17 -5 -17 -6 0 -11 -9 -11 -20 0 -11 -5 -20 -11 -20 -5 0
-7 -4 -4 -10 10 -16 25 -11 25 9 0 10 7 24 15 31 8 7 15 17 15 22 0 5 7 17 16
25 14 15 14 17 0 25 -9 5 -14 13 -11 19 4 5 -4 14 -17 19 -25 12 -30 51 -10
85 10 18 11 17 12 -13 0 -18 4 -31 9 -28 12 8 55 -100 47 -120 -4 -11 -2 -15
7 -11 8 3 20 1 28 -3 11 -7 10 -10 -4 -16 -17 -6 -16 -8 3 -21 11 -8 18 -18
15 -23 -3 -4 2 -10 10 -14 9 -3 12 -12 8 -22 -5 -13 -3 -15 13 -7 10 6 25 8
33 5 8 -3 11 0 7 6 -3 6 -2 14 4 17 8 5 8 11 0 20 -8 9 -5 14 10 18 11 3 20
10 20 16 0 14 -17 14 -25 1 -9 -15 -25 -12 -25 5 0 8 3 14 8 14 19 -3 33 2 27
11 -3 6 -1 10 4 10 6 0 11 -5 11 -11 0 -5 5 -7 12 -3 7 4 8 3 4 -4 -11 -18 10
-14 25 5 8 9 13 18 12 20 -7 9 -2 21 11 26 10 4 13 1 9 -9 -3 -7 -10 -14 -17
-14 -6 0 -4 -5 4 -10 21 -13 33 -12 24 2 -5 8 -2 9 9 5 18 -7 24 8 7 18 -6 4
-8 11 -5 16 4 5 -2 9 -12 10 -17 0 -17 1 0 8 10 4 18 11 18 16 -1 18 47 24 54
8 8 -22 0 -26 -22 -15 -16 9 -18 7 -18 -14 2 -27 14 -45 16 -23 1 8 1 18 0 22
-1 5 3 6 9 2 16 -10 7 -56 -12 -66 -10 -5 -18 -6 -18 -2 0 4 -5 0 -11 -11 -9
-14 -13 -15 -19 -6 -10 16 -31 -2 -44 -35 -6 -16 -9 -17 -17 -5 -7 12 -10 11
-15 -7 -4 -13 -11 -23 -18 -23 -6 0 -4 -5 4 -10 10 -6 21 -3 36 11 11 10 23
17 26 13 4 -3 9 4 13 15 8 25 38 35 64 22 15 -8 20 -7 25 5 3 9 4 20 0 25 -5
8 -1 10 26 13 6 1 10 -3 11 -9 0 -5 10 -16 22 -23 l22 -13 -22 4 c-12 3 -31
-2 -43 -10 -11 -8 -27 -12 -34 -10 -9 4 -12 0 -9 -13 6 -21 -16 -38 -27 -21
-5 9 -11 7 -21 -5 -9 -12 -10 -15 -1 -10 6 4 12 2 12 -4 0 -7 6 -8 17 -1 10 5
26 5 39 1 15 -6 29 -4 43 7 12 8 25 12 28 9 4 -3 1 -6 -5 -6 -21 0 -13 -26 8
-27 11 -1 20 4 20 11 0 15 -35 58 -42 51 -2 -3 -5 2 -5 9 0 11 5 12 17 6 20
-11 30 -4 30 21 0 13 -5 17 -17 13 -15 -5 -15 -3 1 10 11 9 25 16 30 16 6 0 5
-4 -3 -9 -9 -6 -10 -11 -2 -15 8 -5 8 -13 0 -29 -9 -16 -9 -22 0 -25 6 -2 11
-8 11 -13 0 -6 -6 -7 -12 -3 -7 4 -6 -1 3 -11 16 -16 18 -16 39 5 18 18 20 24
9 31 -8 5 -9 9 -3 9 12 0 44 -32 44 -44 0 -4 -5 -4 -10 -1 -6 3 -17 0 -25 -8
-12 -13 -11 -15 15 -19 16 -2 27 -1 24 4 -3 4 1 11 10 14 16 6 11 33 -8 46
-17 12 23 9 45 -3 17 -9 19 -7 16 13 -2 13 -2 17 0 11 9 -26 28 -12 29 20 1
17 -1 27 -3 21 -2 -6 -17 -10 -33 -8 -16 2 -32 -1 -35 -6 -3 -6 -11 -10 -16
-10 -6 0 -8 4 -4 9 7 13 -27 23 -51 15 -17 -5 -17 -4 1 7 11 7 26 18 33 25 10
11 7 12 -18 9 -25 -3 -29 -1 -21 9 6 7 8 16 4 20 -4 4 0 4 9 1 10 -4 23 -3 30
1 19 12 51 13 72 2 16 -9 18 -7 13 6 -5 11 -1 16 12 16 10 0 24 7 31 15 11 13
8 15 -24 11 -20 -3 -35 -2 -32 2 2 4 -4 8 -14 8 -12 0 -17 -6 -15 -18 3 -15 0
-16 -23 -6 -71 31 -63 52 16 43 73 -9 160 -11 160 -5 -1 17 4 30 17 44 20 19
27 86 9 79 -7 -3 -11 -10 -8 -18 3 -7 -2 -15 -11 -19 -9 -3 -14 -10 -11 -15 9
-15 -29 -19 -42 -4 -10 10 -10 13 0 13 8 1 7 5 -4 14 -12 9 -18 27 -18 55 0
32 4 41 18 41 14 0 14 2 3 9 -13 8 -13 12 0 27 7 9 13 29 11 43 -2 20 0 23 7
10 6 -8 11 -34 12 -57 2 -22 6 -39 11 -36 4 3 8 -1 8 -8 1 -8 4 -7 10 4 6 10
7 26 1 41 -5 13 -6 29 -1 36 4 7 5 22 3 32 -3 11 0 19 6 19 7 0 9 6 5 13 -4 6
-4 9 1 5 4 -4 15 -2 24 4 9 7 13 9 9 4 -4 -5 -1 -21 7 -36 8 -15 11 -30 8 -34
-4 -3 1 -6 11 -6 10 0 24 7 32 15 14 13 13 15 -8 13 -18 -3 -24 2 -26 25 -2
15 1 27 7 27 6 0 7 15 4 37 -5 28 -3 34 7 28 10 -6 12 -4 7 9 -5 13 -1 19 13
23 11 3 20 10 20 15 0 5 -6 5 -16 0 -9 -5 -25 -7 -35 -5 -11 3 -19 0 -19 -6 0
-6 7 -8 17 -4 11 4 14 3 9 -5 -11 -18 -49 -15 -42 3 4 11 -5 16 -35 21 -23 4
-38 11 -36 18 2 6 14 10 25 8 16 -2 22 2 23 15 0 14 2 15 6 3 9 -22 19 -27 66
-28 23 0 36 2 30 5 -7 2 -13 9 -13 14 0 6 9 5 21 -1 36 -20 62 -21 55 -4 -3 9
-6 22 -6 30 0 9 -4 13 -9 10 -5 -3 -12 5 -15 18 -5 22 -28 32 -87 39 -9 1 -15
7 -12 13 5 15 -13 28 -21 15z m33 -55 c9 -10 7 -17 -6 -27 -11 -9 -14 -10 -9
-2 5 10 -1 11 -26 7 l-33 -6 30 20 c17 11 31 21 31 21 1 1 7 -5 13 -13z m-316
-33 c-6 -16 -20 -17 -29 -2 -5 8 -10 6 -16 -5 -8 -14 -12 -15 -25 -4 -14 11
-13 13 6 18 40 9 69 6 64 -7z m73 9 c7 -4 8 -15 3 -27 l-8 -20 0 20 c-1 15 -3
17 -10 7 -6 -10 -10 -9 -14 7 -5 21 8 27 29 13z m-408 -14 c-2 -8 10 -14 27
-16 41 -5 52 -18 26 -31 -12 -7 -21 -8 -21 -4 0 12 -58 35 -70 28 -5 -3 -10
-2 -10 2 0 7 9 13 48 32 1 0 1 -5 0 -11z m221 -31 c38 -8 48 -13 35 -17 -11
-4 -32 -3 -49 1 -16 5 -51 9 -77 9 -27 0 -48 4 -48 9 0 13 71 12 139 -2z m109
0 c6 -5 12 -4 12 2 0 10 34 8 62 -4 32 -13 9 -22 -44 -18 -65 5 -81 10 -74 22
7 10 25 9 44 -2z m188 -12 l29 -15 -47 0 c-45 0 -71 13 -46 23 22 9 35 7 64
-8z m-976 -15 c13 -8 13 -10 -2 -10 -9 0 -20 5 -23 10 -8 13 5 13 25 0z m66
-28 c-4 -3 -14 2 -24 12 -16 18 -16 18 6 6 13 -6 21 -14 18 -18z m44 -3 c0 -5
-7 -9 -15 -9 -9 0 -12 6 -9 15 6 15 24 11 24 -6z m864 5 c4 -11 2 -15 -8 -11
-8 3 -16 1 -18 -5 -3 -7 -10 -8 -17 -4 -9 6 -7 12 11 21 12 7 24 13 24 14 1 1
5 -6 8 -15z m94 -7 c15 -12 16 -37 1 -37 -6 0 -17 7 -25 15 -17 17 -49 21 -39
5 4 -6 10 -8 15 -5 5 3 11 1 15 -5 3 -5 -3 -10 -14 -10 -12 0 -21 3 -22 8 0 4
-2 17 -5 29 -3 20 -1 22 29 16 17 -3 38 -10 45 -16z m-1082 4 c-6 -9 -46 -22
-46 -15 0 3 10 9 23 14 29 11 29 11 23 1z m241 3 c-3 -3 -12 -4 -19 -1 -8 3
-5 6 6 6 11 1 17 -2 13 -5z m-40 -26 c-3 -8 -6 -5 -6 6 -1 11 2 17 5 13 3 -3
4 -12 1 -19z m-883 -3 c-4 -8 -8 -15 -10 -15 -2 0 -4 7 -4 15 0 8 4 15 10 15
5 0 7 -7 4 -15z m446 -20 c0 -5 -4 -4 -9 4 -5 8 -14 10 -22 5 -11 -6 -11 -4 0
10 11 13 16 14 22 4 5 -7 9 -17 9 -23z m310 5 c-8 -5 -17 -6 -20 -3 -3 3 1 8
8 10 6 3 9 10 6 16 -4 7 -1 7 7 -1 12 -11 12 -14 -1 -22z m815 20 c3 -5 1 -10
-4 -10 -6 0 -11 5 -11 10 0 6 2 10 4 10 3 0 8 -4 11 -10z m-877 -16 c5 3 15
-1 22 -8 9 -12 7 -13 -16 -7 -15 4 -29 14 -32 22 -3 12 -2 12 6 0 5 -7 14 -11
20 -7z m112 6 c0 -5 -5 -10 -11 -10 -5 0 -7 5 -4 10 3 6 8 10 11 10 2 0 4 -4
4 -10z m215 -19 c-6 -5 -25 10 -25 20 0 5 6 4 14 -3 8 -7 12 -15 11 -17z m520
19 c-3 -5 -14 -10 -23 -9 -14 0 -13 2 3 9 27 11 27 11 20 0z m72 4 c-3 -3 -12
-4 -19 -1 -8 3 -5 6 6 6 11 1 17 -2 13 -5z m-142 -13 c3 -5 1 -12 -5 -16 -5
-3 -10 1 -10 9 0 18 6 21 15 7z m-145 -27 c0 -8 -4 -12 -10 -9 -5 3 -10 10
-10 16 0 5 5 9 10 9 6 0 10 -7 10 -16z m180 6 c0 -5 -5 -10 -11 -10 -5 0 -7 5
-4 10 3 6 8 10 11 10 2 0 4 -4 4 -10z m263 3 c-7 -2 -19 -2 -25 0 -7 3 -2 5
12 5 14 0 19 -2 13 -5z m-215 -27 c-7 -8 -15 -12 -17 -11 -5 6 10 25 20 25 5
0 4 -6 -3 -14z m-303 -26 c-3 -5 -12 -10 -18 -10 -7 0 -6 4 3 10 19 12 23 12
15 0z m-408 -22 c-3 -8 -6 -5 -6 6 -1 11 2 17 5 13 3 -3 4 -12 1 -19z m-666
-15 c13 -16 12 -17 -3 -4 -10 7 -18 15 -18 17 0 8 8 3 21 -13z m1094 -13 c-10
-11 -21 -18 -23 -15 -3 3 3 12 14 20 27 20 30 18 9 -5z m-888 -23 c-6 -19 -23
-18 -23 2 0 11 5 17 14 14 7 -3 11 -10 9 -16z m-392 -24 c-7 -17 -8 -17 -15 2
-9 24 -2 41 12 27 6 -6 7 -19 3 -29z m172 5 c-3 -8 -6 -5 -6 6 -1 11 2 17 5
13 3 -3 4 -12 1 -19z m-80 -10 c-3 -8 -6 -5 -6 6 -1 11 2 17 5 13 3 -3 4 -12
1 -19z m53 12 c0 -5 -5 -10 -11 -10 -5 0 -7 5 -4 10 3 6 8 10 11 10 2 0 4 -4
4 -10z m964 -16 c3 -8 2 -12 -4 -9 -6 3 -10 10 -10 16 0 14 7 11 14 -7z m521
6 c3 -5 1 -10 -4 -10 -6 0 -11 5 -11 10 0 6 2 10 4 10 3 0 8 -4 11 -10z
m-1305 -10 c0 -5 -5 -10 -11 -10 -5 0 -7 5 -4 10 3 6 8 10 11 10 2 0 4 -4 4
-10z m925 0 c-3 -5 -12 -10 -18 -10 -7 0 -6 4 3 10 19 12 23 12 15 0z m271 -4
c15 -16 18 -26 6 -26 -4 0 -13 9 -20 20 -14 23 -7 26 14 6z m-1086 -6 c0 -5
-8 -10 -17 -10 -15 0 -16 2 -3 10 19 12 20 12 20 0z m-445 -10 c3 -5 1 -10 -4
-10 -6 0 -11 5 -11 10 0 6 2 10 4 10 3 0 8 -4 11 -10z m1416 -13 c-10 -9 -11
-8 -5 6 3 10 9 15 12 12 3 -3 0 -11 -7 -18z m178 1 c12 -3 12 -6 -2 -11 -11
-4 -21 1 -28 16 -10 19 -10 20 2 11 8 -6 21 -13 28 -16z m-219 -2 c0 -2 -8
-10 -17 -17 -16 -13 -17 -12 -4 4 13 16 21 21 21 13z m-209 -29 c-10 -9 -11
-8 -5 6 3 10 9 15 12 12 3 -3 0 -11 -7 -18z m49 13 c0 -5 -2 -10 -4 -10 -3 0
-8 5 -11 10 -3 6 -1 10 4 10 6 0 11 -4 11 -10z m300 0 c0 -5 -6 -10 -12 -10
-9 0 -8 -4 2 -10 13 -8 13 -10 -2 -10 -23 0 -34 20 -17 31 19 12 29 11 29 -1z
m-1120 -4 c0 -2 -7 -7 -16 -10 -8 -3 -12 -2 -9 4 6 10 25 14 25 6z m934 -22
c3 -8 2 -12 -4 -9 -6 3 -10 10 -10 16 0 14 7 11 14 -7z m230 1 c3 -8 1 -15 -3
-15 -5 0 -11 7 -15 15 -3 8 -1 15 3 15 5 0 11 -7 15 -15z m-126 -26 c-3 -8 -7
-3 -11 10 -4 17 -3 21 5 13 5 -5 8 -16 6 -23z m-828 -5 c0 -8 -4 -12 -10 -9
-5 3 -10 10 -10 16 0 5 5 9 10 9 6 0 10 -7 10 -16z m910 -3 c0 -16 -14 -20
-27 -10 -19 17 -16 28 7 22 11 -3 20 -9 20 -12z m-220 -1 c0 -5 -5 -10 -11
-10 -5 0 -7 5 -4 10 3 6 8 10 11 10 2 0 4 -4 4 -10z m-610 -14 c0 -9 18 -17
53 -22 79 -11 127 -12 127 -2 0 5 5 6 10 3 6 -4 26 -8 45 -10 27 -2 35 1 36
13 0 10 3 12 6 5 2 -7 4 -15 3 -19 -1 -4 4 -10 10 -14 7 -4 9 -13 6 -19 -10
-16 -29 -14 -23 3 3 8 -2 16 -12 19 -21 5 -65 -16 -54 -27 4 -4 0 -4 -10 0 -9
3 -17 10 -17 15 0 5 -12 4 -26 -1 -30 -12 -34 -12 -33 -2 3 20 -3 23 -18 11
-11 -10 -14 -10 -9 -1 11 18 0 15 -50 -13 -48 -27 -55 -23 -22 12 12 13 16 23
10 23 -6 0 -13 -4 -16 -9 -6 -10 -92 -8 -102 2 -4 4 -21 7 -37 7 -40 0 -28 11
19 17 22 3 34 1 30 -5 -3 -6 7 -7 27 -2 17 4 31 12 30 18 -2 7 2 12 7 12 6 0
10 -6 10 -14z m330 10 c0 -3 -4 -8 -10 -11 -5 -3 -10 -1 -10 4 0 6 5 11 10 11
6 0 10 -2 10 -4z m-760 -18 c0 -7 -5 -20 -10 -28 -7 -11 -12 -12 -21 -3 -9 9
-8 15 2 27 17 19 29 20 29 4z m830 8 c0 -2 -7 -9 -15 -16 -13 -11 -14 -10 -9
4 5 14 24 23 24 12z m170 -27 c0 -28 -15 -23 -18 7 -1 14 2 23 8 19 6 -3 10
-15 10 -26z m-900 1 c0 -4 -6 -10 -14 -13 -10 -4 -12 0 -9 14 5 18 23 18 23
-1z m140 12 c0 -10 -36 -9 -46 1 -4 4 5 7 19 7 15 0 27 -4 27 -8z m878 -19
c-2 -18 2 -28 12 -30 8 -1 36 -4 61 -8 36 -4 48 -11 52 -26 3 -12 10 -18 16
-14 19 11 12 -11 -9 -30 -18 -16 -20 -16 -26 -1 -3 9 -11 13 -17 9 -6 -3 -7
-1 -3 5 4 6 13 9 21 5 11 -4 13 -1 9 10 -3 9 -12 13 -19 10 -8 -2 -24 2 -37
11 -30 21 -38 20 -38 -5 0 -17 3 -19 14 -10 11 9 16 9 22 0 4 -8 3 -9 -4 -5
-7 4 -12 1 -12 -8 0 -15 -8 -19 -27 -14 -5 0 -6 10 -5 21 3 15 0 18 -13 14
-11 -5 -14 -3 -9 5 5 8 2 9 -12 4 -10 -5 -25 -9 -31 -9 -7 0 -13 -4 -13 -8 0
-5 -13 -15 -30 -24 -30 -15 -40 -9 -19 12 6 6 19 9 28 6 9 -4 13 -3 9 1 -11
12 -43 14 -50 2 -11 -17 -21 1 -14 27 5 20 11 23 31 19 14 -2 32 1 40 8 13 11
18 11 28 0 10 -10 8 -12 -8 -6 -17 6 -18 5 -7 -6 11 -11 17 -9 33 11 11 13 18
30 15 38 -3 7 -1 13 5 13 5 0 8 -12 7 -27z m38 -20 c-10 -10 -19 5 -10 18 6
11 8 11 12 0 2 -7 1 -15 -2 -18z m91 21 c-3 -3 -12 -4 -19 -1 -8 3 -5 6 6 6
11 1 17 -2 13 -5z m-377 -19 c30 -2 56 -8 58 -14 2 -5 11 -7 20 -4 14 5 13 3
-2 -9 -17 -13 -23 -13 -49 0 -23 12 -34 12 -48 3 -14 -8 -19 -8 -19 0 0 7 -10
9 -25 7 -14 -3 -25 -1 -25 4 0 5 -10 13 -22 18 -18 8 -14 8 17 4 22 -4 65 -8
95 -9z m-841 -22 c-7 -8 -21 -19 -31 -24 -14 -7 -18 -6 -18 6 0 8 7 15 15 15
8 0 15 7 15 15 0 9 6 12 15 9 12 -5 13 -9 4 -21z m452 -46 c-20 -10 -46 -25
-58 -33 -14 -9 -24 -10 -28 -4 -4 7 -13 6 -26 0 -10 -6 -19 -7 -19 -2 0 14 73
46 101 44 19 -1 29 5 39 26 11 25 13 25 20 7 5 -15 0 -23 -29 -38z m119 43 c0
-5 -5 -10 -11 -10 -5 0 -7 5 -4 10 3 6 8 10 11 10 2 0 4 -4 4 -10z m63 -15
c-3 -9 -8 -14 -10 -11 -3 3 -2 9 2 15 9 16 15 13 8 -4z m-280 -11 c7 -8 -17
-34 -32 -34 -17 0 -22 -19 -11 -41 11 -19 10 -20 -10 -9 -11 6 -18 15 -15 21
4 5 2 9 -4 9 -5 0 -13 -4 -16 -10 -3 -5 -14 -10 -23 -10 -13 1 -9 7 13 25 17
14 35 25 41 25 6 0 17 7 24 15 13 16 23 19 33 9z m227 -9 c0 -8 -4 -15 -8 -15
-5 0 -9 7 -9 15 0 8 4 15 9 15 4 0 8 -7 8 -15z m-56 -11 c4 -11 2 -15 -8 -11
-9 4 -12 0 -9 -13 7 -26 31 -33 49 -15 20 20 34 19 34 -1 0 -10 -5 -14 -16
-10 -8 3 -12 2 -9 -4 3 -6 15 -10 26 -10 10 0 19 -7 19 -15 0 -8 -5 -15 -11
-15 -6 0 -9 -6 -6 -14 6 -16 -15 -28 -35 -21 -18 7 -47 -15 -30 -22 21 -8 14
-40 -9 -38 -27 2 -46 33 -25 41 8 3 12 12 9 20 -3 8 -9 11 -14 8 -5 -3 -9 0
-9 5 0 6 5 11 10 11 6 0 5 8 -2 19 -7 11 -17 17 -23 13 -5 -3 -3 2 5 13 14 16
13 17 -8 11 -19 -6 -22 -4 -21 16 0 16 2 19 7 8 12 -26 40 -20 46 11 6 32 20
38 30 13z m108 7 c25 13 24 -5 -2 -31 l-20 -20 0 20 c0 11 -4 20 -10 20 -5 0
-10 5 -10 12 0 9 3 9 12 0 7 -7 17 -8 30 -1z m301 -10 c-2 -6 2 -11 7 -11 20
0 9 -20 -19 -35 -26 -13 -29 -13 -27 1 1 9 9 20 17 25 10 7 7 8 -11 3 -22 -6
-23 -5 -12 9 11 13 10 16 -5 20 -10 3 -2 4 17 2 19 -2 34 -8 33 -14z m-124 6
c-2 -2 -11 -8 -20 -15 -12 -9 -16 -9 -16 1 0 7 9 14 20 14 11 1 18 1 16 0z
m-682 -20 c11 4 14 2 9 -5 -4 -7 -1 -12 7 -12 30 0 25 -25 -5 -26 -20 -1 -28
3 -24 12 3 7 1 16 -4 19 -6 4 -10 12 -9 18 0 9 2 9 5 0 3 -7 12 -9 21 -6z
m1034 -4 c12 -14 12 -16 -1 -9 -8 4 -6 0 5 -10 15 -13 16 -15 3 -11 -9 3 -22
-1 -30 -10 -12 -15 -10 -16 20 -10 26 5 32 3 31 -11 0 -9 -3 -12 -5 -5 -4 8
-13 9 -30 3 -16 -6 -24 -6 -24 1 0 6 -4 8 -8 5 -4 -2 -8 6 -8 20 0 16 4 23 13
20 8 -3 13 2 13 14 0 24 4 25 21 3z m-331 -7 c0 -3 -4 -8 -10 -11 -5 -3 -10
-1 -10 4 0 6 5 11 10 11 6 0 10 -2 10 -4z m28 -20 c-7 -8 -16 -12 -21 -9 -11
7 2 23 19 23 12 0 12 -2 2 -14z m104 -16 c5 0 3 -7 -6 -15 -19 -19 -26 -19
-26 1 0 9 -5 12 -12 8 -7 -5 -8 -3 -4 5 5 7 15 10 23 7 8 -3 19 -6 25 -6z
m-868 -15 c-5 -13 -24 -20 -46 -16 -5 0 -9 -3 -9 -9 -1 -5 -2 -15 -3 -20 -1
-12 -26 -30 -40 -30 -4 0 -6 9 -3 20 3 11 1 23 -4 26 -16 10 0 22 23 16 16 -4
19 -2 13 8 -5 9 -4 11 3 6 7 -4 20 -2 29 3 26 15 43 13 37 -4z m726 11 c0 -3
-4 -8 -10 -11 -5 -3 -10 -1 -10 4 0 6 5 11 10 11 6 0 10 -2 10 -4z m54 -34
c-14 -9 -27 -45 -14 -37 6 3 10 -3 10 -14 0 -11 8 -25 18 -30 31 -19 -2 -11
-38 9 -19 11 -29 19 -22 20 7 0 11 4 8 9 -7 11 34 64 42 56 4 -3 2 -9 -4 -13z
m-239 -12 c3 -5 -1 -10 -10 -10 -9 0 -13 5 -10 10 3 6 8 10 10 10 2 0 7 -4 10
-10z m440 -20 c-3 -5 -11 -10 -16 -10 -6 0 -7 5 -4 10 3 6 11 10 16 10 6 0 7
-4 4 -10z m-705 -22 c0 -4 -7 -8 -15 -8 -8 0 -15 4 -15 8 0 5 7 9 15 9 8 0 15
-4 15 -9z m45 -8 c3 -5 2 -10 -4 -10 -5 0 -13 5 -16 10 -3 6 -2 10 4 10 5 0
13 -4 16 -10z m185 -25 c0 -8 -5 -15 -11 -15 -5 0 -7 5 -4 10 3 6 -4 10 -17
11 -13 0 -17 3 -10 6 6 2 9 9 6 15 -4 6 2 5 15 -1 11 -7 21 -18 21 -26z m490
-5 c0 -5 -2 -10 -4 -10 -3 0 -8 5 -11 10 -3 6 -1 10 4 10 6 0 11 -4 11 -10z
m-1332 -35 c-3 -3 -9 2 -12 12 -6 14 -5 15 5 6 7 -7 10 -15 7 -18z m150 -9
c-7 -8 -15 -12 -17 -11 -5 6 10 25 20 25 5 0 4 -6 -3 -14z m-288 -16 c-8 -5
-17 -7 -19 -4 -3 3 1 9 9 14 8 5 17 7 19 4 3 -3 -1 -9 -9 -14z m196 -2 c3 -4
-1 -5 -10 -4 -8 1 -18 5 -22 8 -3 4 1 5 10 4 8 -1 18 -5 22 -8z m134 -4 c0 -2
-7 -4 -15 -4 -8 0 -15 4 -15 10 0 5 7 7 15 4 8 -4 15 -8 15 -10z m643 -41 c1
-16 7 -31 12 -35 6 -5 -5 -5 -24 -1 -25 4 -32 3 -27 -5 4 -7 1 -12 -7 -12 -10
0 -13 7 -10 20 4 16 2 19 -11 14 -9 -3 -16 -1 -16 5 0 15 33 14 49 -1 10 -11
11 -5 7 30 -4 38 -3 41 10 27 8 -8 16 -27 17 -42z m149 32 c13 -18 8 -27 -11
-22 -12 3 -22 -1 -25 -9 -3 -8 -13 -14 -21 -14 -9 0 -14 4 -11 8 2 4 1 14 -5
22 -6 11 -9 12 -9 2 0 -9 -7 -11 -22 -6 -28 8 -31 11 -25 21 8 12 121 10 129
-2z m186 -13 c17 -17 18 -22 7 -22 -9 0 -18 6 -21 14 -3 9 -15 13 -29 10 -14
-2 -25 2 -29 11 -8 23 46 13 72 -13z m9 6 c-3 -8 -6 -5 -6 6 -1 11 2 17 5 13
3 -3 4 -12 1 -19z m-1193 -19 c-3 -5 -10 -7 -15 -3 -5 3 -7 10 -3 15 3 5 10 7
15 3 5 -3 7 -10 3 -15z m196 17 c0 -3 -4 -8 -10 -11 -5 -3 -10 -1 -10 4 0 6 5
11 10 11 6 0 10 -2 10 -4z m920 -17 c0 -6 -4 -7 -10 -4 -5 3 -10 11 -10 16 0
6 5 7 10 4 6 -3 10 -11 10 -16z m-468 4 c-6 -3 -9 -10 -5 -16 4 -7 -1 -6 -10
2 -21 17 -21 17 6 18 12 0 16 -1 9 -4z m-122 -23 c-8 -5 -22 -10 -30 -10 -13
0 -13 1 0 10 8 5 22 10 30 10 13 0 13 -1 0 -10z m384 2 c3 -5 -1 -9 -9 -9 -8
0 -12 4 -9 9 3 4 7 8 9 8 2 0 6 -4 9 -8z m89 -26 c-4 -6 -8 -5 -11 2 -2 7 -8
10 -13 6 -5 -3 -9 -1 -9 5 0 14 24 20 32 7 4 -5 4 -15 1 -20z m480 20 c26 -20
21 -26 -14 -16 -29 9 -31 8 -25 -14 3 -13 3 -26 0 -29 -8 -8 -34 3 -34 15 0 6
6 5 15 -2 17 -14 20 -3 5 20 -5 9 -5 19 2 27 13 16 28 16 51 -1z m-1358 -25
c-6 -5 -25 10 -25 20 0 5 6 4 14 -3 8 -7 12 -15 11 -17z m183 17 c8 -10 4 -13
-14 -14 -13 -1 -24 2 -24 8 0 5 5 6 10 3 6 -3 10 -1 10 4 0 14 5 14 18 -1z
m836 4 c3 -5 -1 -9 -9 -9 -8 0 -12 4 -9 9 3 4 7 8 9 8 2 0 6 -4 9 -8z m-1210
-33 c-4 -6 -11 -6 -20 2 -21 17 -17 31 6 19 11 -6 18 -15 14 -21z m1261 21 c3
-6 -1 -7 -9 -4 -18 7 -21 14 -7 14 6 0 13 -4 16 -10z m-985 -4 c0 -3 -4 -8
-10 -11 -5 -3 -10 -1 -10 4 0 6 5 11 10 11 6 0 10 -2 10 -4z m554 -21 c-7 -16
-24 -21 -24 -6 0 8 7 13 27 20 1 1 0 -6 -3 -14z m190 0 c4 -13 2 -14 -14 -5
-23 13 -26 20 -6 20 8 0 16 -7 20 -15z m931 5 c3 -5 1 -10 -4 -10 -6 0 -11 5
-11 10 0 6 2 10 4 10 3 0 8 -4 11 -10z m-340 -18 c-3 -3 -11 0 -18 7 -9 10 -8
11 6 5 10 -3 15 -9 12 -12z m-28 -8 c-3 -3 -12 -4 -19 -1 -8 3 -5 6 6 6 11 1
17 -2 13 -5z m126 -37 c7 -2 1 -2 -13 1 -14 3 -33 5 -42 6 -23 1 -11 16 13 16
10 0 20 6 20 13 1 6 4 2 6 -10 2 -12 10 -24 16 -26z m137 23 c0 -5 -4 -10 -10
-10 -5 0 -10 5 -10 10 0 6 5 10 10 10 6 0 10 -4 10 -10z m-1975 -10 c3 -5 1
-10 -4 -10 -6 0 -11 5 -11 10 0 6 2 10 4 10 3 0 8 -4 11 -10z m905 6 c0 -3 -4
-8 -10 -11 -5 -3 -10 -1 -10 4 0 6 5 11 10 11 6 0 10 -2 10 -4z m660 -11 c0
-14 12 -20 33 -16 5 1 6 -3 3 -8 -4 -5 -1 -13 5 -17 6 -4 16 1 21 10 5 9 14
16 20 16 6 0 4 -8 -5 -18 -21 -24 -21 -30 0 -28 10 0 19 -6 21 -15 3 -18 -23
-49 -41 -48 -9 0 -8 2 1 6 6 2 12 9 12 14 0 6 -5 7 -12 3 -7 -5 -8 -3 -4 5 5
7 14 10 22 7 8 -3 14 -1 14 4 0 6 -6 10 -14 10 -8 0 -22 8 -31 17 -16 15 -18
15 -26 1 -8 -14 -13 -12 -40 15 -29 29 -30 32 -13 44 23 17 34 16 34 -2z
m-1391 1 c-12 -10 -60 -16 -54 -6 3 5 18 10 32 10 15 0 24 -2 22 -4z m-174
-44 c-6 -7 -35 18 -35 31 0 5 9 2 20 -8 11 -10 18 -20 15 -23z m249 22 c4 -9
2 -13 -5 -8 -6 4 -15 0 -20 -7 -7 -11 -9 -11 -9 3 0 9 6 19 13 21 6 3 13 6 13
6 1 1 5 -6 8 -15z m1456 12 c0 -9 -30 -14 -35 -6 -4 6 3 10 14 10 12 0 21 -2
21 -4z m328 -21 c-6 -14 -17 -24 -24 -21 -6 2 -20 -3 -30 -13 -11 -9 -27 -20
-37 -24 -11 -4 -15 -12 -11 -19 4 -7 4 -10 -1 -6 -12 11 -45 -11 -39 -26 3 -8
1 -17 -4 -20 -16 -10 -23 23 -9 44 6 11 20 20 29 20 10 0 23 9 30 20 7 11 17
20 22 20 5 0 16 8 25 18 15 17 35 29 53 31 4 1 2 -10 -4 -24z m-318 -5 c0 -5
-2 -10 -4 -10 -2 0 -12 -3 -22 -7 -16 -6 -17 -5 -4 10 17 19 30 22 30 7z
m-595 -10 c-3 -5 -12 -10 -18 -10 -7 0 -6 4 3 10 19 12 23 12 15 0z m415 -13
c0 -16 -3 -17 -15 -7 -8 7 -15 16 -15 20 0 3 7 7 15 7 8 0 15 -9 15 -20z m205
13 c3 -5 1 -10 -4 -10 -6 0 -11 5 -11 10 0 6 2 10 4 10 3 0 8 -4 11 -10z
m-1555 -21 c0 -12 -35 -20 -38 -9 -3 8 -8 7 -18 -1 -11 -9 -14 -8 -14 5 0 12
8 15 35 13 19 -1 35 -5 35 -8z m100 -4 c0 -9 -6 -12 -15 -9 -8 4 -12 10 -9 15
8 14 24 10 24 -6z m535 -13 c-3 -3 -11 0 -18 7 -9 10 -8 11 6 5 10 -3 15 -9
12 -12z m695 3 c0 -8 -4 -15 -10 -15 -5 0 -10 7 -10 15 0 8 5 15 10 15 6 0 10
-7 10 -15z m76 -15 c8 0 12 -5 9 -11 -5 -7 -14 -5 -29 5 -20 13 -24 12 -34 -4
-9 -15 -8 -19 6 -23 9 -3 2 -5 -15 -6 -40 -1 -44 20 -8 39 14 7 25 17 25 22 0
5 7 2 16 -6 8 -9 22 -16 30 -16z m119 20 c3 -5 1 -10 -4 -10 -6 0 -11 5 -11
10 0 6 2 10 4 10 3 0 8 -4 11 -10z m75 2 c0 -13 -12 -22 -22 -16 -10 6 -1 24
13 24 5 0 9 -4 9 -8z m205 -19 c-16 -24 -16 -26 0 -20 9 4 21 7 26 7 4 0 6 7
3 15 -4 8 -4 15 -1 15 3 0 7 -7 11 -15 3 -9 -4 -21 -19 -31 -21 -13 -28 -14
-40 -4 -14 12 -13 16 6 37 30 31 35 29 14 -4z m-1505 -3 c0 -19 -18 -19 -23
-1 -3 14 -1 18 9 14 8 -3 14 -9 14 -13z m640 10 c0 -5 -2 -10 -4 -10 -3 0 -8
5 -11 10 -3 6 -1 10 4 10 6 0 11 -4 11 -10z m-520 -4 c0 -3 -4 -8 -10 -11 -5
-3 -10 -1 -10 4 0 6 5 11 10 11 6 0 10 -2 10 -4z m447 -11 c0 -8 -4 -15 -9
-15 -10 0 -11 14 -1 23 9 10 10 9 10 -8z m1018 -4 c-3 -6 -11 -11 -17 -11 -6
0 -6 6 2 15 14 17 26 13 15 -4z m-1715 -12 c0 -5 -12 -9 -26 -9 -22 0 -24 2
-14 14 12 15 40 11 40 -5z m615 0 c-10 -15 -25 -10 -19 6 4 8 10 12 15 9 5 -3
7 -10 4 -15z m733 9 c-3 -7 2 -20 10 -28 13 -13 12 -15 -9 -21 -24 -6 -49 5
-49 22 0 5 7 9 15 9 8 0 15 7 15 15 0 8 5 15 11 15 6 0 9 -6 7 -12z m150 -38
c11 0 12 -3 3 -14 -6 -7 -9 -21 -5 -30 7 -19 -7 -21 -24 -4 -9 9 -16 7 -31 -6
-19 -17 -19 -17 -15 6 l5 23 -13 -23 c-10 -16 -17 -19 -25 -11 -18 18 -4 47
19 41 13 -3 19 -1 15 5 -4 6 1 14 10 17 12 5 14 9 5 18 -24 24 -11 26 14 3 15
-14 34 -25 42 -25z m-685 33 c-8 -3 -11 -14 -7 -29 6 -23 5 -23 -27 -12 -28
10 -30 13 -14 16 11 2 24 10 28 18 4 8 13 14 20 13 9 0 9 -2 0 -6z m687 -13
c-8 -5 -17 -7 -19 -4 -3 3 1 9 9 14 8 5 17 7 19 4 3 -3 -1 -9 -9 -14z m-1250
6 c0 -2 -9 -6 -20 -9 -11 -3 -18 -1 -14 4 5 9 34 13 34 5z m295 -6 c-3 -5 -1
-18 4 -28 7 -13 7 -22 -1 -30 -9 -9 -9 -12 2 -12 10 0 11 -3 3 -11 -16 -16 -4
-49 19 -49 15 0 18 5 14 17 -4 9 -1 20 6 25 9 5 8 8 -6 8 -18 0 -18 1 2 19 12
10 22 25 23 32 0 11 2 11 6 -1 4 -8 13 -21 21 -30 14 -13 15 -13 9 8 -3 13 -3
21 0 18 4 -3 13 0 21 7 13 10 15 9 8 -8 -5 -15 -4 -17 5 -8 6 6 18 9 25 6 8
-3 14 0 14 6 0 6 5 11 10 11 6 0 10 -6 10 -14 0 -8 6 -17 13 -19 7 -3 5 -6 -6
-6 -14 -1 -16 -5 -8 -20 6 -10 8 -21 5 -23 -3 -3 2 -8 11 -11 17 -7 21 8 5 18
-5 3 -10 12 -10 18 0 8 4 7 9 -2 8 -12 12 -12 25 -2 12 10 19 11 29 2 8 -6 18
-7 23 -3 5 4 1 -2 -9 -14 -9 -11 -17 -25 -17 -30 0 -5 5 -2 11 6 8 11 12 12
16 3 7 -18 33 -16 33 2 0 17 2 18 24 9 9 -3 16 -13 16 -21 0 -8 5 -11 10 -8 6
3 10 1 10 -5 0 -7 7 -9 16 -6 8 3 12 2 9 -4 -12 -20 7 -32 21 -13 11 15 13 15
14 3 0 -19 46 -25 56 -8 4 6 3 8 -4 5 -15 -10 -42 3 -42 20 0 12 3 13 15 3 8
-6 18 -9 24 -6 5 4 12 -3 16 -14 3 -11 11 -20 16 -20 5 0 9 -4 9 -9 0 -12
-132 -8 -146 4 -9 7 -9 12 0 17 7 5 5 8 -6 8 -9 0 -25 3 -35 6 -15 5 -15 4 -3
-5 8 -6 11 -11 5 -11 -5 0 -3 -5 5 -10 11 -7 2 -9 -29 -5 -53 6 -58 10 -41 30
11 13 11 16 -1 13 -8 -2 -17 -10 -21 -20 -5 -12 -19 -16 -57 -15 -28 0 -51 3
-51 7 0 4 -11 8 -25 8 -14 0 -25 -5 -25 -10 0 -5 -4 -6 -10 -3 -5 3 -19 1 -30
-5 -16 -8 -20 -8 -20 4 0 7 7 17 16 20 9 4 15 9 12 12 -3 2 -18 -1 -34 -7 -16
-7 -33 -11 -39 -9 -5 1 -41 4 -79 7 -50 3 -71 1 -77 -9 -7 -11 -9 -11 -9 1 0
9 -8 11 -24 7 -14 -3 -28 -2 -31 4 -4 6 11 10 40 8 25 0 51 4 57 10 9 9 9 12
0 12 -19 0 -14 17 8 23 10 3 24 -1 30 -9 9 -10 16 -11 30 -1 11 6 17 13 15 16
-3 2 2 12 11 22 9 10 14 26 10 35 -3 9 -1 23 5 30 13 16 23 19 14 4z m111 -5
c-11 -8 -22 -12 -25 -9 -6 6 19 24 34 24 6 -1 1 -7 -9 -15z m1084 1 c0 -8 -6
-16 -13 -19 -8 -3 -14 1 -14 9 0 7 4 11 9 8 4 -3 8 0 8 5 0 6 2 11 5 11 3 0 5
-6 5 -14z m-1380 -16 c0 -5 -7 -6 -17 -3 -10 4 -14 2 -9 -5 3 -6 2 -13 -3 -16
-7 -5 -8 11 -2 32 3 7 31 0 31 -8z m127 3 c-19 -5 -18 -30 1 -26 5 1 13 -4 16
-13 3 -9 2 -12 -4 -9 -6 3 -13 0 -16 -9 -5 -13 -8 -12 -24 2 -24 20 -17 30 7
11 14 -11 14 -9 -2 9 -16 20 -17 25 -5 32 8 6 22 9 30 9 10 -1 9 -3 -3 -6z
m780 -8 c0 -8 -4 -12 -9 -9 -5 3 -6 10 -3 15 9 13 12 11 12 -6z m328 4 c-8
-11 6 -40 16 -34 4 3 6 11 3 19 -3 9 6 13 32 13 29 0 33 -3 22 -11 -8 -6 -17
-19 -21 -29 -4 -10 -12 -17 -19 -15 -7 1 -23 -3 -35 -10 -14 -8 -24 -9 -28 -2
-3 5 0 10 7 10 8 0 14 9 15 20 1 11 -2 20 -8 20 -5 0 -9 6 -9 13 0 8 7 14 15
14 8 0 12 -4 10 -8z m-1735 -3 c0 -3 -4 -8 -10 -11 -5 -3 -10 -1 -10 4 0 6 5
11 10 11 6 0 10 -2 10 -4z m35 -6 c3 -5 1 -10 -4 -10 -6 0 -11 5 -11 10 0 6 2
10 4 10 3 0 8 -4 11 -10z m95 0 c-8 -5 -19 -10 -25 -10 -5 0 -3 5 5 10 8 5 20
10 25 10 6 0 3 -5 -5 -10z m26 -69 c-15 -14 -16 -14 -16 2 0 9 5 17 11 17 6 0
10 10 9 23 -3 37 3 44 7 8 3 -22 -1 -39 -11 -50z m291 64 c0 -8 -4 -12 -9 -9
-5 3 -6 10 -3 15 9 13 12 11 12 -6z m127 1 c-2 -6 -21 -12 -42 -13 l-37 -2 30
13 c37 15 54 16 49 2z m520 -2 c4 -9 4 -19 1 -22 -3 -3 -5 0 -5 6 0 6 -7 9
-15 6 -15 -6 -21 7 -8 19 11 11 21 8 27 -9z m-60 -19 c15 -14 23 -25 18 -25
-5 0 -19 11 -32 25 -13 14 -21 25 -18 25 3 0 17 -11 32 -25z m-714 -8 c11 -5
9 -6 -4 -4 -11 1 -21 9 -23 17 -3 10 -2 11 4 4 4 -6 15 -14 23 -17z m810 3 c0
-14 7 -20 23 -21 18 -1 18 -2 4 -6 -10 -3 -16 -11 -13 -18 7 -19 -20 -40 -30
-24 -4 7 -2 15 4 17 7 2 9 9 5 15 -11 18 -13 57 -2 57 5 0 9 -9 9 -20z m277
-28 c1 -25 0 -26 -13 -8 -7 10 -11 23 -7 29 3 5 -3 6 -17 2 -20 -6 -21 -5 -9
7 19 21 44 4 46 -30z m278 12 c-25 -19 -34 -17 -32 4 1 14 7 17 26 14 23 -5
23 -6 6 -18z m275 1 c-7 -9 -15 -13 -18 -10 -3 2 1 11 8 20 7 9 15 13 18 10 3
-2 -1 -11 -8 -20z m-1450 5 c0 -5 -5 -10 -11 -10 -5 0 -7 5 -4 10 3 6 8 10 11
10 2 0 4 -4 4 -10z m60 -10 c0 -5 -5 -10 -11 -10 -5 0 -7 5 -4 10 3 6 8 10 11
10 2 0 4 -4 4 -10z m-188 -22 c-2 -10 1 -18 7 -18 7 0 9 -4 6 -10 -4 -6 7 -10
26 -10 46 0 30 -10 -19 -12 -23 -1 -39 -5 -35 -11 3 -5 -4 -4 -14 2 -25 13
-37 3 -21 -18 7 -9 1 -6 -13 7 -14 12 -29 19 -32 15 -4 -3 -7 -1 -7 6 0 19 23
37 48 37 12 0 22 -3 22 -7 0 -4 6 -9 14 -12 10 -4 12 0 9 13 -6 22 -33 33 -57
24 -9 -3 -16 -1 -16 5 0 7 17 10 43 9 36 -3 43 -6 39 -20z m715 0 c-3 -8 -6
-5 -6 6 -1 11 2 17 5 13 3 -3 4 -12 1 -19z m274 -9 c-5 -13 -10 -19 -10 -12
-1 6 -9 13 -18 16 -15 3 -13 6 7 14 31 13 33 12 21 -18z m434 13 c6 -4 12 -18
13 -32 3 -21 2 -22 -11 -11 -9 7 -13 20 -10 29 4 14 3 15 -6 2 -11 -16 -27 -8
-16 9 7 13 16 14 30 3z m-1355 -17 c0 -9 -9 -15 -22 -15 -21 0 -21 0 -2 15 24
18 24 18 24 0z m744 -2 c3 -8 1 -11 -4 -8 -6 3 -10 1 -10 -4 0 -6 -4 -11 -9
-11 -6 0 -9 8 -8 18 1 22 24 25 31 5z m497 -25 c-33 -26 -49 -22 -20 5 13 13
28 21 33 19 5 -3 -1 -13 -13 -24z m-346 12 c3 -5 1 -10 -4 -10 -6 0 -11 5 -11
10 0 6 2 10 4 10 3 0 8 -4 11 -10z m-928 -50 c-2 -11 -7 -23 -12 -27 -4 -5 -5
-2 -1 5 4 6 2 12 -4 12 -7 0 -6 5 2 15 17 19 18 19 15 -5z m-121 -5 c10 -10
11 -15 3 -15 -8 0 -8 -5 2 -17 13 -16 12 -17 -2 -5 -16 12 -33 52 -22 52 2 0
11 -7 19 -15z m315 -29 c5 3 9 1 9 -4 0 -5 -12 -14 -26 -20 -14 -7 -23 -8 -19
-2 8 13 -1 13 -26 -1 -18 -9 -19 -8 -8 9 12 19 39 26 39 10 0 -4 4 -8 10 -8 5
0 8 6 6 13 -1 6 -1 9 1 4 3 -4 9 -5 14 -1z m-250 -19 c-10 -9 -11 -8 -5 6 3
10 9 15 12 12 3 -3 0 -11 -7 -18z m79 13 c0 -5 -2 -10 -4 -10 -3 0 -8 5 -11
10 -3 6 -1 10 4 10 6 0 11 -4 11 -10z m324 -3 c-3 -8 -11 -14 -19 -14 -18 0
-20 13 -2 20 21 9 27 7 21 -6z m66 -7 c0 -5 -2 -10 -4 -10 -3 0 -8 5 -11 10
-3 6 -1 10 4 10 6 0 11 -4 11 -10z m-260 -34 c0 -3 -4 -8 -10 -11 -5 -3 -10
-1 -10 4 0 6 5 11 10 11 6 0 10 -2 10 -4z"/>
<path d="M1380 956 c0 -20 27 -39 45 -32 8 3 15 1 15 -4 0 -6 5 -10 10 -10 6
0 10 7 10 15 0 8 -8 15 -19 15 -10 0 -24 7 -31 15 -16 19 -30 19 -30 1z"/>
<path d="M1400 900 c0 -5 5 -10 10 -10 6 0 10 5 10 10 0 6 -4 10 -10 10 -5 0
-10 -4 -10 -10z"/>
<path d="M1397 849 c7 -7 15 -10 18 -7 3 3 -2 9 -12 12 -14 6 -15 5 -6 -5z"/>
<path d="M1975 600 c-3 -5 -1 -10 4 -10 6 0 11 5 11 10 0 6 -2 10 -4 10 -3 0
-8 -4 -11 -10z"/>
<path d="M2240 451 c0 -10 19 -25 25 -20 1 2 -3 10 -11 17 -8 7 -14 8 -14 3z"/>
<path d="M1467 400 c3 -12 14 -20 25 -20 14 0 18 5 14 16 -3 9 -6 18 -6 20 0
2 -9 4 -19 4 -14 0 -18 -5 -14 -20z"/>
<path d="M1430 380 c6 -11 17 -20 25 -20 8 0 15 -8 16 -17 0 -12 2 -14 6 -5 5
14 -33 62 -49 62 -5 0 -4 -9 2 -20z"/>
<path d="M1232 359 c2 -7 10 -15 17 -17 8 -3 12 1 9 9 -2 7 -10 15 -17 17 -8
3 -12 -1 -9 -9z"/>
<path d="M1555 330 c-3 -5 -1 -10 4 -10 6 0 11 5 11 10 0 6 -2 10 -4 10 -3 0
-8 -4 -11 -10z"/>
<path d="M2410 420 c0 -5 5 -10 10 -10 6 0 10 5 10 10 0 6 -4 10 -10 10 -5 0
-10 -4 -10 -10z"/>
<path d="M968 343 c7 -3 16 -2 19 1 4 3 -2 6 -13 5 -11 0 -14 -3 -6 -6z"/>
<path d="M2783 1663 c-20 -8 -15 -23 7 -23 11 0 20 7 20 15 0 15 -6 17 -27 8z"/>
<path d="M2197 1649 c7 -7 15 -10 18 -7 3 3 -2 9 -12 12 -14 6 -15 5 -6 -5z"/>
<path d="M2915 1650 c-3 -6 -18 -8 -31 -6 -23 4 -24 3 -12 -12 11 -14 9 -14
-15 1 -16 10 -31 16 -35 13 -3 -3 1 -6 9 -6 8 0 4 -7 -9 -16 -20 -14 -25 -14
-40 -2 -20 18 -55 31 -48 19 3 -5 -9 -11 -26 -15 -19 -4 -34 -2 -39 5 -5 8 -8
8 -13 0 -4 -6 -12 -9 -17 -6 -5 3 -6 -1 -2 -10 4 -13 8 -14 14 -4 6 10 11 10
23 0 9 -8 16 -20 16 -27 0 -8 7 -14 15 -14 13 0 17 -6 14 -26 -1 -12 26 -24
44 -18 10 3 20 -1 23 -11 4 -10 13 -13 25 -10 14 5 17 2 13 -9 -7 -19 21 -32
39 -18 28 22 55 23 62 3 4 -12 12 -18 20 -14 8 3 13 9 10 13 -3 5 -1 11 5 15
5 3 10 0 10 -7 0 -10 2 -10 9 1 5 8 17 11 32 7 24 -7 24 -7 -1 8 -14 9 -20 15
-14 16 6 0 16 11 22 25 11 24 10 25 -8 15 -17 -9 -20 -8 -17 11 1 17 -5 24
-23 29 -23 5 -24 6 -5 13 16 7 17 10 5 17 -8 5 -24 7 -35 5 -11 -3 -14 -2 -7
1 14 7 16 24 3 24 -6 0 -13 -5 -16 -10z m-155 -40 c0 -5 -4 -10 -10 -10 -5 0
-10 5 -10 10 0 6 5 10 10 10 6 0 10 -4 10 -10z m90 1 c0 -6 -4 -13 -10 -16
-12 -7 -14 -26 -2 -23 4 1 18 -2 31 -6 18 -6 20 -10 10 -16 -7 -5 -21 -4 -31
1 -10 5 -19 6 -19 2 -1 -4 -5 6 -8 22 -4 17 -6 33 -4 38 6 10 33 9 33 -2z m90
5 c0 -2 -7 -9 -15 -16 -13 -11 -14 -10 -9 4 5 14 24 23 24 12z m-40 -31 c0 -8
-7 -15 -15 -15 -8 0 -15 7 -15 15 0 8 7 15 15 15 8 0 15 -7 15 -15z m44 -32
c13 5 14 3 4 -13 -14 -22 -38 -10 -38 19 0 13 2 13 9 2 5 -8 16 -11 25 -8z
m-84 -23 c0 -5 -4 -10 -10 -10 -5 0 -10 5 -10 10 0 6 5 10 10 10 6 0 10 -4 10
-10z"/>
<path d="M2578 1624 c-4 -4 -5 -19 -1 -33 l6 -26 -34 30 c-27 24 -29 25 -11 4
12 -14 22 -35 22 -46 0 -29 47 -41 65 -17 16 22 8 52 -15 59 -10 3 -20 13 -22
21 -2 9 -6 12 -10 8z m42 -48 c0 -10 -32 -36 -43 -36 -7 1 -1 10 12 20 23 20
31 24 31 16z"/>
<path d="M2600 1620 c0 -5 5 -10 11 -10 5 0 7 5 4 10 -3 6 -8 10 -11 10 -2 0
-4 -4 -4 -10z"/>
<path d="M1125 1600 c5 -7 -8 -9 -36 -6 -26 3 -48 1 -57 -7 -8 -7 -18 -11 -21
-9 -3 2 -7 -1 -9 -6 -2 -6 5 -13 15 -16 28 -8 101 -11 108 -4 12 11 15 58 5
58 -6 0 -8 -5 -5 -10z"/>
<path d="M2660 1585 c0 -8 -4 -15 -8 -15 -4 0 -8 -9 -8 -20 0 -22 38 -40 44
-21 2 6 8 9 13 5 5 -3 9 0 9 5 0 6 -4 11 -10 11 -5 0 -12 11 -16 25 -7 27 -24
34 -24 10z m20 -35 c0 -5 -5 -10 -11 -10 -5 0 -7 5 -4 10 3 6 8 10 11 10 2 0
4 -4 4 -10z"/>
<path d="M728 1563 c6 -2 18 -2 25 0 6 3 1 5 -13 5 -14 0 -19 -2 -12 -5z"/>
<path d="M2561 1501 c-8 -6 -9 -11 -3 -15 6 -3 14 -1 17 5 9 14 2 20 -14 10z"/>
<path d="M566 1492 c2 -2 -1 -13 -6 -23 -7 -12 -6 -20 2 -25 7 -4 10 -4 6 1
-4 4 -3 14 4 22 7 9 8 17 1 22 -5 5 -8 6 -7 3z"/>
<path d="M2593 1485 c0 -8 8 -15 17 -15 10 0 23 7 30 15 10 12 9 15 -4 15 -10
0 -14 -4 -11 -10 3 -5 1 -10 -4 -10 -6 0 -11 5 -11 10 0 6 -4 10 -8 10 -5 0
-9 -7 -9 -15z"/>
<path d="M2720 1486 c0 -9 30 -14 35 -6 4 6 -3 10 -14 10 -12 0 -21 -2 -21 -4z"/>
<path d="M2470 1466 c0 -5 7 -17 15 -26 15 -16 11 -55 -4 -46 -4 3 -7 -4 -7
-15 0 -10 3 -19 7 -19 4 0 9 -6 12 -12 2 -7 3 -5 2 4 -2 9 8 24 21 33 22 14
28 12 25 -7 -2 -12 27 -10 34 2 3 6 1 10 -5 10 -6 0 -10 10 -8 21 2 18 -3 22
-31 25 -19 2 -40 12 -47 22 -7 9 -14 13 -14 8z"/>
<path d="M2509 1459 c-10 -6 -7 -9 14 -9 29 0 35 5 14 13 -8 3 -20 1 -28 -4z"/>
<path d="M2838 1463 c-24 -3 -38 -10 -41 -21 -4 -15 -5 -15 -6 1 -1 19 -16 23
-26 7 -3 -5 -1 -10 5 -10 7 0 10 -7 6 -15 -3 -9 0 -15 9 -15 8 0 18 0 22 0 4
0 8 6 9 13 2 27 5 29 19 17 13 -11 12 -16 -10 -36 -14 -13 -32 -21 -40 -18 -8
4 -15 1 -15 -6 0 -6 5 -8 10 -5 6 3 10 2 10 -4 0 -5 -5 -11 -12 -13 -7 -3 -8
-9 -3 -18 7 -11 10 -10 19 2 13 18 62 36 52 19 -4 -6 -14 -11 -22 -11 -22 0
-13 -34 10 -38 23 -5 35 13 31 44 -1 13 2 21 6 18 5 -3 9 2 9 11 0 9 5 13 11
9 6 -3 4 5 -5 18 -19 30 -10 44 13 20 9 -10 13 -13 9 -7 -4 6 -2 17 5 25 8 9
9 11 0 6 -6 -3 -14 -2 -18 4 -3 5 -9 9 -13 8 -4 -1 -24 -3 -44 -5z"/>
<path d="M2617 1444 c3 -7 0 -14 -6 -14 -6 0 -11 5 -11 10 0 17 -17 11 -22 -8
-3 -10 1 -23 9 -30 7 -7 11 -17 8 -22 -4 -6 3 -6 17 -1 13 5 22 14 20 20 -3
17 51 8 56 -9 3 -9 -1 -11 -12 -7 -19 8 -21 -6 -3 -21 10 -8 16 -6 25 9 7 10
19 19 28 19 9 0 12 -5 8 -12 -4 -6 -3 -8 4 -4 5 3 13 0 15 -6 4 -8 6 -7 6 4 1
9 -12 23 -29 32 -16 8 -30 11 -30 6 0 -5 -13 -2 -30 6 -16 9 -30 19 -30 24 0
4 -7 10 -14 13 -10 4 -13 1 -9 -9z"/>
<path d="M2682 1446 c7 -8 15 -12 17 -11 5 6 -10 25 -20 25 -5 0 -4 -6 3 -14z"/>
<path d="M546 1422 c-3 -5 1 -9 9 -9 8 0 15 4 15 9 0 4 -4 8 -9 8 -6 0 -12 -4
-15 -8z"/>
<path d="M490 1376 c0 -2 8 -10 18 -17 15 -13 16 -12 3 4 -13 16 -21 21 -21
13z"/>
<path d="M2700 1360 c0 -5 5 -10 11 -10 5 0 7 5 4 10 -3 6 -8 10 -11 10 -2 0
-4 -4 -4 -10z"/>
<path d="M545 1344 c9 -9 19 -13 23 -10 3 4 0 11 -8 16 -24 15 -33 11 -15 -6z"/>
<path d="M2606 1349 c2 -4 -1 -9 -8 -11 -8 -3 -6 -7 5 -11 11 -4 20 0 26 11 7
14 5 18 -9 18 -10 0 -17 -3 -14 -7z"/>
<path d="M2743 1333 c9 -9 19 -14 23 -11 10 10 -6 28 -24 28 -15 0 -15 -1 1
-17z"/>
<path d="M2886 1335 c4 -8 8 -15 10 -15 2 0 4 7 4 15 0 8 -4 15 -10 15 -5 0
-7 -7 -4 -15z"/>
<path d="M500 1320 c0 -11 4 -20 9 -20 5 0 7 9 4 20 -3 11 -7 20 -9 20 -2 0
-4 -9 -4 -20z"/>
<path d="M2722 1313 c-10 -4 -10 -8 -1 -19 9 -11 8 -18 -2 -31 -13 -17 -13
-17 6 -3 48 35 76 60 68 60 -5 0 -18 -7 -29 -15 -25 -19 -38 -19 -30 0 3 8 4
15 3 14 -1 0 -8 -3 -15 -6z"/>
<path d="M483 1255 c-8 -9 -9 -16 -3 -20 6 -3 10 -1 10 5 0 6 4 8 10 5 6 -3 7
1 4 9 -7 19 -6 19 -21 1z"/>
<path d="M2626 1256 c7 -18 26 -17 30 2 1 7 0 8 -3 2 -3 -8 -9 -7 -19 1 -12
10 -13 9 -8 -5z"/>
<path d="M2767 1249 c7 -7 15 -10 18 -7 3 3 -2 9 -12 12 -14 6 -15 5 -6 -5z"/>
<path d="M632 1205 c0 -16 2 -22 5 -12 2 9 2 23 0 30 -3 6 -5 -1 -5 -18z"/>
<path d="M2305 1220 c3 -5 8 -10 11 -10 2 0 4 5 4 10 0 6 -5 10 -11 10 -5 0
-7 -4 -4 -10z"/>
<path d="M2326 1198 c-3 -13 -2 -26 3 -31 4 -4 8 6 9 23 1 36 -3 39 -12 8z"/>
<path d="M2416 1213 c-11 -11 -6 -23 8 -23 8 0 17 4 20 9 7 10 -19 23 -28 14z"/>
<path d="M2627 1209 c7 -7 15 -10 18 -7 3 3 -2 9 -12 12 -14 6 -15 5 -6 -5z"/>
<path d="M2797 1209 c7 -7 15 -10 18 -7 3 3 -2 9 -12 12 -14 6 -15 5 -6 -5z"/>
<path d="M530 1196 c0 -2 7 -7 16 -10 8 -3 12 -2 9 4 -6 10 -25 14 -25 6z"/>
<path d="M475 1170 c-16 -17 -16 -20 -3 -15 9 4 19 13 22 21 7 19 2 18 -19 -6z"/>
<path d="M2290 1181 c0 -5 5 -13 10 -16 6 -3 10 -2 10 4 0 5 -4 13 -10 16 -5
3 -10 2 -10 -4z"/>
<path d="M2835 1109 c4 -6 -2 -13 -14 -16 -17 -4 -19 -8 -10 -19 12 -14 33 -9
24 6 -3 5 -1 11 5 15 13 8 13 25 -1 25 -5 0 -7 -5 -4 -11z"/>
<path d="M713 1053 c-7 -3 -9 -12 -6 -20 5 -12 2 -15 -9 -10 -11 4 -18 -1 -21
-13 -5 -18 -3 -19 24 -4 19 10 28 11 27 3 -2 -6 3 -14 10 -16 8 -3 10 1 5 13
-5 13 -3 16 9 11 9 -3 19 0 22 8 9 24 -26 39 -61 28z"/>
<path d="M2770 1043 c0 -7 4 -13 9 -13 5 0 11 6 14 13 3 8 -1 14 -9 14 -8 0
-14 -6 -14 -14z"/>
<path d="M2850 1039 c0 -5 5 -7 10 -4 6 3 10 8 10 11 0 2 -4 4 -10 4 -5 0 -10
-5 -10 -11z"/>
<path d="M2420 1004 c-8 -21 -13 -25 -20 -15 -6 11 -9 10 -13 -5 -4 -17 -5
-17 -6 2 -1 21 -31 30 -31 10 0 -6 -4 -5 -9 2 -11 18 -17 16 -41 -8 -12 -12
-24 -19 -29 -16 -4 3 -8 -1 -8 -9 0 -10 11 -15 29 -15 15 0 28 -4 28 -10 0 -5
10 -14 21 -21 18 -9 24 -8 31 5 5 9 13 14 19 11 5 -4 9 -1 9 5 0 6 5 8 10 5 9
-6 15 8 11 29 -1 4 6 14 16 21 14 11 15 16 6 26 -10 10 -15 6 -23 -17z m-67
-26 c16 -12 16 -14 -5 -27 -13 -7 -20 -10 -16 -6 4 4 3 16 -3 26 -11 22 0 25
24 7z"/>
<path d="M260 1007 c0 -8 9 -22 20 -32 20 -18 20 -17 19 11 0 25 -2 26 -9 9
-8 -19 -9 -19 -9 3 -1 23 -21 32 -21 9z"/>
<path d="M165 992 c3 -8 5 -16 5 -18 0 -2 5 -4 10 -4 6 0 10 6 10 14 0 8 6 16
13 19 6 2 0 4 -16 3 -18 -1 -26 -5 -22 -14z"/>
<path d="M2460 1002 c0 -5 7 -15 15 -22 8 -7 15 -8 15 -2 0 5 -7 15 -15 22 -8
7 -15 8 -15 2z"/>
<path d="M2534 1000 c-15 -6 -13 -8 10 -14 25 -6 33 -34 7 -28 -6 1 -11 -2
-11 -8 0 -5 -7 -10 -15 -10 -18 0 -19 12 -4 27 7 7 6 12 -3 16 -10 3 -15 -4
-16 -23 -2 -20 3 -30 14 -32 15 -3 15 -4 -1 -18 -11 -9 -16 -10 -11 -2 4 6 2
12 -3 12 -6 0 -11 7 -11 15 0 8 -4 15 -9 15 -5 0 -11 9 -14 20 -7 27 -24 25
-29 -3 -4 -18 0 -23 15 -23 11 1 21 -6 23 -17 1 -9 -1 -15 -6 -12 -4 3 -10 -2
-14 -10 -3 -8 -15 -15 -27 -15 -21 0 -21 1 -6 18 16 18 15 18 -13 14 -17 -2
-29 -7 -26 -10 7 -6 -13 -32 -25 -32 -5 0 -9 6 -9 13 0 6 -11 19 -23 28 -20
14 -23 14 -39 -2 -14 -15 -14 -18 -2 -23 8 -3 21 -3 30 1 9 3 20 0 24 -8 6 -9
0 -19 -21 -31 -29 -18 -57 -26 -31 -9 11 7 10 9 -3 14 -9 4 -13 3 -10 -3 3 -6
1 -10 -5 -10 -6 0 -9 -4 -5 -9 3 -5 1 -12 -5 -16 -5 -3 -10 -1 -10 5 0 7 -5 6
-14 -2 -8 -7 -11 -17 -8 -22 3 -5 -2 -7 -10 -3 -11 4 -18 -1 -21 -14 -4 -16
-1 -18 21 -13 15 3 33 6 39 6 9 1 10 5 2 15 -11 13 -9 14 19 13 4 -1 5 -10 4
-22 -3 -17 0 -19 15 -13 10 4 27 9 38 10 37 4 52 16 51 38 -1 15 -7 21 -18 19
-9 -1 -19 2 -23 8 -3 5 0 11 7 12 7 0 18 2 23 2 6 1 15 4 20 8 7 4 9 -6 7 -28
-2 -19 0 -34 4 -33 5 1 26 -6 48 -15 21 -9 41 -15 43 -12 3 3 14 1 24 -4 12
-7 19 -6 22 3 4 9 6 9 6 0 1 -20 21 -15 22 5 0 10 3 12 6 5 2 -7 9 -13 14 -13
6 0 7 6 3 13 -5 7 0 6 11 -3 17 -14 18 -13 12 3 -8 21 6 22 27 1 15 -14 16
-14 16 3 0 12 3 14 8 6 7 -12 72 -15 72 -4 0 3 -14 12 -31 20 -30 13 -32 23
-3 27 10 2 14 -3 10 -12 -3 -8 -1 -14 4 -14 6 0 10 11 10 25 0 15 8 29 23 36
19 11 20 10 10 -3 -14 -16 -8 -28 14 -28 8 0 11 5 8 10 -3 6 -1 10 4 10 6 0
11 -6 11 -14 0 -8 6 -17 13 -20 6 -3 0 -3 -15 0 -31 7 -37 -6 -13 -26 8 -7 15
-8 15 -3 0 5 15 9 33 9 19 0 50 13 80 33 26 18 60 36 74 40 14 4 33 17 40 28
13 20 13 21 -11 19 -17 -2 -26 3 -29 15 -6 21 19 27 26 7 2 -7 8 -10 12 -6 4
4 3 14 -3 21 -7 8 -10 16 -8 18 2 2 -31 4 -74 4 -43 0 -82 -4 -86 -7 -3 -4
-17 0 -29 8 -17 11 -25 12 -30 4 -4 -6 -14 -8 -24 -5 -31 13 -92 15 -85 4 4
-8 -1 -9 -15 -4 -12 4 -27 2 -34 -3 -10 -8 -36 -9 -67 -3 -3 1 2 6 10 11 12 7
10 9 -7 7 -12 0 -29 -4 -39 -7z m95 -81 c-21 -13 -26 -11 -31 16 -4 17 0 25
11 28 22 4 39 -32 20 -44z m-65 12 c3 -5 -1 -11 -9 -14 -9 -4 -12 -1 -8 9 6
16 10 17 17 5z m194 -15 c-10 -7 -15 -16 -11 -20 4 -4 0 -4 -10 0 -19 7 -13
24 9 24 8 0 14 5 14 12 0 6 3 8 7 4 5 -4 0 -13 -9 -20z m155 8 c-3 -7 -11 -10
-19 -7 -20 8 -17 22 5 20 10 0 17 -7 14 -13z m-250 -30 c1 -10 6 -25 11 -32 7
-11 4 -12 -12 -3 -25 13 -38 31 -23 31 6 0 10 3 10 8 -1 4 -1 11 0 16 2 14 10
2 14 -20z m316 5 c-22 -13 -31 -11 -17 5 7 8 17 12 22 9 4 -3 2 -9 -5 -14z
m-399 1 c0 -5 -9 -14 -20 -20 -16 -8 -20 -8 -20 4 0 13 13 23 33 25 4 1 7 -3
7 -9z m287 -5 c0 -9 -6 -14 -12 -11 -6 2 -12 -2 -12 -9 0 -8 7 -11 16 -8 13 5
14 3 4 -8 -18 -18 -37 2 -28 30 7 24 32 28 32 6z m-151 -32 c-3 -4 -6 -1 -6 6
0 7 -4 9 -10 6 -6 -4 -7 1 -3 11 6 15 7 15 15 -1 6 -9 7 -19 4 -22z m224 23
c0 -3 -4 -8 -10 -11 -5 -3 -10 -1 -10 4 0 6 5 11 10 11 6 0 10 -2 10 -4z
m-384 -37 c4 0 11 5 16 13 7 10 11 10 15 1 2 -7 11 -13 18 -13 7 0 16 6 18 13
3 7 6 5 6 -6 1 -20 -31 -37 -37 -19 -6 20 -22 13 -32 -14 -7 -19 -16 -25 -29
-21 -10 2 -24 1 -32 -3 -8 -5 -20 -2 -27 6 -12 13 -8 14 27 10 22 -3 43 -2 45
3 8 13 -8 29 -33 32 -14 2 -26 10 -28 16 -3 9 5 9 31 -2 20 -9 39 -16 42 -16z
m-86 12 c0 -5 -7 -11 -14 -14 -10 -4 -13 -1 -9 9 6 15 23 19 23 5z m-130 -25
c0 -2 -7 -9 -15 -16 -13 -11 -14 -10 -9 4 5 14 24 23 24 12z"/>
<path d="M705 980 c3 -5 8 -10 11 -10 2 0 4 5 4 10 0 6 -5 10 -11 10 -5 0 -7
-4 -4 -10z"/>
<path d="M586 973 c-12 -12 -6 -23 14 -23 13 0 18 -5 13 -15 -3 -9 -8 -14 -10
-11 -6 5 -33 -18 -33 -28 0 -13 69 31 73 46 3 10 2 17 -2 16 -3 -1 -16 3 -27
10 -12 6 -24 8 -28 5z"/>
<path d="M1550 970 c0 -5 10 -10 23 -10 18 0 19 2 7 10 -19 13 -30 13 -30 0z"/>
<path d="M2155 970 c-1 -3 3 -10 10 -17 11 -10 15 -10 19 0 3 7 4 3 3 -8 -2
-11 -9 -19 -16 -17 -7 1 -11 -3 -9 -10 10 -28 33 -13 34 22 1 29 -3 36 -18 36
-11 0 -21 -3 -23 -6z"/>
<path d="M2214 941 c-1 -17 4 -28 12 -28 7 0 11 5 7 10 -3 5 3 6 16 2 19 -6
20 -4 10 17 -15 34 -44 33 -45 -1z"/>
<path d="M471 951 c-7 -5 -12 -14 -10 -20 3 -8 13 -5 28 8 24 21 10 30 -18 12z"/>
<path d="M780 956 c0 -2 7 -6 15 -10 8 -3 15 -1 15 4 0 6 -7 10 -15 10 -8 0
-15 -2 -15 -4z"/>
<path d="M540 938 c0 -9 5 -20 10 -23 13 -8 13 5 0 25 -8 13 -10 13 -10 -2z"/>
<path d="M423 920 c-22 -17 -22 -18 -3 -23 13 -3 21 1 26 15 8 27 3 29 -23 8z"/>
<path d="M662 922 c-10 -7 -10 -14 2 -36 7 -15 17 -23 20 -18 3 6 -1 18 -10
26 -15 15 -8 22 19 17 5 -1 6 3 2 9 -7 12 -16 12 -33 2z"/>
<path d="M775 910 c-3 -5 -1 -10 4 -10 6 0 11 5 11 10 0 6 -2 10 -4 10 -3 0
-8 -4 -11 -10z"/>
<path d="M487 888 c17 -20 28 -24 18 -8 -3 6 1 10 10 10 12 0 15 -5 10 -17 -5
-15 -4 -16 6 -5 17 16 -3 37 -36 37 -23 1 -23 0 -8 -17z"/>
<path d="M551 884 c0 -11 3 -14 6 -6 3 7 2 16 -1 19 -3 4 -6 -2 -5 -13z"/>
<path d="M801 891 c-8 -5 -10 -14 -6 -22 6 -9 3 -11 -9 -6 -10 4 -15 3 -11 -4
4 -6 -4 -8 -22 -4 -27 5 -27 5 -4 -5 14 -6 32 -8 40 -4 9 4 20 6 25 5 5 -1 4
5 -3 13 -10 12 -9 16 6 25 10 6 14 10 8 11 -5 0 -16 -4 -24 -9z"/>
<path d="M590 879 c0 -5 5 -7 10 -4 6 3 10 8 10 11 0 2 -4 4 -10 4 -5 0 -10
-5 -10 -11z"/>
<path d="M145 860 c-8 -9 -15 -24 -15 -34 0 -14 3 -15 23 -4 12 6 28 13 35 14
8 1 17 5 20 9 4 3 -9 4 -28 0 l-35 -5 24 18 c17 14 19 19 7 19 -9 0 -23 -8
-31 -17z"/>
<path d="M225 871 c-3 -5 -1 -12 5 -16 5 -3 10 1 10 9 0 18 -6 21 -15 7z"/>
<path d="M1625 871 c-3 -5 -1 -12 5 -16 5 -3 10 1 10 9 0 18 -6 21 -15 7z"/>
<path d="M2744 836 c1 -8 5 -18 8 -22 4 -3 5 1 4 10 -1 8 -5 18 -8 22 -4 3 -5
-1 -4 -10z"/>
<path d="M142 807 c-13 -6 -21 -16 -18 -23 3 -7 0 -15 -7 -17 -7 -2 -9 -7 -5
-11 9 -11 48 12 48 29 0 7 5 15 12 17 7 3 8 7 3 10 -6 3 -20 1 -33 -5z"/>
<path d="M370 811 c0 -5 7 -11 14 -14 10 -4 13 -1 9 9 -6 15 -23 19 -23 5z"/>
<path d="M1680 805 c-11 -13 -10 -14 4 -9 9 3 16 10 16 15 0 13 -6 11 -20 -6z"/>
<path d="M274 795 c9 -23 -14 -28 -36 -8 -12 10 -18 13 -15 7 9 -15 -19 -38
-37 -31 -10 4 -13 1 -9 -9 3 -7 9 -14 14 -14 5 0 9 -5 9 -11 0 -6 -7 -8 -17
-4 -14 5 -15 3 -6 -6 17 -17 46 -3 38 20 -3 10 1 24 10 31 10 9 15 9 16 1 1
-6 2 -16 3 -23 0 -6 8 -13 16 -15 13 -4 13 -3 0 6 -13 9 -13 11 3 11 9 0 16 4
15 9 -2 5 6 16 16 24 18 13 18 14 -3 20 -17 4 -21 2 -17 -8z"/>
<path d="M906 779 c-13 -15 -15 -24 -7 -32 13 -13 21 -6 25 20 2 11 11 18 25
17 11 0 21 3 21 8 0 17 -46 7 -64 -13z"/>
<path d="M1041 796 c10 -8 89 -13 83 -5 -3 5 -24 9 -46 9 -23 0 -39 -2 -37 -4z"/>
<path d="M430 780 c-9 -6 -10 -10 -3 -10 6 0 15 5 18 10 8 12 4 12 -15 0z"/>
<path d="M320 767 c0 -7 7 -22 15 -33 14 -18 15 -17 6 7 -5 15 -7 30 -4 33 4
3 1 6 -5 6 -7 0 -12 -6 -12 -13z"/>
<path d="M1041 768 c-1 -20 14 -24 25 -6 4 6 3 8 -4 4 -5 -3 -13 0 -15 6 -3 8
-6 6 -6 -4z"/>
<path d="M2695 770 c-3 -6 1 -7 9 -4 18 7 21 14 7 14 -6 0 -13 -4 -16 -10z"/>
<path d="M66 762 c-4 -6 -4 -12 0 -12 4 0 -1 -7 -12 -16 -15 -12 -16 -15 -2
-10 9 3 18 0 21 -7 7 -21 14 8 7 33 -4 17 -8 21 -14 12z"/>
<path d="M455 760 c-3 -5 -1 -10 4 -10 6 0 11 5 11 10 0 6 -2 10 -4 10 -3 0
-8 -4 -11 -10z"/>
<path d="M1915 750 c3 -4 -2 -13 -10 -20 -10 -9 -15 -9 -15 -1 0 6 -5 11 -11
11 -8 0 -8 -4 1 -14 8 -11 18 -12 36 -5 32 12 37 11 29 -1 -3 -5 -2 -10 3 -10
6 0 12 7 16 15 3 8 11 12 19 9 7 -2 14 1 14 8 0 8 -16 14 -44 15 -24 1 -41 -2
-38 -7z"/>
<path d="M2016 748 c6 -9 80 -6 90 5 3 2 -18 5 -45 5 -30 0 -48 -4 -45 -10z"/>
<path d="M2120 753 c0 -7 43 -42 53 -43 4 0 6 10 6 23 -1 17 -2 18 -6 4 -2 -9
-9 -15 -14 -11 -5 3 -7 9 -4 14 3 4 -4 10 -15 13 -11 3 -20 3 -20 0z"/>
<path d="M2435 750 c3 -5 8 -10 11 -10 2 0 4 5 4 10 0 6 -5 10 -11 10 -5 0 -7
-4 -4 -10z"/>
<path d="M2505 751 c-3 -5 -1 -12 4 -15 5 -3 11 1 15 9 6 16 -9 21 -19 6z"/>
<path d="M2568 739 c-15 -16 -15 -19 -3 -19 8 0 15 5 15 10 0 6 10 15 23 20
20 8 20 9 2 9 -11 -1 -28 -9 -37 -20z"/>
<path d="M302 730 c0 -14 2 -19 5 -12 2 6 2 18 0 25 -3 6 -5 1 -5 -13z"/>
<path d="M2200 730 c-6 -11 -8 -20 -6 -20 3 0 10 9 16 20 6 11 8 20 6 20 -3 0
-10 -9 -16 -20z"/>
<path d="M2665 740 c-3 -6 1 -7 9 -4 18 7 21 14 7 14 -6 0 -13 -4 -16 -10z"/>
<path d="M2605 729 c4 -6 0 -18 -8 -27 -14 -15 -14 -19 3 -39 14 -18 19 -20
24 -8 3 9 0 15 -9 15 -8 0 -15 5 -15 11 0 6 7 9 14 6 10 -4 13 -1 9 8 -3 8 2
18 11 21 24 9 19 19 -10 22 -15 1 -23 -2 -19 -9z"/>
<path d="M2816 732 c-4 -6 2 -15 11 -21 17 -10 17 -10 -1 -11 -15 0 -17 -5
-10 -27 4 -16 7 -38 7 -50 -1 -13 3 -23 8 -23 5 0 9 5 9 12 0 6 3 8 6 5 4 -4
1 -13 -5 -21 -9 -11 -9 -16 0 -21 8 -6 8 -9 -1 -15 -8 -5 -7 -9 5 -14 14 -5
16 -2 11 18 -3 14 -2 28 4 31 6 4 7 12 1 23 -5 9 -6 25 -1 36 4 12 2 36 -6 56
-7 19 -13 28 -13 20 -1 -12 -3 -13 -10 -1 -5 8 -11 9 -15 3z"/>
<path d="M240 711 c6 -12 5 -22 -3 -31 -9 -10 -9 -11 1 -6 6 4 12 2 12 -3 0
-6 -5 -11 -11 -11 -8 0 -9 -4 0 -13 6 -8 8 -17 4 -20 -3 -4 -2 -7 3 -7 5 0 24
19 43 41 l34 41 -31 -16 c-18 -9 -33 -12 -37 -7 -3 5 -1 12 5 16 16 10 12 22
-10 28 -16 4 -18 2 -10 -12z"/>
<path d="M436 709 c-11 -11 -15 -19 -10 -19 16 0 37 17 33 27 -2 6 -13 2 -23
-8z"/>
<path d="M106 712 c-10 -16 4 -40 27 -46 12 -3 23 -3 26 -1 2 3 -1 5 -8 5 -9
0 -9 5 -1 20 6 12 7 20 1 20 -5 0 -16 3 -24 6 -8 3 -18 1 -21 -4z"/>
<path d="M371 674 c0 -11 3 -14 6 -6 3 7 2 16 -1 19 -3 4 -6 -2 -5 -13z"/>
<path d="M175 670 c3 -5 10 -10 16 -10 5 0 9 5 9 10 0 6 -7 10 -16 10 -8 0
-12 -4 -9 -10z"/>
<path d="M90 655 c0 -9 6 -12 15 -9 8 4 12 10 9 15 -8 14 -24 10 -24 -6z"/>
<path d="M132 638 c-24 -15 -30 -23 -21 -29 8 -5 17 -3 21 4 4 7 8 8 8 2 0 -5
7 -1 15 9 8 11 17 17 21 14 3 -3 -5 -15 -17 -27 -12 -11 -19 -24 -15 -28 4 -4
11 -2 15 5 4 7 14 11 22 9 8 -2 11 -2 7 0 -5 3 -8 9 -8 14 0 6 4 7 10 4 6 -4
7 1 3 11 -5 13 -3 15 8 10 8 -4 5 0 -5 8 -25 20 -24 20 -64 -6z"/>
<path d="M2557 624 c3 -7 9 -14 14 -14 14 0 10 17 -5 23 -10 4 -13 1 -9 -9z"/>
<path d="M253 598 c2 -7 14 -12 26 -10 15 1 21 -2 18 -10 -2 -7 -10 -12 -16
-10 -7 1 -10 -2 -6 -8 9 -14 32 -13 38 3 9 27 -5 47 -35 47 -19 0 -28 -4 -25
-12z"/>
<path d="M2509 581 c6 -10 7 -22 3 -26 -4 -5 1 -5 11 -2 10 4 28 7 38 7 11 0
17 5 14 10 -3 6 -15 10 -26 10 -10 0 -19 5 -19 10 0 6 -7 10 -15 10 -12 0 -13
-4 -6 -19z"/>
<path d="M205 570 c-3 -5 -1 -10 4 -10 6 0 11 5 11 10 0 6 -2 10 -4 10 -3 0
-8 -4 -11 -10z"/>
<path d="M2733 559 c9 -6 15 -15 12 -20 -4 -5 -11 -7 -16 -4 -5 4 -9 1 -9 -6
0 -7 8 -9 23 -4 12 4 30 7 40 6 9 0 17 4 17 9 0 5 -9 7 -19 5 -11 -2 -25 3
-32 11 -6 8 -17 14 -23 14 -6 0 -3 -5 7 -11z"/>
<path d="M2685 530 c-4 -7 2 -21 14 -33 27 -28 35 -18 12 17 -13 19 -21 24
-26 16z"/>
<path d="M2830 525 c0 -9 -4 -13 -10 -10 -19 12 -10 -21 10 -35 14 -10 16 -17
9 -26 -7 -8 -7 -14 1 -19 5 -3 10 -1 10 5 0 7 6 10 13 8 6 -3 12 -11 12 -18 0
-7 6 -15 13 -17 16 -6 15 0 -9 46 -11 22 -22 48 -23 58 -4 22 -26 30 -26 8z"/>
<path d="M2741 494 c0 -11 3 -14 6 -6 3 7 2 16 -1 19 -3 4 -6 -2 -5 -13z"/>
<path d="M2775 490 c3 -5 8 -10 11 -10 2 0 4 5 4 10 0 6 -5 10 -11 10 -5 0 -7
-4 -4 -10z"/>
<path d="M2748 473 c-10 -3 -18 -14 -18 -25 0 -11 -5 -18 -12 -15 -7 2 -12 10
-10 16 1 6 0 11 -3 11 -10 0 -45 -35 -45 -44 0 -6 -17 -25 -37 -43 l-38 -33
35 10 c42 12 40 12 40 0 0 -5 -9 -10 -19 -10 -11 0 -23 -4 -26 -10 -3 -5 -17
-10 -30 -10 -30 0 -41 -15 -12 -16 12 0 31 -4 41 -9 16 -7 18 -5 13 8 -9 23
38 23 51 1 7 -12 17 -15 41 -9 26 6 30 9 20 21 -10 12 -14 12 -26 -3 -14 -17
-14 -17 -9 -1 3 10 2 17 -2 17 -34 -5 -35 35 -1 46 10 4 19 13 19 20 0 8 8 18
18 23 15 7 25 8 48 3 4 0 1 -7 -5 -15 -9 -11 -9 -15 1 -18 8 -3 5 -9 -10 -17
-29 -15 -31 -56 -2 -48 13 3 20 0 20 -9 0 -8 9 -14 20 -14 11 0 20 7 20 15 0
21 13 19 27 -5 10 -15 10 -22 -4 -35 -17 -18 -64 -16 -147 4 -22 5 -43 8 -46
6 -10 -6 -5 -74 6 -85 11 -11 193 -19 200 -8 3 4 12 4 21 1 11 -4 14 -2 11 8
-3 8 -1 22 4 32 5 10 7 31 3 47 -7 33 -40 74 -52 67 -5 -3 -7 9 -5 27 3 22 -4
43 -20 67 -23 33 -43 41 -80 32z m24 -35 c-7 -7 -12 -8 -12 -2 0 14 12 26 19
19 2 -3 -1 -11 -7 -17z m-67 -48 c-4 -6 -14 -9 -22 -6 -8 3 -11 1 -8 -4 3 -6
-1 -10 -10 -10 -25 0 -12 23 16 31 28 7 34 4 24 -11z"/>
<path d="M335 440 c-3 -5 0 -12 6 -15 5 -4 8 -12 6 -19 -3 -7 5 -12 19 -12 13
0 23 5 20 11 -2 5 -8 9 -14 8 -6 -2 -9 3 -6 11 6 15 -22 30 -31 16z"/>
<path d="M415 401 c-3 -6 4 -9 15 -8 11 1 20 5 20 9 0 11 -28 10 -35 -1z"/>
<path d="M2741 397 c-6 -8 -8 -17 -4 -20 12 -13 22 -7 20 13 -2 24 -1 24 -16
7z"/>
<path d="M250 369 c0 -5 5 -7 10 -4 6 3 10 8 10 11 0 2 -4 4 -10 4 -5 0 -10
-5 -10 -11z"/>
<path d="M468 363 c7 -3 16 -2 19 1 4 3 -2 6 -13 5 -11 0 -14 -3 -6 -6z"/>
<path d="M2200 355 c0 -8 2 -15 4 -15 2 0 6 7 10 15 3 8 1 15 -4 15 -6 0 -10
-7 -10 -15z"/>
<path d="M525 350 c5 -8 3 -11 -6 -8 -32 12 -66 -30 -39 -47 6 -4 7 1 4 12 -4
14 -1 12 15 -6 21 -23 21 -23 21 -2 0 12 -4 19 -10 16 -5 -3 -10 1 -10 10 0
12 4 14 19 5 17 -8 18 -15 10 -42 -5 -17 -6 -34 -4 -37 3 -2 5 1 5 7 0 7 7 12
15 12 16 0 16 -20 1 -31 -4 -4 9 -13 30 -20 45 -15 154 -20 154 -7 0 5 9 4 19
-2 13 -7 22 -7 26 0 3 5 12 10 18 10 8 0 8 -3 -1 -9 -11 -7 -11 -9 0 -14 17
-6 39 25 30 40 -4 5 -14 13 -22 16 -12 4 -12 6 1 6 9 1 19 8 23 16 3 8 13 15
23 15 12 0 14 3 6 11 -6 6 -9 18 -6 25 6 17 -32 20 -42 3 -4 -6 -13 -8 -21 -5
-8 3 -14 -1 -14 -9 0 -9 6 -12 17 -8 12 5 14 3 8 -7 -6 -10 -4 -12 11 -7 18 7
18 6 1 -7 -16 -12 -21 -11 -41 7 -13 14 -19 26 -14 33 5 7 2 14 -7 18 -9 3
-13 2 -10 -3 3 -5 -5 -17 -17 -25 -22 -16 -48 -22 -35 -9 4 3 -2 13 -14 21
-15 10 -24 11 -32 3 -6 -6 -16 -11 -21 -11 -6 0 -4 4 4 10 8 5 12 11 10 14
-10 9 -70 14 -70 5 0 -6 -9 -5 -21 2 -17 8 -20 8 -14 -1z m112 -116 c-3 -3
-12 -4 -19 -1 -8 3 -5 6 6 6 11 1 17 -2 13 -5z"/>
<path d="M2180 349 c0 -5 -4 -7 -10 -4 -6 3 -7 -1 -4 -10 5 -11 2 -14 -12 -9
-16 5 -16 4 -4 -5 8 -6 24 -10 35 -10 11 0 15 3 9 5 -7 3 -10 14 -7 24 3 11 3
20 -1 20 -3 0 -6 -5 -6 -11z"/>
<path d="M2226 352 c-2 -4 4 -9 15 -9 11 -1 17 2 14 8 -7 11 -22 12 -29 1z"/>
<path d="M2700 350 c0 -5 7 -7 15 -4 8 4 15 8 15 10 0 2 -7 4 -15 4 -8 0 -15
-4 -15 -10z"/>
<path d="M2096 312 c-3 -5 1 -9 9 -9 8 0 12 4 9 9 -3 4 -7 8 -9 8 -2 0 -6 -4
-9 -8z"/>
<path d="M2840 294 c0 -8 5 -12 10 -9 6 4 8 11 5 16 -9 14 -15 11 -15 -7z"/>
<path d="M2167 285 c-4 -8 -2 -17 2 -20 5 -2 11 4 14 15 6 23 -8 27 -16 5z"/>
<path d="M1990 279 c0 -5 5 -7 10 -4 6 3 10 8 10 11 0 2 -4 4 -10 4 -5 0 -10
-5 -10 -11z"/>
<path d="M2405 270 c-10 -11 -13 -20 -7 -20 6 0 16 9 22 20 6 11 9 20 7 20 -2
0 -12 -9 -22 -20z"/>
<path d="M834 272 c3 -5 0 -13 -6 -15 -9 -4 -10 -6 -1 -6 17 -1 25 16 12 25
-7 4 -9 3 -5 -4z"/>
<path d="M2220 261 c-16 -31 -12 -36 10 -11 23 26 24 30 10 30 -5 0 -14 -9
-20 -19z"/>
<path d="M1990 250 c0 -5 4 -10 9 -10 6 0 13 5 16 10 3 6 -1 10 -9 10 -9 0
-16 -4 -16 -10z"/>
<path d="M911 194 c0 -11 3 -14 6 -6 3 7 2 16 -1 19 -3 4 -6 -2 -5 -13z"/>
<path d="M1350 180 c-9 -6 -10 -10 -3 -10 6 0 15 5 18 10 8 12 4 12 -15 0z"/>
</g>
</svg>
