<svg id="Layer_1" data-name="Layer 1" xmlns="http://www.w3.org/2000/svg" viewBox="0 0 70 70"><defs><style>.icon_occasion_04_1{fill:#e8e8e8;}.icon_occasion_04_2{fill:#b2c1c0;}.icon_occasion_04_3{fill:#89664c;}.icon_occasion_04_4{opacity:0.67;}.icon_occasion_04_4,.icon_occasion_04_7{isolation:isolate;}.icon_occasion_04_5{fill:#594640;}.icon_occasion_04_6{fill:#fbb03b;}.icon_occasion_04_11,.icon_occasion_04_7{opacity:0.5;}.icon_occasion_04_8{fill:#fff;}.icon_occasion_04_9{fill:#ff8736;}.icon_occasion_04_10{fill:#ffce31;}</style></defs><title>icon_occasion_04</title><path class="icon_occasion_04_1" d="M63.75,65.21A4.87,4.87,0,0,1,59,69.5H11a4.87,4.87,0,0,1-4.76-4.29L.52,4.79A3.87,3.87,0,0,1,4.47.5H65.53a3.88,3.88,0,0,1,4,4.29Z"/><path class="icon_occasion_04_2" d="M60.38,51.17c-7.26,0-14,4.31-14,4.31s13.16-2,11.87-1.07c-9.83,7.36-39.11,7.15-44.8.53-3.09-3.59,19.76,5,24.29-3.77H9.62a1.82,1.82,0,0,0-1.85,2.14L9.32,64.13a2.55,2.55,0,0,0,2.46,2.13H58.22a2.55,2.55,0,0,0,2.46-2.13l1.56-10.82C62.4,52.13,62.26,51.17,60.38,51.17Z"/><path class="icon_occasion_04_3" d="M63.69,33.92a1.94,1.94,0,0,0-2-2.15H8.29a1.94,1.94,0,0,0-2,2.15L7.54,46.87A2.44,2.44,0,0,0,9.93,49H60.07a2.44,2.44,0,0,0,2.39-2.14Z"/><path class="icon_occasion_04_1" d="M19.51,61.82C15.39,61,11,57.09,11.28,60.47c.5,5.79,1.89,3.5,14.56,3.5S20.9,62.09,19.51,61.82Z"/><path class="icon_occasion_04_1" d="M51.26,61.82c4.12-.79,8.52-4.73,8.23-1.35C59,66.26,57.6,64,44.94,64S49.87,62.09,51.26,61.82Z"/><g class="icon_occasion_04_4"><path class="icon_occasion_04_5" d="M59.8,45.78c0-.59,0-1.08-24.8-1.08-25,0-24.8.49-24.8,1.08S10,46.86,35,46.86C59.8,46.86,59.8,46.38,59.8,45.78Z"/></g><g class="icon_occasion_04_4"><path class="icon_occasion_04_6" d="M57.69,44.66a2,2,0,0,0,2.42-1.78l.75-6.75a1.93,1.93,0,0,0-2-2.21H10.06c-1.22,0-1.25.32-.05.57a90,90,0,0,1,13,1.67c4.51,1,6.12,2.41,11.36,3.52,5.07,1.08,7.64.53,12.26,1.51A68,68,0,0,1,57.69,44.66Z"/></g><g class="icon_occasion_04_7"><path class="icon_occasion_04_8" d="M50.09,44.7a2.07,2.07,0,0,0,2,2.16h6.3a2.45,2.45,0,0,0,2.32-2.14C61.86,35.55,64,15,65.17,5.87a1.82,1.82,0,0,0-1.79-2.13H53a2.16,2.16,0,0,0-2.1,2.15C50.67,15.05,50.29,35.54,50.09,44.7Z"/></g><g class="icon_occasion_04_7"><path class="icon_occasion_04_2" d="M34.88,30.11a7.08,7.08,0,0,0-.66-4.45L30,18.26a3.29,3.29,0,0,0-3.48-1.5L18,19a5.64,5.64,0,0,0-3.25,2.78l-3.18,7a4.84,4.84,0,0,0-.16,3H34.5Z"/></g><g class="icon_occasion_04_7"><path class="icon_occasion_04_9" d="M17.22,41a3.56,3.56,0,0,0,3.61,1.43L30.45,40A4.35,4.35,0,0,0,33.27,37l1.23-5.25H11.44A4.06,4.06,0,0,0,12,33Z"/></g><g class="icon_occasion_04_4"><path class="icon_occasion_04_3" d="M14.42,34.71C16,37.33,18,41.59,20,41.06s7.49-2,8.52-2.24,1.43-2-4.05-.59-6.86-.93-8.84-4S12.89,32.11,14.42,34.71Z"/></g><g class="icon_occasion_04_7"><path class="icon_occasion_04_2" d="M56.9,30.06l-5.44-5.61a4.88,4.88,0,0,0-3.57-1.29l-6.8.7A4.33,4.33,0,0,0,38,26l-2.81,5.73H57.62A2.85,2.85,0,0,0,56.9,30.06Z"/></g><g class="icon_occasion_04_7"><path class="icon_occasion_04_9" d="M34.71,37.28l6.18,6.41a3.79,3.79,0,0,0,3.5.89l6-1.86a6.29,6.29,0,0,0,3.11-2.54l3.79-6.7a3,3,0,0,0,.33-1.71H35.21l-1,2A3.28,3.28,0,0,0,34.71,37.28Z"/></g><g class="icon_occasion_04_4"><path class="icon_occasion_04_3" d="M37.81,28.74c-1.32,2.4-3.7,5.9-2.41,7.23l5.48,5.66c.66.68,2.19.2-1.34-3.44s-2.32-5.8-.81-8.76S39.13,26.37,37.81,28.74Z"/></g><g class="icon_occasion_04_7"><path class="icon_occasion_04_10" d="M47.59,34.89c.06,2.15-6.37,8.38-4.42,8.58,1.33.14,3.81-5.82,6.18-7.67,1.48-1.16,3.89-1.5,5.83-2.45,2.45-1.21.57-1.72-2.48-.47-1.7.7-3.39-.19-4.55-1.11H46A5.68,5.68,0,0,1,47.59,34.89Z"/></g><path class="icon_occasion_04_8" d="M46.62,30.26s-4.36-5.76-5.39-4.7,2.64,3.56,4.81,6.21h2.11A10.13,10.13,0,0,1,46.62,30.26Z"/><g class="icon_occasion_04_7"><path class="icon_occasion_04_10" d="M31.52,37.6c.55-.76-.89-3.25-2.17-5.83H27.93C29.34,34.85,30.66,38.8,31.52,37.6Z"/></g><path class="icon_occasion_04_8" d="M28.64,20.25c.23-3.07-1.33-1.51-1.85,2.18s-5.95,4.5-5.95,4.5-8,1.09-7.53,2.68c.55,2,9.2-2.87,12.51-1.08.7.38,1.41,1.7,2.11,3.24h1.42a16.33,16.33,0,0,1-1.67-4.46C27.42,25.22,28.45,22.68,28.64,20.25Z"/><g class="icon_occasion_04_11"><path class="icon_occasion_04_8" d="M11,47c1.36,0,.85-9.69-.18-21.7S8.19,3.58,7.26,3.55c-1.64,0-.85,9.69.18,21.7S10.06,47,11,47Z"/></g></svg>
