<svg id="Layer_1" data-name="Layer 1" xmlns="http://www.w3.org/2000/svg" viewBox="0 0 70 70"><defs><style>.icon_xmas_11_1{fill:#4f4e4e;}.icon_xmas_11_2{fill:#fa424d;}.icon_xmas_11_3{fill:#bb323a;}.icon_xmas_11_4{fill:#ffd54b;}.icon_xmas_11_5{fill:#fb6871;}</style></defs><title>icon_xmas_04 copy</title><path class="icon_xmas_11_1" d="M68.75,6.25h-5a1.25,1.25,0,0,1,0-2.5h5a1.25,1.25,0,0,1,0,2.5Z"/><path class="icon_xmas_11_1" d="M68.75,66.25h-5a1.25,1.25,0,0,1,0-2.5h5a1.25,1.25,0,0,1,0,2.5Z"/><path class="icon_xmas_11_1" d="M6.25,6.25h-5a1.25,1.25,0,0,1,0-2.5h5a1.25,1.25,0,0,1,0,2.5Z"/><path class="icon_xmas_11_1" d="M6.25,66.25h-5a1.25,1.25,0,0,1,0-2.5h5a1.25,1.25,0,0,1,0,2.5Z"/><rect class="icon_xmas_11_2" x="10" y="11.25" width="50" height="47.5" transform="translate(0 70) rotate(-90)"/><rect class="icon_xmas_11_3" x="32.5" y="-11.25" width="5" height="47.5" transform="translate(22.5 47.5) rotate(-90)"/><rect class="icon_xmas_11_2" x="30" y="-18.75" width="10" height="47.5" transform="translate(40 -30) rotate(90)"/><path class="icon_xmas_11_4" d="M27.5,25a1.21,1.21,0,0,1-.88-.37l-2.5-2.5a1.24,1.24,0,0,1,1.76-1.76l2.5,2.5a1.24,1.24,0,0,1,0,1.76A1.21,1.21,0,0,1,27.5,25Z"/><path class="icon_xmas_11_4" d="M20,40a1.21,1.21,0,0,1-.88-.37,1.24,1.24,0,0,1,0-1.76l9.11-9.12h-7a1.25,1.25,0,0,1,0-2.5h10a1.25,1.25,0,0,1,.88,2.13L20.88,39.63A1.21,1.21,0,0,1,20,40Z"/><path class="icon_xmas_11_4" d="M26.25,48.75A1.25,1.25,0,0,1,25,47.5v-15a1.25,1.25,0,0,1,2.5,0v15A1.25,1.25,0,0,1,26.25,48.75Z"/><path class="icon_xmas_11_4" d="M32.5,40a1.21,1.21,0,0,1-.88-.37l-6.25-6.25a1.24,1.24,0,1,1,1.76-1.76l6.25,6.25a1.24,1.24,0,0,1,0,1.76A1.21,1.21,0,0,1,32.5,40Z"/><path class="icon_xmas_11_4" d="M46.25,23.75h-7.5a1.25,1.25,0,0,1,0-2.5h7.5a1.25,1.25,0,0,1,0,2.5Z"/><path class="icon_xmas_11_4" d="M47.5,33.75h-10a1.25,1.25,0,0,1-1.25-1.25v-5a1.25,1.25,0,0,1,1.25-1.25h10a1.25,1.25,0,0,1,1.25,1.25v5A1.25,1.25,0,0,1,47.5,33.75Zm-8.75-2.5h7.5v-2.5h-7.5Z"/><path class="icon_xmas_11_4" d="M48.75,48.75H36.25A1.25,1.25,0,0,1,35,47.5v-10a1.25,1.25,0,0,1,1.25-1.25h12.5A1.25,1.25,0,0,1,50,37.5v10A1.25,1.25,0,0,1,48.75,48.75ZM37.5,46.25h10v-7.5h-10Z"/><path class="icon_xmas_11_4" d="M42.5,48.75a1.25,1.25,0,0,1-1.25-1.25v-10a1.25,1.25,0,0,1,2.5,0v10A1.25,1.25,0,0,1,42.5,48.75Z"/><path class="icon_xmas_11_4" d="M48.75,43.75H36.25a1.25,1.25,0,0,1,0-2.5h12.5a1.25,1.25,0,0,1,0,2.5Z"/><rect class="icon_xmas_11_4" x="57.5" y="2.5" width="7.5" height="5" transform="translate(66.25 -56.25) rotate(90)"/><rect class="icon_xmas_11_4" x="5" y="2.5" width="7.5" height="5" transform="translate(13.75 -3.75) rotate(90)"/><rect class="icon_xmas_11_2" x="30" y="41.25" width="10" height="47.5" transform="translate(100 30) rotate(90)"/><rect class="icon_xmas_11_5" x="32.5" y="-21.25" width="5" height="47.5" transform="translate(37.5 -32.5) rotate(90)"/><rect class="icon_xmas_11_5" x="32.5" y="38.75" width="5" height="47.5" transform="translate(97.5 27.5) rotate(90)"/><rect class="icon_xmas_11_4" x="57.5" y="62.5" width="7.5" height="5" transform="translate(126.25 3.75) rotate(90)"/><rect class="icon_xmas_11_4" x="5" y="62.5" width="7.5" height="5" transform="translate(73.75 56.25) rotate(90)"/></svg>
