<svg id="Layer_1" data-name="Layer 1" xmlns="http://www.w3.org/2000/svg" viewBox="0 0 70 70"><defs><style>.icon_generic_03_1{fill:#ffdd41;}.icon_generic_03_2{fill:#fff;}.icon_generic_03_3{fill:#ed1c24;}.icon_generic_03_4{fill:#f7b600;}</style></defs><title>icon_generic_03</title><circle class="icon_generic_03_1" cx="35" cy="35" r="34.5"/><circle class="icon_generic_03_2" cx="35" cy="35" r="30.44"/><path class="icon_generic_03_3" d="M25.11,42.55a1,1,0,0,0-.95,1v2.28H21.43V43.51a1,1,0,1,0-1.9,0v6.7a1,1,0,1,0,1.9,0V47.69h2.73v2.52a1,1,0,0,0,1.91,0v-6.7A1,1,0,0,0,25.11,42.55Z"/><path class="icon_generic_03_3" d="M25.13,40.48a2.91,2.91,0,0,0,2.93-2.24c.18-1-.26-2.26-2-2.91-.83-.3-1.61-.64-1.78-.71a.34.34,0,0,1-.13-.34.56.56,0,0,1,.45-.44,2.16,2.16,0,0,1,1.74.4,1,1,0,0,0,1.33-.11.91.91,0,0,0,.22-.7,1,1,0,0,0-.33-.65A4,4,0,0,0,24,32a2.47,2.47,0,0,0-1.79,2,2.25,2.25,0,0,0,1,2.22l.15.08c.23.11,1.07.47,2,.81.56.2.86.5.81.78a1,1,0,0,1-1.06.67,2.22,2.22,0,0,1-1.63-.68.94.94,0,0,0-1.34-.06,1,1,0,0,0-.07,1.34A4.15,4.15,0,0,0,25.13,40.48Z"/><path class="icon_generic_03_3" d="M29.44,33.78h.89v5.74a1,1,0,1,0,1.91,0V33.78h.9a1,1,0,0,0,0-1.91h-3.7a1,1,0,0,0,0,1.91Z"/><path class="icon_generic_03_3" d="M47.76,32.65A1,1,0,0,0,46,32.32l-1.32,2L43.37,32.3A1,1,0,0,0,42.05,32a.94.94,0,0,0-.28,1.31l2,3v3.14a1,1,0,0,0,1,1,1,1,0,0,0,.95-.95V36.38l2-3A.9.9,0,0,0,47.76,32.65Z"/><path class="icon_generic_03_3" d="M31.2,42.55a4.31,4.31,0,1,0,4.31,4.31A4.31,4.31,0,0,0,31.2,42.55Zm2.4,4.31a2.4,2.4,0,1,1-2.4-2.4A2.39,2.39,0,0,1,33.6,46.86Z"/><path class="icon_generic_03_3" d="M43.55,43.44a1.1,1.1,0,0,0-2.14-.09l-1.1,3.83-1.14-3.87a1.07,1.07,0,0,0-1.12-.75,1.1,1.1,0,0,0-1,.9L35.86,50a1,1,0,0,0,.77,1.1,1,1,0,0,0,1.11-.77l.57-3.19,1,3.28a1.1,1.1,0,0,0,1,.75,1.12,1.12,0,0,0,1.06-.8l.92-3.24.62,3.21a1,1,0,0,0,1.11.76A1,1,0,0,0,44.8,50l-1.25-6.54Z"/><path class="icon_generic_03_3" d="M49.52,49.25H47.68V47.84h1.64a1,1,0,1,0,0-1.9H47.68V44.52h1.84a.95.95,0,1,0,0-1.9h-2.8a1,1,0,0,0-.95,1v6.64a1,1,0,0,0,.95.95h2.8a1,1,0,0,0,0-1.91Z"/><path class="icon_generic_03_3" d="M36.19,39.86l.4-1h2.73l.38,1a1,1,0,0,0,.89.62.8.8,0,0,0,.34-.07.9.9,0,0,0,.53-.5,1,1,0,0,0,0-.72L39,32.56a1.1,1.1,0,0,0-1-.69,1.11,1.11,0,0,0-1,.71l-2.51,6.6a.89.89,0,0,0,0,.73.93.93,0,0,0,.53.5.95.95,0,0,0,1.22-.55Zm1.12-2.93.65-1.7.64,1.7Z"/><path class="icon_generic_03_4" d="M15.21,34.89a3,3,0,0,1-2.25-1,3,3,0,0,1,.21-4.3L33.44,11.25a3.05,3.05,0,0,1,4.14.05l19.3,18.34a3,3,0,0,1-4.19,4.42L35.43,17.66,17.26,34.11A3.09,3.09,0,0,1,15.21,34.89Z"/></svg>
