<svg id="Layer_1" data-name="Layer 1" xmlns="http://www.w3.org/2000/svg" viewBox="0 0 70 70"><defs><style>.icon_xmas_09_1{fill:#4a4a4a;}.icon_xmas_09_2{fill:#fb6871;}.icon_xmas_09_3{fill:#bb323a;}.icon_xmas_09_4{fill:#fb555f;}.icon_xmas_09_5{fill:#db3a44;}.icon_xmas_09_6{fill:#fa424d;}.icon_xmas_09_7{fill:#ffd54b;}.icon_xmas_09_8{fill:#eabd38;}</style></defs><title>icon_xmas_02 copy</title><path class="icon_xmas_09_1" d="M47.28,67.54a1.23,1.23,0,0,1-1.23-1.22V61.4a1.23,1.23,0,0,1,2.46,0v4.92A1.23,1.23,0,0,1,47.28,67.54Z"/><path class="icon_xmas_09_1" d="M42.37,67.54a1.23,1.23,0,0,1-1.23-1.22V61.4a1.23,1.23,0,0,1,2.46,0v4.92A1.23,1.23,0,0,1,42.37,67.54Z"/><path class="icon_xmas_09_1" d="M37.46,67.54a1.23,1.23,0,0,1-1.23-1.22V61.4a1.23,1.23,0,0,1,2.45,0v4.92A1.22,1.22,0,0,1,37.46,67.54Z"/><path class="icon_xmas_09_1" d="M32.54,67.54a1.22,1.22,0,0,1-1.22-1.22V61.4a1.23,1.23,0,0,1,2.45,0v4.92A1.23,1.23,0,0,1,32.54,67.54Z"/><path class="icon_xmas_09_1" d="M27.63,67.54a1.23,1.23,0,0,1-1.23-1.22V61.4a1.23,1.23,0,0,1,2.46,0v4.92A1.23,1.23,0,0,1,27.63,67.54Z"/><path class="icon_xmas_09_1" d="M22.72,67.54a1.23,1.23,0,0,1-1.23-1.22V61.4a1.23,1.23,0,0,1,2.46,0v4.92A1.23,1.23,0,0,1,22.72,67.54Z"/><path class="icon_xmas_09_2" d="M14.12,35.61A18.42,18.42,0,0,1,32.54,17.19H24A18.43,18.43,0,0,0,24,54h8.59A18.43,18.43,0,0,1,14.12,35.61Z"/><path class="icon_xmas_09_3" d="M46.05,17.19H37.46a18.43,18.43,0,0,1,0,36.85h8.59a18.43,18.43,0,0,0,0-36.85Z"/><path class="icon_xmas_09_4" d="M25.18,35.61c0-10.17,4.39-18.42,9.82-18.42H32.54a18.43,18.43,0,0,0,0,36.85H35C29.57,54,25.18,45.79,25.18,35.61Z"/><path class="icon_xmas_09_5" d="M55.88,35.61A18.42,18.42,0,0,0,37.46,17.19H35c5.43,0,9.82,8.25,9.82,18.42S40.43,54,35,54h2.46A18.43,18.43,0,0,0,55.88,35.61Z"/><ellipse class="icon_xmas_09_6" cx="35" cy="35.61" rx="9.82" ry="18.42"/><path class="icon_xmas_09_1" d="M35,11.05a1.23,1.23,0,0,1-1.23-1.23V4.91a1.23,1.23,0,1,1,2.46,0V9.82A1.23,1.23,0,0,1,35,11.05Z"/><rect class="icon_xmas_09_7" x="21.49" y="9.82" width="27.02" height="7.37"/><rect class="icon_xmas_09_8" x="41.14" y="9.82" width="7.37" height="7.37"/><rect class="icon_xmas_09_7" x="21.49" y="54.04" width="27.02" height="7.37"/><rect class="icon_xmas_09_8" x="41.14" y="54.04" width="7.37" height="7.37"/><circle class="icon_xmas_09_7" cx="35" cy="2.46" r="2.46"/></svg>
