<svg id="Layer_1" data-name="Layer 1" xmlns="http://www.w3.org/2000/svg" viewBox="0 0 70 70"><defs><style>.icon_xmas_04_1{fill:#f8b919;fill-rule:evenodd;}.icon_xmas_04_2{fill:#fce1a0;}.icon_xmas_04_3{fill:#eb1e4b;}.icon_xmas_04_4{fill:#9b1432;}</style></defs><title>icon_xmas_04</title><path class="icon_xmas_04_1" d="M55.29,62c-4.31-8.14,1.54-18.65,0-27.42C54.75,29,51.24,24.2,46,19.78c.46-2.44.14-4.68-2.1-6.51-3.1-3.63-8.68-.58-9.79,4.33C17,16.4,16.26,41.35,7.42,50.69,6.06,51.87,4.24,51.74,4,54.08c0,6.63,14.91,11.12,25,13.75,14.43,3.54,27.78,2.54,28.83-1.49C58,64.63,56.19,63.41,55.29,62ZM43.07,18.44c-1.57-.36-4.66-.73-5.29-1.42a3.27,3.27,0,0,1,3.28-2.19A3.53,3.53,0,0,1,43.07,18.44ZM41.19,68a61.72,61.72,0,0,1-7.5-.94,5.31,5.31,0,0,0,1.56-4.76c0-2.85-7.58-6.2-10.32-1.64a4.3,4.3,0,0,0-.24,4.11C19.46,63.4,10.24,61.1,6.78,55.51c.3-1.9,11.9-1,17.63-.08,6,1.1,16.84,3.17,22.82,6.07,7.58,3.35,8.06,3.24,7.79,4.64S49.22,68.8,41.19,68Z"/><path class="icon_xmas_04_2" d="M44.86,23.34a13.77,13.77,0,0,1,6.8,7.6,18.46,18.46,0,0,1,.74,10.53c-.67,3.19-1.3,6.26-1.68,9.46a40.51,40.51,0,0,0-.1,9.73A19.7,19.7,0,0,1,48,50.85a40.6,40.6,0,0,1,1.1-10.09,20.83,20.83,0,0,0,.12-9.06A18.66,18.66,0,0,0,44.86,23.34Z"/><path class="icon_xmas_04_3" d="M51.66,24.71c1.42.56,3.06,1.14,5,1.7.7.21,2.44.62,4.31,1,2.26.47,5.57,0,6.37-.93a.64.64,0,0,0,.13-.26c.2-.3.32-.75.52-1.13,2-3.55,2.12-8.39,1.53-13.32-7.67-3-16.67-2.25-22.62-.94a5.66,5.66,0,0,0-1.18.31,2.61,2.61,0,0,0-.38-.59c-1-1.19-4.63-2.16-7.82-1.57a1.65,1.65,0,0,0-.56.26,6.2,6.2,0,0,0-1.11-.86A46.26,46.26,0,0,0,14.19,0c-2.51,4.28-4.36,8.76-3.91,12.84,0,.42,0,.88,0,1.25a.66.66,0,0,0,0,.28c.37,1.2,3.73,3.16,6,3.63,1.88.39,3.64.71,4.34.79,2,.24,3.72.37,5.25.42-14.21,5.42-13.62,9.6-27.24,12.93.54,1.37,8.13,1.81,11,3.14.68,2.09,1.74,6.54,2.8,7.12,12-5.16,7.92-11.19,21.45-20.7a.13.13,0,0,0,0-.06c0,.09,0,.18,0,.27,1.57,2.11,6.22,3.14,9.37,2.64.05,0,.09-.1.14-.14,8.22,13.73,2.37,17.68,11.19,27.07,1.2-.11,3.94-3.77,5.39-5.42,3.14-.09,10.28,2.51,11.33,1.48C60.18,39.06,62.53,35.33,51.66,24.71Z"/><path class="icon_xmas_04_4" d="M47.41,20.58c8.78.21,14.46,2.26,18.32,5-.21.17-1.48.48-4.12.34A18.92,18.92,0,0,1,57.13,25C51.92,23.44,48.39,21.83,47.41,20.58Z"/><path class="icon_xmas_04_4" d="M20.75,17.31a25.58,25.58,0,0,1-5-1.19c-2.48-.94-3.52-1.72-3.64-2,4.62-1,11.15-.35,19.29,3C30,17.86,26.16,17.94,20.75,17.31Z"/></svg>
