<svg id="Layer_1" data-name="Layer 1" xmlns="http://www.w3.org/2000/svg" viewBox="0 0 70 70"><defs><style>.icon_xmas_12_1{fill:#bb323a;}.icon_xmas_12_2{fill:#ffd54b;}.icon_xmas_12_3{fill:#fa424d;}.icon_xmas_12_4{fill:#fb6871;}.icon_xmas_12_5{fill:#d63942;}</style></defs><title>icon_xmas_05 copy</title><path class="icon_xmas_12_1" d="M53.75,52.5a1.25,1.25,0,0,1-1.17-.81L52,50.14a12.07,12.07,0,0,0-11-7.89A1.25,1.25,0,0,1,39.75,41,1.28,1.28,0,0,1,41,39.75a14.57,14.57,0,0,1,13.3,9.51l.58,1.55a1.26,1.26,0,0,1-.73,1.61A1.36,1.36,0,0,1,53.75,52.5Z"/><path class="icon_xmas_12_1" d="M40,56.25a1.25,1.25,0,0,1-1-2.06,9.66,9.66,0,0,0,.67-11.57l-.45-.68a1.25,1.25,0,0,1,2.08-1.38l.45.67A12.17,12.17,0,0,1,41,55.81,1.24,1.24,0,0,1,40,56.25Z"/><circle class="icon_xmas_12_2" cx="40.94" cy="55" r="2.5"/><path class="icon_xmas_12_2" d="M40.78,57.5h0a3,3,0,0,0-2.91,2.28l-.16.65A17.84,17.84,0,0,1,31.56,70h3.5a8.78,8.78,0,0,0,8.71-9.87h0A3,3,0,0,0,40.78,57.5Z"/><circle class="icon_xmas_12_2" cx="53.44" cy="51.25" r="2.5"/><path class="icon_xmas_12_3" d="M12,12a41,41,0,0,0,0,58h0L30.65,51.36A14.64,14.64,0,0,1,51.36,30.65L70,12h0A41,41,0,0,0,12,12Z"/><path class="icon_xmas_12_4" d="M66,16l4-4h0A41,41,0,0,0,.17,44.76,41,41,0,0,1,66,16Z"/><path class="icon_xmas_12_5" d="M12,62.5A40.88,40.88,0,0,1,.17,37.26,41,41,0,0,0,12,70h0L30.65,51.36a14.55,14.55,0,0,1-3-4.46L12,62.5Z"/><path class="icon_xmas_12_1" d="M42.26,41a1.32,1.32,0,0,1,0,.33.44.44,0,0,1,0,.1l0,.1-.1.17,0,0s0,0,0,0a.18.18,0,0,1-.08.09.61.61,0,0,1-.2.19l-.09.05h0l-.15.06s0,0,0,0h-.09l-.1,0-.24,0-.25,0a1.12,1.12,0,0,1-.64-.34L38.6,40.36,36.84,38.6,11.15,12.91c.27-.31.56-.6.86-.9s.6-.58.91-.86L31.57,29.81,41.77,40l0,0,0,0a.23.23,0,0,1,.07.07l.1.11a.05.05,0,0,1,0,0,.14.14,0,0,1,.06.08.75.75,0,0,1,.07.12l0,0a.43.43,0,0,0,0,.05,2.86,2.86,0,0,0,.07.2s0,.05,0,.08A.86.86,0,0,1,42.26,41Z"/><path class="icon_xmas_12_1" d="M42.26,41c0,.06,0,.11,0,.16v0a.09.09,0,0,1,0,0,.29.29,0,0,0,0,.1.44.44,0,0,1,0,.1l0,.1a1.54,1.54,0,0,1-.25.36l0,0-.09.07,0,0-.09.05a.41.41,0,0,1-.17.07s0,0,0,0H41.3s0,0,0,0l-.24,0h0l-.23,0s-.05,0-.06,0h-.12a.49.49,0,0,1-.18-.08.33.33,0,0,1-.1-.06.07.07,0,0,1-.05,0h0l-.15-.14a.44.44,0,0,1-.08-.1.65.65,0,0,1-.1-.15,1.37,1.37,0,0,1-.15-.38l-.3-1.1-.23-.89-.64-2.4L36,27.24,29.19,1.74c.8-.24,1.6-.46,2.41-.64l6.84,25.49L41,36.18l1.16,4.36v0h0v0h0s0,0,0,.08a.19.19,0,0,1,0,.08.22.22,0,0,0,0,.08A.86.86,0,0,1,42.26,41Z"/><path class="icon_xmas_12_1" d="M52.82,1.74,46,27.24,42.25,41.16v0h0v0a.29.29,0,0,0,0,.1.8.8,0,0,1-.07.2s0,0,0,0a.26.26,0,0,1,0,.09,1.37,1.37,0,0,1-.18.24l0,0-.08.06h0l0,0-.09.05-.12.06h0v0H41.3s0,0,0,0H41a1,1,0,0,1-.3,0h-.12a.49.49,0,0,1-.18-.08.33.33,0,0,1-.1-.06l-.06,0-.15-.14a1.37,1.37,0,0,1-.33-.63,1.77,1.77,0,0,1,0-.23,1.22,1.22,0,0,1,0-.32L40,40l.13-.51.24-.88L41,36.18v0l2.56-9.57L50.4,1.1h0C51.22,1.28,52,1.5,52.82,1.74Z"/><path class="icon_xmas_12_1" d="M42.26,41c0,.06,0,.11,0,.16a.22.22,0,0,0,0,.08s0,.06,0,.09a.44.44,0,0,1,0,.1l0,.1a1.54,1.54,0,0,1-.25.36l0,0-.09.07,0,0-.09.05a.41.41,0,0,1-.17.07s0,0,0,0h-.06a.29.29,0,0,1-.1,0h0L27.24,46,1.74,52.83c-.25-.8-.47-1.6-.64-2.42h0l25.5-6.82L36.19,41l2.41-.65,2.09-.56a1.12,1.12,0,0,1,.48,0,1.22,1.22,0,0,1,.53.2l.12.1a.23.23,0,0,1,.07.07l.1.11a.62.62,0,0,1,.08.12.75.75,0,0,1,.07.12h0s0,0,0,.07l0,.12a.19.19,0,0,1,0,.08.22.22,0,0,0,0,.08A.86.86,0,0,1,42.26,41Z"/><path class="icon_xmas_12_1" d="M42.26,41a1.32,1.32,0,0,1,0,.33.8.8,0,0,1-.07.2,1.18,1.18,0,0,1-.43.51l-.09.05h0l-.15.06a.68.68,0,0,1-.2.07H41l-.25,0-.07,0L36.2,41h0L26.6,38.44,1.1,31.61h0l.64-2.41L27.24,36l9.6,2.57,4.33,1.16.15,0a.44.44,0,0,1,.2.08,1.12,1.12,0,0,1,.28.16l0,0a.23.23,0,0,1,.07.07,1.3,1.3,0,0,1,.18.23.75.75,0,0,1,.07.12l0,0a.43.43,0,0,0,0,.05,2.86,2.86,0,0,0,.07.2s0,.05,0,.08A.86.86,0,0,1,42.26,41Z"/><path class="icon_xmas_12_2" d="M55.1,53.13h0a3,3,0,0,0-.46,3.67l.35.57a17.82,17.82,0,0,1,2.42,11.12h0L59.89,66a8.78,8.78,0,0,0-.82-13.14h0A3,3,0,0,0,55.1,53.13Z"/></svg>
