<svg id="Layer_1" data-name="Layer 1" xmlns="http://www.w3.org/2000/svg" viewBox="0 0 70 70"><defs><style>.icon_xmas_05_1{fill:#149646;}.icon_xmas_05_2{fill:#fce1a0;}.icon_xmas_05_3{fill:#eb1e4b;}.icon_xmas_05_4{fill:#faf2dc;}</style></defs><title>icon_xmas_05</title><path class="icon_xmas_05_1" d="M0,11.37s10.51,10.13,17.15,1C16.35,17.77,21,23.07,26,22.24c-1.15,3.14,2.92,11.06,5.66,10.05-2.05,3.48-.14,10.94-.08,11.35.1.74.56,1.57-.37,1.75a13.12,13.12,0,0,0-1.7.49c-4.68-1.49-9.5-1.7-10.57.86-1.5-6.36-6.27-9.84-10.27-6.28,1.84-5-1.89-11.55-6.73-11.85C5.5,23.35,4.3,17.69,0,11.37Z"/><path class="icon_xmas_05_2" d="M14.47,27.42C16.24,29.24,18,31,19.74,32.88s3.47,3.68,5.18,5.57,3.69,3.16,5.24,5.11l.05-.06a38,38,0,0,0-4-6.44,66.57,66.57,0,0,0-5-5.91c-1.78-1.84-3.61-3.6-5.52-5.24a56.05,56.05,0,0,0-6-4.52C11.45,23.27,12.71,25.6,14.47,27.42Z"/><path class="icon_xmas_05_1" d="M70,21.05S56.74,27.32,53.34,16.5c-1,5.4-7.11,9-11.57,6.57.09,3.35-6.32,9.6-8.61,7.76.84,4-3.37,10.46-3.56,10.83-.34.68-1,1.32-.21,1.79a12.69,12.69,0,0,1,1.46,1c4.94.08,9.58,1.44,9.79,4.21,3.47-5.58,9.12-7.36,11.79-2.69-.15-5.33,5.51-10.39,10.22-9.13C60.92,30.7,63.87,25.69,70,21.05Z"/><path class="icon_xmas_05_2" d="M51.06,31.68C48.81,32.86,46.54,34,44.3,35.2s-4.49,2.39-6.72,3.65S33,40.68,31,42c0,0,0-.05,0-.07a39.47,39.47,0,0,1,5.87-4.85,66.58,66.58,0,0,1,6.69-4c2.27-1.18,4.59-2.27,6.93-3.22a53.43,53.43,0,0,1,7.14-2.39C55.29,28.72,53.33,30.53,51.06,31.68Z"/><path class="icon_xmas_05_3" d="M23.12,33.42a6.55,6.55,0,0,0-1.68,9.16,6.66,6.66,0,0,0,9.2,1.89,6.54,6.54,0,0,0,1.68-9.16A6.67,6.67,0,0,0,23.12,33.42Z"/><path class="icon_xmas_05_4" d="M27.46,33.73C26.41,33.5,25,34,24.7,34.88s1,1,2,1.08c1.36,0,2.31.62,2.62-.3S28.44,33.94,27.46,33.73Z"/><path class="icon_xmas_05_3" d="M36,37.46a6.26,6.26,0,0,0-4.75,7.71,6.82,6.82,0,0,0,8,5,6.26,6.26,0,0,0,4.74-7.72A6.77,6.77,0,0,0,36,37.46Z"/><path class="icon_xmas_05_4" d="M38.43,38.39c-1-.16-2.46.31-2.22,1.23s1,1,2,1.08,2.41.23,2.18-.71A2.14,2.14,0,0,0,38.43,38.39Z"/><path class="icon_xmas_05_3" d="M28.71,43.25a7.37,7.37,0,0,0-8,7.14,8.14,8.14,0,0,0,7.59,8.22,7.35,7.35,0,0,0,8-7.14A8.15,8.15,0,0,0,28.71,43.25Z"/><path class="icon_xmas_05_4" d="M29.36,44.47c-1.28-.09-2.7.31-2.72,1.5s1.12,1.45,2.4,1.54,2.73.41,2.77-.8A2.47,2.47,0,0,0,29.36,44.47Z"/></svg>
