<svg id="Layer_1" data-name="Layer 1" xmlns="http://www.w3.org/2000/svg" viewBox="0 0 70 70"><defs><style>.icon_generic_01_1{fill:#ffdd41;}.icon_generic_01_2{fill:#fff;}.icon_generic_01_3{fill:#f7b600;}.icon_generic_01_4{fill:#ed1c24;}</style></defs><title>icon_generic_01</title><circle class="icon_generic_01_1" cx="35" cy="35" r="34.5"/><circle class="icon_generic_01_2" cx="35" cy="35" r="30.44"/><path class="icon_generic_01_3" d="M38.32,14.87a4.65,4.65,0,0,0-6.25-.3,3.37,3.37,0,0,0-.36.3l-18.5,18.5a2.33,2.33,0,0,0,0,3.31,2.69,2.69,0,0,0,.37.3,2.34,2.34,0,0,0,1.28.38,2,2,0,0,0,1.47-.68l1.33-1.53V45.84c0,4.72,4.55,8.62,9.48,8.62H43.63A8.34,8.34,0,0,0,52,45.84V35.55l1.33,1.13a2.52,2.52,0,0,0,1.75.68,2.44,2.44,0,0,0,1.7-.68,2.35,2.35,0,0,0,0-3.31Zm9,31a3.67,3.67,0,0,1-3.69,3.94H27.14c-2.35,0-4.79-1.8-4.79-3.94V30.47L34.63,18.18,47.32,30.87Zm0,0"/><path class="icon_generic_01_4" d="M25.93,35.92a4.71,4.71,0,0,0,0,.53,5.38,5.38,0,0,0,.17.89.83.83,0,0,0,0,.15l0,.11C27.7,42.4,35,46.15,35,46.15s7.32-3.75,8.81-8.55a.49.49,0,0,0,0-.11.83.83,0,0,0,0-.15,5.38,5.38,0,0,0,.17-.89,4.71,4.71,0,0,0,0-.53A5.38,5.38,0,0,0,35,32a5.38,5.38,0,0,0-9.09,3.9Zm0,0"/></svg>
