<svg id="Layer_1" data-name="Layer 1" xmlns="http://www.w3.org/2000/svg" viewBox="0 0 70 70"><defs><style>.icon_xmas_02_1{fill:#29abe2;}</style></defs><title>icon_xmas_02</title><path class="icon_xmas_02_1" d="M64.65,50l-3.47-2L62.92,47a1.8,1.8,0,0,0-1-3.32,1.84,1.84,0,0,0-.95.27L57.66,46,54.87,44.4l8.8-5.5a1.8,1.8,0,0,0-1.91-3l-10,6.24L50,38.6a2.79,2.79,0,0,0-1.46-1.12l-7.41-2.13v-.88l7.41-2.14A2.7,2.7,0,0,0,50,31.21l2-3.95.17-.1,9.59,6a1.9,1.9,0,0,0,1,.27h0a1.78,1.78,0,0,0,1.53-.84,1.81,1.81,0,0,0-.57-2.48l-8-5,2.79-1.62L61,25.1a1.75,1.75,0,0,0,.95.27,1.8,1.8,0,0,0,1-3.32L62,21.48,64.65,20a1.8,1.8,0,0,0,.66-2.45,1.82,1.82,0,0,0-1.56-.9,1.85,1.85,0,0,0-.89.24l-3,1.76-.07-2A1.78,1.78,0,0,0,58,14.82h-.06a1.78,1.78,0,0,0-1.25.57,1.75,1.75,0,0,0-.48,1.29l.13,3.95L53.5,22.25l-.36-10.38a1.77,1.77,0,0,0-1.79-1.72h-.06A1.8,1.8,0,0,0,49.55,12L50,24l-4.26-.23a2.75,2.75,0,0,0-1.71.7l-5.61,5.4-.72-.41,1.87-7.57a2.82,2.82,0,0,0-.24-1.83l-2.51-3.82v0l10.42-5.54a1.8,1.8,0,0,0-1.69-3.17l-8.73,4.65V8.9l3.07-1.63A1.8,1.8,0,0,0,39,3.89a1.83,1.83,0,0,0-.84.21l-1.38.73v-3a1.79,1.79,0,1,0-3.58,0v3L31.82,4.1A1.74,1.74,0,0,0,31,3.89a1.78,1.78,0,0,0-1.58.95,1.81,1.81,0,0,0,.73,2.43L33.21,8.9v3.23L24.48,7.48a1.8,1.8,0,0,0-2.43.74,1.81,1.81,0,0,0,.74,2.43l10.42,5.54v0L30.7,20.06a2.76,2.76,0,0,0-.24,1.83l1.87,7.57-.72.41L26,24.47a2.77,2.77,0,0,0-1.71-.71L20,24l.42-12a1.8,1.8,0,0,0-1.74-1.85h-.06a1.78,1.78,0,0,0-1.79,1.73L16.5,22.24l-2.79-1.61.14-3.95a1.81,1.81,0,0,0-1.74-1.86h-.06a1.79,1.79,0,0,0-1.79,1.74l-.07,2-3-1.76a1.85,1.85,0,0,0-.89-.24,1.82,1.82,0,0,0-1.56.9A1.8,1.8,0,0,0,5.35,20L8,21.48l-.92.57A1.8,1.8,0,0,0,8,25.37a1.78,1.78,0,0,0,1-.27l2.54-1.59,2.79,1.62-8,5a1.82,1.82,0,0,0-.57,2.48,1.78,1.78,0,0,0,1.52.84h0a1.84,1.84,0,0,0,1-.27l9.6-6,.17.1,2,3.95a2.7,2.7,0,0,0,1.46,1.12l7.41,2.14v.88l-7.41,2.13A2.79,2.79,0,0,0,20,38.6l-1.77,3.5-10-6.24a1.75,1.75,0,0,0-1-.27,1.78,1.78,0,0,0-1.52.84,1.8,1.8,0,0,0,.57,2.47l8.8,5.5L12.34,46,9,43.91a1.87,1.87,0,0,0-1-.27A1.8,1.8,0,0,0,7.08,47L8.82,48,5.35,50a1.79,1.79,0,0,0,.9,3.35,1.66,1.66,0,0,0,.89-.24l3.08-1.77,0,1.08a1.78,1.78,0,0,0,1.79,1.73h.06a1.81,1.81,0,0,0,1.74-1.86l-.11-3,2.79-1.62.33,9.4a1.78,1.78,0,0,0,1.79,1.73h.06A1.8,1.8,0,0,0,20.45,57l-.39-11.2,4.23.24A2.77,2.77,0,0,0,26,45.34l5.49-5.28.8.46-1.83,7.39a2.78,2.78,0,0,0,.24,1.84L32.84,53,22.79,58.36a1.8,1.8,0,0,0,.85,3.39h0a1.78,1.78,0,0,0,.84-.22l8.73-4.65v3.23l-3.08,1.64A1.79,1.79,0,0,0,31,65.12h0a1.87,1.87,0,0,0,.84-.21l1.39-.73v4a1.79,1.79,0,1,0,3.58,0v-4l1.38.73a2,2,0,0,0,.84.21,1.81,1.81,0,0,0,1.59-.94,1.79,1.79,0,0,0-.74-2.43l-3.07-1.64V56.88l8.73,4.65a1.81,1.81,0,0,0,.84.22,1.79,1.79,0,0,0,1.59-1,1.77,1.77,0,0,0,.13-1.37,1.74,1.74,0,0,0-.87-1.06L37.16,53l2.14-3.27a2.84,2.84,0,0,0,.24-1.84L37.7,40.52l.8-.46L44,45.34a2.77,2.77,0,0,0,1.71.71l4.23-.24L49.55,57a1.8,1.8,0,0,0,1.74,1.85h.06a1.78,1.78,0,0,0,1.79-1.73l.32-9.4,2.8,1.62-.1,3a1.76,1.76,0,0,0,.48,1.29,1.78,1.78,0,0,0,1.25.57H58a1.78,1.78,0,0,0,1.79-1.73l0-1.08,3.08,1.77a1.66,1.66,0,0,0,.89.24,1.79,1.79,0,0,0,.9-3.35ZM7.28,32.52Zm4.77,20.77ZM18.65,58Z"/></svg>
