<svg id="Layer_1" data-name="Layer 1" xmlns="http://www.w3.org/2000/svg" viewBox="0 0 70 70"><defs><style>.icon_xmas_13_1{fill:#d63942;}.icon_xmas_13_2{fill:#bb323a;}.icon_xmas_13_3{fill:#ffdd6f;}.icon_xmas_13_4{fill:#eabd38;}.icon_xmas_13_5{fill:#fa424d;}.icon_xmas_13_6{fill:#fb6871;}.icon_xmas_13_7{fill:#ffd54b;}</style></defs><title>icon_xmas_06 copy</title><path class="icon_xmas_13_1" d="M19.25,5h24a8,8,0,0,1,8,8v7a0,0,0,0,1,0,0h-40a0,0,0,0,1,0,0V13A8,8,0,0,1,19.25,5Z"/><path class="icon_xmas_13_2" d="M43.75,5h0a7.5,7.5,0,0,1,7.5,7.5V20a0,0,0,0,1,0,0h-7.5a0,0,0,0,1,0,0V5A0,0,0,0,1,43.75,5Z"/><path class="icon_xmas_13_3" d="M34.7,14.7a7.5,7.5,0,1,0,10.6,0A7.49,7.49,0,0,0,34.7,14.7Z"/><rect class="icon_xmas_13_4" x="37.5" y="17.5" width="5" height="5" transform="translate(-2.43 34.14) rotate(-45)"/><rect class="icon_xmas_13_5" x="11.25" y="20" width="40" height="50"/><rect class="icon_xmas_13_6" x="11.25" y="20" width="7.5" height="50"/><circle class="icon_xmas_13_7" cx="31.25" cy="45" r="10"/><circle class="icon_xmas_13_4" cx="31.25" cy="45" r="6.25"/><path class="icon_xmas_13_3" d="M17.2,2.2a7.5,7.5,0,1,0,10.6,0A7.49,7.49,0,0,0,17.2,2.2Z"/><rect class="icon_xmas_13_4" x="20" y="5" width="5" height="5" transform="translate(1.29 18.11) rotate(-45)"/><path class="icon_xmas_13_3" d="M46,28.45a7.5,7.5,0,1,0,10.6,0A7.49,7.49,0,0,0,46,28.45Z"/><rect class="icon_xmas_13_4" x="48.75" y="31.25" width="5" height="5" transform="translate(-8.85 46.12) rotate(-45)"/></svg>
