<svg id="Layer_1" data-name="Layer 1" xmlns="http://www.w3.org/2000/svg" viewBox="0 0 70 70"><defs><style>.icon_xmas_01_1{fill:#eb1e4b;}.icon_xmas_01_2{fill:#9b1432;}.icon_xmas_01_3{fill:#f8b919;}</style></defs><title>icon_xmas_01</title><path class="icon_xmas_01_1" d="M5,31.55,7.23,67.46h0v.08c0,1.8.59,2.32,2.14,2.43l.22,0H60.83c1.8,0,2.08-.64,2.31-2.64v0l2.15-35.72Z"/><polygon class="icon_xmas_01_2" points="4.96 31.64 5.32 37.35 64.94 37.35 65.29 31.64 4.96 31.64"/><path class="icon_xmas_01_1" d="M65.92,16,4,16.13c-1.82,0-2.43,1.15-2.21,4.06L2.64,31.8h64.8l.78-12C68.29,17.82,68.36,16.34,65.92,16Z"/><path class="icon_xmas_01_3" d="M58.24,5.78A31,31,0,0,0,52.87.28a1.77,1.77,0,0,0-1.57,0c-7.49,2.41-13.17,8.45-16.1,14h-.3C32,8.72,26.25,2.68,18.76.27c-.51-.16-.83-.53-1.58,0a30.32,30.32,0,0,0-5.36,5.5c-.33.6-1,1.51-.8,2.17s1.34,1,2,1.31l.76.33C17.64,11.27,25.27,13.93,30.1,16V70H40.18V16c4.82-2.06,12.25-4.73,16.13-6.4,0,0,2.71-.7,2.93-1.36S58.57,6.38,58.24,5.78Z"/></svg>
