<svg id="Layer_1" data-name="Layer 1" xmlns="http://www.w3.org/2000/svg" viewBox="0 0 70 70"><defs><style>.icon_xmas_08_1{fill:#fa424d;}.icon_xmas_08_2{fill:#db3a44;}.icon_xmas_08_3{fill:#bb323a;}.icon_xmas_08_4{fill:#9c2a31;}.icon_xmas_08_5{fill:#fff;}.icon_xmas_08_6{fill:#e2e2e2;}.icon_xmas_08_7{fill:#ffd54b;}.icon_xmas_08_8{fill:#373737;}</style></defs><title>icon_xmas_01 copy</title><path class="icon_xmas_08_1" d="M15,0H.1c0,4.22-1.17,10.9,4.36,16.46s18,6,18,6V7.5A7.48,7.48,0,0,0,15,0Z"/><path class="icon_xmas_08_1" d="M55,0H69.9c0,4.22,1.17,10.9-4.36,16.46s-18,6-18,6V7.5A7.48,7.48,0,0,1,55,0Z"/><path class="icon_xmas_08_2" d="M17.52,7.5H12.69a5,5,0,0,0-4.88,6.09,9.7,9.7,0,0,0,2.66,4.88c3.69,3.71,12,4,12,4v-10A5,5,0,0,0,17.52,7.5Z"/><path class="icon_xmas_08_2" d="M52.48,7.5h4.83a5,5,0,0,1,4.88,6.09,9.7,9.7,0,0,1-2.66,4.88c-3.69,3.71-12,4-12,4v-10A5,5,0,0,1,52.48,7.5Z"/><path class="icon_xmas_08_1" d="M35,2.5a30,30,0,0,0-30,30H65A30,30,0,0,0,35,2.5Z"/><path class="icon_xmas_08_2" d="M35,7.5h0a25,25,0,0,0-25,25v6.25H60V32.5A25,25,0,0,0,35,7.5Z"/><path class="icon_xmas_08_1" d="M5,37.5H65a0,0,0,0,1,0,0V40A30,30,0,0,1,35,70h0A30,30,0,0,1,5,40V37.5a0,0,0,0,1,0,0Z"/><path class="icon_xmas_08_3" d="M22.19,27.19h.63a25,25,0,0,1,25,25v0a25,25,0,0,1-25,25h-.63a0,0,0,0,1,0,0v-50A0,0,0,0,1,22.19,27.19Z" transform="translate(87.19 17.19) rotate(90)"/><path class="icon_xmas_08_4" d="M31.8,33.28h0a9.61,9.61,0,0,1,9.61,9.61v5.78a9.61,9.61,0,0,1-9.61,9.61h0a3.2,3.2,0,0,1-3.2-3.2V36.48A3.2,3.2,0,0,1,31.8,33.28Z" transform="translate(80.78 10.78) rotate(90)"/><path class="icon_xmas_08_5" d="M30,55l-1.24,3.31A1.25,1.25,0,0,0,29.93,60h2.5a1.49,1.49,0,0,0,1.48-1.31L34.37,55Z"/><path class="icon_xmas_08_5" d="M27.5,55a7.22,7.22,0,0,1-2.8-.57s-1.46,1.42-2.54,2.51a1.25,1.25,0,0,0,.43,2,12.17,12.17,0,0,0,1.24.46,2.51,2.51,0,0,0,2.93-1.16L28.62,55Z"/><path class="icon_xmas_08_5" d="M20.46,50H15.25a12.47,12.47,0,0,0,3.11,6,1.27,1.27,0,0,0,1.61.23L23.5,53.9A7.19,7.19,0,0,1,20.46,50Z"/><path class="icon_xmas_08_5" d="M40,55l1.24,3.31A1.25,1.25,0,0,1,40.07,60h-2.5a1.49,1.49,0,0,1-1.48-1.31L35.62,55Z"/><path class="icon_xmas_08_5" d="M42.5,55a7.22,7.22,0,0,0,2.8-.57s1.46,1.42,2.54,2.51a1.25,1.25,0,0,1-.43,2,12.17,12.17,0,0,1-1.24.46,2.51,2.51,0,0,1-2.93-1.16L41.37,55Z"/><path class="icon_xmas_08_5" d="M49.54,50h5.21a12.47,12.47,0,0,1-3.11,6,1.27,1.27,0,0,1-1.61.23L46.5,53.9A7.19,7.19,0,0,0,49.54,50Z"/><path class="icon_xmas_08_5" d="M66.36,35a3.71,3.71,0,0,0-2.38.81,17.28,17.28,0,0,1-10.28,4,17.85,17.85,0,0,1-7.82-1.38A28.11,28.11,0,0,0,35,36.16h0a28.11,28.11,0,0,0-10.88,2.29,17.85,17.85,0,0,1-7.82,1.38A17.28,17.28,0,0,1,6,35.81,3.71,3.71,0,0,0,3.64,35,3.64,3.64,0,0,0,.17,39.74a17.76,17.76,0,0,0,27.89,9.07,11.39,11.39,0,0,1,13.87,0,17.77,17.77,0,0,0,27.9-9.07A3.64,3.64,0,0,0,66.36,35Z"/><path class="icon_xmas_08_6" d="M53.7,48.73a17.9,17.9,0,0,1-11.77-3.67,11.39,11.39,0,0,0-13.87,0A17.74,17.74,0,0,1,.49,36.9a3.52,3.52,0,0,0-.32,2.84,17.76,17.76,0,0,0,27.89,9.07,11.39,11.39,0,0,1,13.87,0,17.77,17.77,0,0,0,27.9-9.07,3.52,3.52,0,0,0-.32-2.84A17.83,17.83,0,0,1,53.7,48.73Z"/><path class="icon_xmas_08_7" d="M66.25,28.75A13.75,13.75,0,1,1,52.5,15h0A13.76,13.76,0,0,1,66.25,28.75Z"/><circle class="icon_xmas_08_5" cx="50" cy="28.75" r="8.75"/><circle class="icon_xmas_08_8" cx="50" cy="30" r="3.75"/><path class="icon_xmas_08_7" d="M3.75,28.75A13.75,13.75,0,1,0,17.5,15h0A13.76,13.76,0,0,0,3.75,28.75Z"/><circle class="icon_xmas_08_5" cx="20" cy="28.75" r="8.75"/><circle class="icon_xmas_08_8" cx="20" cy="30" r="3.75"/><path class="icon_xmas_08_5" d="M19.32,13.62c8.07,1.4,12.53,8.18,10,15.13L15.68,26.39C7.61,25,3.15,18.2,5.73,11.25h0Z"/><path class="icon_xmas_08_5" d="M50.68,13.62c-8.07,1.4-12.53,8.18-10,15.13l13.59-2.36C62.39,25,66.85,18.2,64.27,11.25h0Z"/><path class="icon_xmas_08_6" d="M29.27,25,15.68,22.64c-5.75-1-9.65-4.73-10.49-9.31C4.11,19.51,8.42,25.12,15.68,26.39l13.59,2.36A11,11,0,0,0,29.8,23,11.92,11.92,0,0,1,29.27,25Z"/><path class="icon_xmas_08_6" d="M54.32,22.64,40.73,25a11.92,11.92,0,0,1-.53-2,11,11,0,0,0,.53,5.78l13.59-2.36c7.26-1.27,11.57-6.88,10.49-13.06C64,17.91,60.07,21.63,54.32,22.64Z"/><path class="icon_xmas_08_7" d="M35,35a7.5,7.5,0,1,1,7.5-7.5A7.5,7.5,0,0,1,35,35Zm0-10a2.5,2.5,0,1,0,2.5,2.5A2.5,2.5,0,0,0,35,25Z"/><circle class="icon_xmas_08_1" cx="31.25" cy="36.25" r="3.75"/><circle class="icon_xmas_08_1" cx="38.75" cy="36.25" r="3.75"/></svg>
