<?xml version="1.0" encoding="utf-8"?>
<!-- Generator: Adobe Illustrator 23.0.1, SVG Export Plug-In . SVG Version: 6.00 Build 0)  -->
<svg version="1.1" fill="#d4d4d8" id="Layer_1" xmlns="http://www.w3.org/2000/svg" xmlns:xlink="http://www.w3.org/1999/xlink" x="0px" y="0px"
	 viewBox="0 0 110 110" style="enable-background:new 10 10 110 110;" xml:space="preserve">
<path d="M85,12H72V8c0-1.1-0.9-2-2-2s-2,0.9-2,2v4H32V8c0-1.1-0.9-2-2-2s-2,0.9-2,2v4H15c-4.4,0-8,3.6-8,8v66c0,4.4,3.6,8,8,8h70
	c4.4,0,8-3.6,8-8V20C93,15.6,89.4,12,85,12z M15,16h13v4c0,1.1,0.9,2,2,2s2-0.9,2-2v-4h36v4c0,1.1,0.9,2,2,2s2-0.9,2-2v-4h13
	c2.2,0,4,1.8,4,4v8H11v-8C11,17.8,12.8,16,15,16z M85,90H15c-2.2,0-4-1.8-4-4V32h78v54C89,88.2,87.2,90,85,90z M33,66H19
	c-1.1,0-2,0.9-2,2v14c0,1.1,0.9,2,2,2h14c1.1,0,2-0.9,2-2V68C35,66.9,34.1,66,33,66z M31,80H21V70h10V80z M57,66H43
	c-1.1,0-2,0.9-2,2v14c0,1.1,0.9,2,2,2h14c1.1,0,2-0.9,2-2V68C59,66.9,58.1,66,57,66z M55,80H45V70h10V80z M81,66H67
	c-1.1,0-2,0.9-2,2v14c0,1.1,0.9,2,2,2h14c1.1,0,2-0.9,2-2V68C83,66.9,82.1,66,81,66z M79,80H69V70h10V80z M33,42H19
	c-1.1,0-2,0.9-2,2v14c0,1.1,0.9,2,2,2h14c1.1,0,2-0.9,2-2V44C35,42.9,34.1,42,33,42z M31,56H21V46h10V56z M57,42H43
	c-1.1,0-2,0.9-2,2v14c0,1.1,0.9,2,2,2h14c1.1,0,2-0.9,2-2V44C59,42.9,58.1,42,57,42z M55,56H45V46h10V56z M81,42H67
	c-1.1,0-2,0.9-2,2v14c0,1.1,0.9,2,2,2h14c1.1,0,2-0.9,2-2V44C83,42.9,82.1,42,81,42z M79,56H69V46h10V56z"/>
</svg>
