<svg id="Layer_1" data-name="Layer 1" xmlns="http://www.w3.org/2000/svg" viewBox="0 0 70 70"><defs><style>.cls-1{fill:#f66;}.cls-2{fill:#fffb80;}.cls-3{fill:#a3e66f;}.cls-4{fill:#66c2ff;}.cls-5{fill:#9180ff;}.cls-6{fill:#fff;}.cls-7{fill:#75d6ff;}</style></defs><title>icon_occasion_07</title><path class="cls-1" d="M67.5,7.7V2.82A52.8,52.8,0,0,0,14.6,55.51h4.9A47.9,47.9,0,0,1,67.5,7.7Z"/><path class="cls-2" d="M19.5,55.51h4.9A43,43,0,0,1,67.5,12.58V7.7A47.9,47.9,0,0,0,19.5,55.51Z"/><path class="cls-3" d="M67.5,17.45V12.58A43,43,0,0,0,24.4,55.51h4.9A38.13,38.13,0,0,1,67.5,17.45Z"/><path class="cls-4" d="M29.3,55.51h4.89A33.25,33.25,0,0,1,67.5,22.33V17.45A38.13,38.13,0,0,0,29.3,55.51Z"/><path class="cls-5" d="M67.5,27.21V22.33A33.25,33.25,0,0,0,34.19,55.51h4.9A28.36,28.36,0,0,1,67.5,27.21Z"/><path class="cls-6" d="M11.31,66.36A7.2,7.2,0,0,1,9,66,7.28,7.28,0,0,1,6.49,53.55a6.78,6.78,0,0,1,1.34-.92h0l.49-1.69a10,10,0,0,1,9.55-7.16,9.28,9.28,0,0,1,1.42.11,11.39,11.39,0,0,1,1.19.24l.2-.34a10.09,10.09,0,0,1,18.91,4.86c0,.27,0,.53,0,.79v.2a8.88,8.88,0,0,1,1.25.59,8.66,8.66,0,0,1-4.34,16.14Z"/><path class="cls-7" d="M29.48,37.14a11.59,11.59,0,0,0-9.75,5.33l-.25,0a12.16,12.16,0,0,0-1.63-.12,11.46,11.46,0,0,0-11,8.22l-.33,1.15a8.63,8.63,0,0,0-1,.77,8.74,8.74,0,0,0,3,14.92,8.63,8.63,0,0,0,2.76.45H36.43a10,10,0,0,0,2.29-.27A10.08,10.08,0,0,0,41.5,49L41,48.71v-.08A11.54,11.54,0,0,0,29.48,37.14Zm0,2.92a8.6,8.6,0,0,1,8.62,8.57c0,.23,0,.46,0,.68a9.05,9.05,0,0,0-5.23,2.17,7.26,7.26,0,0,1,3.59-.95,7.35,7.35,0,0,1,1.42.13,7.44,7.44,0,0,1,2.18.82,7.17,7.17,0,0,1-2,13.23,7.34,7.34,0,0,1-1.63.19H11.31a5.91,5.91,0,0,1-1.84-.3,5.82,5.82,0,0,1-2-9.95,5.92,5.92,0,0,1,3.85-1.44A5.84,5.84,0,0,1,16,55.49H16a8.06,8.06,0,0,0-6.31-4.16,8.46,8.46,0,0,1,8.14-6.1,8.12,8.12,0,0,1,1.21.1,8.29,8.29,0,0,1,2.23.63,8.46,8.46,0,0,1,4.94,6.49V52.4a9.48,9.48,0,0,0-4.29-7.92,8.64,8.64,0,0,1,7.54-4.42"/></svg>