<svg id="Layer_1" data-name="Layer 1" xmlns="http://www.w3.org/2000/svg" viewBox="0 0 70 70"><defs><style>.cls-1{fill:#ffd54b;}.cls-2{fill:#eabd38;}.cls-3{fill:#ffe693;}.cls-4{fill:#fa424d;}.cls-5{fill:#db3a44;}.cls-6{fill:#fb6871;}.cls-7{fill:#ffe078;}</style></defs><title>icon_xmas_03 copy</title><path class="cls-1" d="M15.35,55.26v9.83C15.35,67.8,24.15,70,35,70s19.65-2.2,19.65-4.91V55.26Z"/><path class="cls-2" d="M47.28,55.26V68.92c3.32-.67,5.74-1.6,6.78-2.66l.59-1.17V55.26Z"/><path class="cls-3" d="M22.72,68.92V55.26H15.35v9.83l.59,1.17C17,67.32,19.4,68.25,22.72,68.92Z"/><path class="cls-4" d="M15.35,25.79V55.26c0,2.72,8.8,4.92,19.65,4.92S54.65,58,54.65,55.26V25.79Z"/><path class="cls-5" d="M47.28,25.79v33.3c4.49-.9,7.37-2.28,7.37-3.83V25.79Z"/><path class="cls-6" d="M22.72,59.09V25.79H15.35V55.26C15.35,56.81,18.23,58.19,22.72,59.09Z"/><rect class="cls-1" x="28.05" y="38.49" width="13.89" height="13.89" transform="translate(91.88 52.82) rotate(135)"/><path class="cls-1" d="M15.35,16v9.83c0,2.71,8.8,4.91,19.65,4.91s19.65-2.2,19.65-4.91V16Z"/><path class="cls-2" d="M47.28,16V29.62c4.49-.9,7.37-2.28,7.37-3.83V16Z"/><path class="cls-3" d="M22.72,29.62V16H15.35v9.83C15.35,27.34,18.23,28.72,22.72,29.62Z"/><path class="cls-2" d="M35,3.68a1.23,1.23,0,0,1-1.23-1.22V1.23a1.23,1.23,0,1,1,2.46,0V2.46A1.23,1.23,0,0,1,35,3.68Z"/><path class="cls-2" d="M29.68,6.75a1.21,1.21,0,0,1-.61-.16L28,6a1.25,1.25,0,0,1-.45-1.68,1.23,1.23,0,0,1,1.68-.45l1.07.61a1.23,1.23,0,0,1-.62,2.29Z"/><path class="cls-2" d="M40.32,6.75a1.23,1.23,0,0,1-.62-2.29l1.07-.61a1.23,1.23,0,0,1,1.68.45A1.25,1.25,0,0,1,42,6l-1.07.61A1.21,1.21,0,0,1,40.32,6.75Z"/><ellipse class="cls-7" cx="35" cy="15.96" rx="19.65" ry="4.91"/><path class="cls-5" d="M35,16a1.22,1.22,0,0,1-1.23-1.22V7.37a1.23,1.23,0,1,1,2.46,0v7.37A1.22,1.22,0,0,1,35,16Z"/></svg>