<svg id="Layer_1" data-name="Layer 1" xmlns="http://www.w3.org/2000/svg" xmlns:xlink="http://www.w3.org/1999/xlink" viewBox="0 0 70 70"><defs><style>.cls-1{fill:url(#linear-gradient);}.cls-2{fill:url(#linear-gradient-2);}</style><linearGradient id="linear-gradient" x1="-1487.93" y1="-377.03" x2="-1487.54" y2="-377.03" gradientTransform="matrix(72.44, 0.33, 0.33, -72.44, 107911.81, -26793.13)" gradientUnits="userSpaceOnUse"><stop offset="0" stop-color="#fbca11"/><stop offset="0.01" stop-color="#fbca11"/><stop offset="0.25" stop-color="#ffffbf"/><stop offset="0.3" stop-color="#f9f3ae"/><stop offset="0.39" stop-color="#e8d381"/><stop offset="0.52" stop-color="#cea039"/><stop offset="0.6" stop-color="#be820e"/><stop offset="0.86" stop-color="#ead76c"/><stop offset="0.87" stop-color="#ebda6f"/><stop offset="1" stop-color="#ffffbf"/></linearGradient><linearGradient id="linear-gradient-2" x1="-1525.28" y1="-380.7" x2="-1524.89" y2="-380.7" gradientTransform="matrix(-70.58, 1.83, 1.83, 70.58, -106892.17, 29702.66)" xlink:href="#linear-gradient"/></defs><title>icon_Happy New Year_07</title><path class="cls-1" d="M18.9,3.3c2.78.15,4.74.47,6.83,2.56a13.2,13.2,0,0,1,2.78,4.65c1.21,3.17,1.3,6-.38,9.06a20.82,20.82,0,0,1-9.38,8.3A14.19,14.19,0,0,1,13.66,29c-1.76.11-4.35.27-5.58-1.15-1.44-1.66-.61-4,.63-5.49a6.87,6.87,0,0,1,9-1c4.43,2.86,7.7,7.48,8.05,12.81a11.59,11.59,0,0,1-6.14,11.11c-3.57,2-7.52,3.17-9.45,7.1C6.81,59.14,14.17,65,19.8,66.66,27.64,69.05,37,59.23,31.21,52.1c-.4-.5-3.18-.63-2.52-.75,6.1,7.51-4.91,18.77-12.62,13.34a10.08,10.08,0,0,1-4.45-9.34c.55-4.16,4.46-6.37,7.87-8a21.1,21.1,0,0,0,5-3A11.31,11.31,0,0,0,27.62,38c.93-4.68-1.14-9.33-4.26-12.7a20.39,20.39,0,0,0-10.22-6.05C9.32,18.46,4.19,21.68,5.47,26,6,27.77,8.15,28.6,9.71,29.23a14.72,14.72,0,0,0,6.72.71c5.55-.45,10.62-4.45,13.56-9,2.61-4.06,1.51-8.74-1-12.61C26.45,4.3,21.36.75,16.73.5,17.09.52,18.9,3.3,18.9,3.3Z"/><path class="cls-2" d="M37.13,21.71c1.23,5.83,6.71,10,12.31,11.39a23.49,23.49,0,0,0,5.21.69A17.22,17.22,0,0,0,60,33.15a6.6,6.6,0,0,0,2.15-1,12,12,0,0,0,1.42-1.34,4.15,4.15,0,0,0,.7-1,3,3,0,0,0-.38-2.89c-1.44-2.22-4.41-2.78-6.87-2.59a12.77,12.77,0,0,0-4.07,1A13.38,13.38,0,0,0,49,28.07a15.82,15.82,0,0,0-4.27,6.66,16.32,16.32,0,0,0-.63,7A13.92,13.92,0,0,0,51.8,52.77a9.47,9.47,0,0,0,3.74.86,7.93,7.93,0,0,0,4-.83,10.4,10.4,0,0,0,2.66-2.33,2.41,2.41,0,0,0,.74-1.86c-.18-1.29-1.87-1.94-3-2.18a8.75,8.75,0,0,0-5.09.66A18.66,18.66,0,0,0,50.3,49.7,22.27,22.27,0,0,0,46,54.16a12.07,12.07,0,0,0-1.84,3.76A8.21,8.21,0,0,0,45.4,65.3c2,2.44,5.26,4.34,8.28,4.19a30.08,30.08,0,0,0,10-2c.43-.19,1.17-4.43,1-4.37-2.9,1.3-6.25,3.57-9.46,3.7-3,.13-6.28-.84-8.21-3.29A8.23,8.23,0,0,1,46,56a11.68,11.68,0,0,1,2-3.72,8.83,8.83,0,0,1,.63-.74c.22-.24-.16.16.08-.08s-.19.18,0-.05-.19.17.06-.06.1-.09,0,0l.15-.14.12-.1.23-.18.41-.31c.35-.24.71-.47,1.09-.68,2.77-1.55,6.55-3.06,9.48-1a2.15,2.15,0,0,1,.95,1.4,1.54,1.54,0,0,1-.15.84,1.61,1.61,0,0,1-.2.33l.45-.46c.2-.17.24-.2.12-.11l-.15.1a7.27,7.27,0,0,1-4,.87c-4.95-.09-9-4.08-10.61-8.52A15.84,15.84,0,0,1,48,29.79c.14-.22.3-.44.45-.66s.32-.42.5-.65l.15-.16c.16-.19-.14.15,0,0s.21-.24,0,0c.18-.2-.22.21,0,0-.39.39.17-.14-.17.16,0,0,.22-.19,0,0l.18-.15.16-.12a11.51,11.51,0,0,1,3.73-1.72c2.53-.71,5.64-.7,7.85.91A4.38,4.38,0,0,1,62.71,30a2.25,2.25,0,0,1-.2,1.44s-.18.27-.09.16a6.51,6.51,0,0,1,.88-.85l-.18.13a5.91,5.91,0,0,1-1.07.45,15.81,15.81,0,0,1-5.42.76,23.9,23.9,0,0,1-5.27-.65c-5.61-1.34-10.83-5.6-12.14-11.38l0-.18c0-.05-.35.21-.32.19a6.86,6.86,0,0,0-.64.57Z"/></svg>