<svg id="Layer_1" data-name="Layer 1" xmlns="http://www.w3.org/2000/svg" viewBox="0 0 70 70"><defs><style>.cls-1{fill:#acb8bf;}.cls-2{fill:#42ade2;}.cls-3{fill:#dae3ea;}.cls-4{fill:#3e4347;}</style></defs><title>icon_generic_07</title><rect class="cls-1" x="7.34" y="9.31" width="12.48" height="2.99" transform="translate(-3.66 12.76) rotate(-44.98)"/><rect class="cls-1" x="22.79" y="11.49" width="12.48" height="2.99" transform="translate(-0.68 24.34) rotate(-45.02)"/><rect class="cls-1" x="52.95" y="54.92" width="12.48" height="2.99" transform="translate(-22.56 58.36) rotate(-44.98)"/><rect class="cls-1" x="50.78" y="39.47" width="12.48" height="2.99" transform="translate(-12.27 52.3) rotate(-44.98)"/><path class="cls-2" d="M61.44,66.09l-5.07-45.6-6.86-6.86L3.91,8.56c-2.18-.24-1.76,5.23.77,6.41L39,31,55,65.32C56.2,67.85,61.68,68.27,61.44,66.09Z"/><path class="cls-3" d="M66.75,9.12c2.36-4.67-1.19-8.23-5.86-5.87-6,3-14.79,9.84-23.62,18.67C23.4,35.79,14.48,49.57,17.46,52.54S34.21,46.6,48.08,32.73C56.91,23.9,63.73,15.11,66.75,9.12Z"/><path class="cls-2" d="M24.6,65.59l-1.78-16-2.41-2.41-16-1.78c-.77-.08-.62,1.84.27,2.25l12.05,5.62,5.61,12C22.76,66.21,24.68,66.36,24.6,65.59Z"/><path class="cls-1" d="M22.17,50.34c-4.82,4.82-9.33,8.2-10,7.52s2.69-5.2,7.52-10,9.34-8.21,10-7.52S27,45.51,22.17,50.34Z"/><path class="cls-4" d="M65.08,10.79a4.78,4.78,0,0,0-.86-5,4.78,4.78,0,0,0-5-.86L55.48,7.23a6.29,6.29,0,0,1,5.75,1.54,6.29,6.29,0,0,1,1.54,5.75Z"/><rect class="cls-3" x="57.57" y="7.59" width="8.69" height="1" transform="translate(12.45 46.19) rotate(-45.05)"/></svg>