<svg id="Layer_1" data-name="Layer 1" xmlns="http://www.w3.org/2000/svg" viewBox="0 0 70 70"><defs><style>.cls-1{fill:#d3976e;}.cls-2{fill:#ffdd7d;}.cls-3{fill:#594640;}.cls-4{fill:#42ade2;}.cls-5{fill:#ed4c5c;}.cls-6{fill:#c28fef;}.cls-7{fill:#83bf4f;}</style></defs><title>icon_occasion_01</title><path class="cls-1" d="M49.43,18.76H46.81a11.78,11.78,0,1,0-23.56,0H20.63a14.4,14.4,0,0,1,23-11.53,14.43,14.43,0,0,1,5.13,7.25A14.07,14.07,0,0,1,49.43,18.76Z"/><path class="cls-2" d="M32.54,12.22A17.06,17.06,0,0,0,17.35,2.5C7.87,2.5.18,10.66.18,20.72A18.79,18.79,0,0,0,4.54,32.85S11.52,14.6,32.54,12.22Z"/><path class="cls-3" d="M32.54,12.22c-21,2.38-28,20.63-28,20.63C17.5,31.61,28.27,23.38,32.54,12.22Z"/><path class="cls-2" d="M37.46,12.22A17.07,17.07,0,0,1,52.65,2.5c9.48,0,17.17,8.16,17.17,18.22a18.79,18.79,0,0,1-4.36,12.13S58.48,14.6,37.46,12.22Z"/><path class="cls-3" d="M37.46,12.22c21,2.38,28,20.63,28,20.63C52.5,31.61,41.73,23.38,37.46,12.22Z"/><path class="cls-4" d="M47.06,67.5l-3.9-1.81c1.51-3.65.81-4.82-.25-6.59-1.21-2-2.87-4.81-.59-10.27.65-1.57.32-2.12-.57-3.59a10.49,10.49,0,0,1-1.3-9.61c1.52-5.21-2-11.41-2-11.47l3.62-2.38c.19.32,4.57,8,2.44,15.19a5.94,5.94,0,0,0,.83,5.83c1,1.72,2.45,4.06.88,7.85-1.36,3.26-.74,4.3.29,6C47.76,58.78,49.48,61.65,47.06,67.5Z"/><path class="cls-5" d="M26,67.41c-2.56-5.78-.92-8.7.28-10.83,1-1.75,1.58-2.81.15-6-1.68-3.75-.32-6.13.68-7.87a6,6,0,0,0,.68-5.85c-2.31-7.18,1.88-14.94,2.06-15.27l3.68,2.28-1.84-1.13,1.84,1.13c0,.06-3.38,6.32-1.71,11.53A10.51,10.51,0,0,1,30.77,45c-.85,1.5-1.17,2.06-.48,3.61,2.42,5.39.83,8.22-.33,10.28-1,1.8-1.69,3-.09,6.59Z"/><path class="cls-6" d="M4.53,64.58c-1-6.24,1.37-8.64,3.08-10.39,1.41-1.43,2.26-2.3,1.7-5.78-.64-4,1.29-6,2.7-7.43a6,6,0,0,0,2.17-5.48c-.37-7.53,5.68-13.93,5.94-14.2l3,3.15L21.6,22.88l1.49,1.57c-.05.05-4.91,5.23-4.64,10.69a10.48,10.48,0,0,1-3.53,9c-1.21,1.22-1.66,1.68-1.39,3.36.94,5.84-1.33,8.15-3,9.84-1.44,1.48-2.39,2.45-1.78,6.35Z"/><path class="cls-7" d="M67,64.58c1-6.24-1.37-8.64-3.08-10.39-1.41-1.43-2.26-2.3-1.7-5.78.65-4-1.29-6-2.69-7.43a6,6,0,0,1-2.18-5.48c.37-7.53-5.68-13.93-5.94-14.2l-3,3.15,1.48-1.57-1.49,1.57c.05.05,4.91,5.23,4.64,10.69a10.48,10.48,0,0,0,3.53,9c1.21,1.22,1.66,1.68,1.39,3.36-.93,5.84,1.33,8.15,3,9.84,1.44,1.48,2.39,2.45,1.79,6.35Z"/><rect class="cls-4" x="20.34" y="36.37" width="4.64" height="4.64" transform="translate(-20.73 27.36) rotate(-45.01)"/><rect class="cls-4" x="52.95" y="60.5" width="4.64" height="4.64" transform="translate(-28.23 57.47) rotate(-44.99)"/><rect class="cls-7" x="17.32" y="47.8" width="4.64" height="4.64" transform="translate(-29.68 28.55) rotate(-44.98)"/><rect class="cls-7" x="33.43" y="28.94" width="4.64" height="4.64" transform="translate(-11.63 34.43) rotate(-44.99)"/><rect class="cls-5" x="14.04" y="60.5" width="4.64" height="4.64" transform="translate(-39.63 29.97) rotate(-45)"/><rect class="cls-5" x="50.16" y="48.4" width="4.64" height="4.64" transform="translate(-20.49 51.98) rotate(-45.01)"/><rect class="cls-6" x="33.43" y="59.99" width="4.64" height="4.64" transform="translate(-33.59 43.53) rotate(-45)"/><rect class="cls-6" x="46.88" y="36.86" width="4.64" height="4.64" transform="translate(-13.29 46.26) rotate(-45)"/><rect class="cls-5" x="34.25" y="45.54" width="4.64" height="4.64" transform="translate(-23.13 39.88) rotate(-45)"/></svg>