<svg id="Layer_1" data-name="Layer 1" xmlns="http://www.w3.org/2000/svg" viewBox="0 0 70 70"><defs><style>.cls-1{fill:#ffce31;}.cls-2{fill:#ffdf85;}</style></defs><title>icon_occasion_06</title><polygon class="cls-1" points="70 24.51 43.26 24.51 35 0 26.74 24.51 0 24.51 21.63 39.67 13.37 64.18 35 49.03 56.63 64.18 48.37 39.67 70 24.51"/><polygon class="cls-2" points="51.61 21.4 56.19 8 44.01 16.41 45.71 21.4 51.61 21.4"/><polygon class="cls-2" points="30.23 56.04 35 70 39.77 56.04 35 52.75 30.23 56.04"/><polygon class="cls-2" points="56.79 37.69 52.33 40.77 54.23 46.32 69.28 46.32 56.79 37.69"/><polygon class="cls-2" points="25.99 16.41 13.81 8 18.39 21.4 24.29 21.4 25.99 16.41"/><polygon class="cls-2" points="13.21 37.69 0.72 46.32 15.77 46.32 17.67 40.77 13.21 37.69"/></svg>