<svg id="Layer_1" data-name="Layer 1" xmlns="http://www.w3.org/2000/svg" viewBox="0 0 70 70"><defs><style>.cls-1{fill:#ed1c24;}.cls-2{fill:#eba352;}.cls-3{fill:#ffdd67;}</style></defs><title>icon_occasion_03</title><polygon class="cls-1" points="29.28 0.5 35.03 12 40.78 0.5 29.28 0.5"/><polygon class="cls-1" points="49.78 1.65 49.01 14.48 59.74 7.4 49.78 1.65"/><polygon class="cls-1" points="10.32 7.4 21.05 14.48 20.28 1.65 10.32 7.4"/><path class="cls-2" d="M21.62,69.5H8.1V54.69L24,58.33C20.15,62.32,21.62,69.5,21.62,69.5Z"/><path class="cls-3" d="M20.34,69.5H5.21A38.67,38.67,0,0,0,2.89,55.86l18.92,2.72A25.93,25.93,0,0,0,20.34,69.5Z"/><path class="cls-3" d="M18.94,49.29h5.75V23.7a3,3,0,0,0-2.87-3.14h0a3,3,0,0,0-2.87,3.19Z"/><path class="cls-3" d="M12.14,49.29h6.8V21.55a3.61,3.61,0,0,0-3.4-3.8,3.62,3.62,0,0,0-3.4,3.8Z"/><path class="cls-3" d="M6.21,49.29h5.93V23.17a3.15,3.15,0,0,0-3-3.3h0a3.15,3.15,0,0,0-3,3.3Z"/><path class="cls-3" d="M3.51,23.78a2.89,2.89,0,0,0-2.7,3.07V49.29h5.4V26.85A2.88,2.88,0,0,0,3.51,23.78Z"/><path class="cls-2" d="M21.82,20.56h0a2.84,2.84,0,0,0-.51.05,3.1,3.1,0,0,1,2.37,3.09V49.3h1V23.7A3,3,0,0,0,21.82,20.56Z"/><path class="cls-2" d="M15.54,17.75a3,3,0,0,0-.51.06,3.68,3.68,0,0,1,2.88,3.74V40.09l1,1.15V21.55A3.61,3.61,0,0,0,15.54,17.75Z"/><path class="cls-2" d="M9.18,19.87h0a2.73,2.73,0,0,0-.5.06,3.21,3.21,0,0,1,2.45,3.24V40.09l1,1.15V23.17A3.15,3.15,0,0,0,9.18,19.87Z"/><path class="cls-2" d="M3.51,23.78a3,3,0,0,0-.51.06,3,3,0,0,1,2.19,3V40.09l1,1.15V26.85A2.89,2.89,0,0,0,3.51,23.78Z"/><path class="cls-3" d="M34.33,37.58c-1.72-2-5.2-1-7.61,4-1.69,3.51-2.14,2.81-3,3V41.42S.76,40,.76,43.43c0,0-1.07,8.47,1.15,13.8,3.31,7.93,20.31,10,25.67-3.48,1.07-2.68,2.48-5.5,3.67-8.38C32.69,41.89,36.22,39.78,34.33,37.58Z"/><path class="cls-2" d="M33.18,36.77c3.69,2.76-3.1,8-6.32,16.22-4.6,11.72-18,11.69-23.68,6.31,5.13,6.12,19.55,7.25,24.4-5.55C30.74,45.43,38.51,39.16,33.18,36.77Z"/><path class="cls-2" d="M24.69,44.41c-4.52-1.57-13.86,1.52-12.63,10.45,0-8.36,7.44-10.3,11.61-10.3A4.26,4.26,0,0,0,24.69,44.41Z"/><path class="cls-2" d="M48.38,69.5H61.91V54.69L46,58.33C49.85,62.32,48.38,69.5,48.38,69.5Z"/><path class="cls-3" d="M49.66,69.5H64.79a38.67,38.67,0,0,1,2.32-13.64L48.18,58.58A26,26,0,0,1,49.66,69.5Z"/><path class="cls-3" d="M51.06,49.29H45.31V23.7a3,3,0,0,1,2.87-3.14h0a3,3,0,0,1,2.87,3.19Z"/><path class="cls-3" d="M57.86,49.29h-6.8V21.55a3.42,3.42,0,1,1,6.8,0Z"/><path class="cls-3" d="M63.78,49.29H57.86V23.17a3.15,3.15,0,0,1,3-3.3h0a3.14,3.14,0,0,1,3,3.3Z"/><path class="cls-3" d="M66.49,23.78a2.89,2.89,0,0,1,2.7,3.07V49.29H63.78V26.85A2.89,2.89,0,0,1,66.49,23.78Z"/><path class="cls-2" d="M48.18,20.56h0a2.84,2.84,0,0,1,.51.05,3.1,3.1,0,0,0-2.37,3.09V49.3h-1V23.7A3,3,0,0,1,48.18,20.56Z"/><path class="cls-2" d="M54.46,17.75a3,3,0,0,1,.51.06,3.69,3.69,0,0,0-2.89,3.74V40.09l-1,1.15V21.55A3.61,3.61,0,0,1,54.46,17.75Z"/><path class="cls-2" d="M60.82,19.87h0a2.73,2.73,0,0,1,.5.06,3.21,3.21,0,0,0-2.45,3.24V40.09l-1,1.15V23.17A3.15,3.15,0,0,1,60.82,19.87Z"/><path class="cls-2" d="M66.49,23.78a3,3,0,0,1,.51.06,3,3,0,0,0-2.19,3V40.09l-1,1.15V26.85A2.89,2.89,0,0,1,66.49,23.78Z"/><path class="cls-3" d="M35.67,37.58c1.72-2,5.2-1,7.61,4,1.68,3.51,2.14,2.81,3,3V41.42s22.91-1.45,22.91,2c0,0,1.07,8.47-1.15,13.8-3.31,7.93-20.31,10-25.67-3.48-1.07-2.68-2.48-5.5-3.67-8.38C37.31,41.89,33.78,39.78,35.67,37.58Z"/><path class="cls-2" d="M36.82,36.77c-3.7,2.76,3.1,8,6.32,16.22,4.6,11.72,18,11.69,23.68,6.31-5.13,6.12-19.55,7.25-24.4-5.55C39.26,45.43,31.49,39.16,36.82,36.77Z"/><path class="cls-2" d="M45.31,44.41c4.52-1.57,13.86,1.52,12.63,10.45,0-8.36-7.44-10.3-11.61-10.3A4.26,4.26,0,0,1,45.31,44.41Z"/></svg>