<svg id="Layer_1" data-name="Layer 1" xmlns="http://www.w3.org/2000/svg" xmlns:xlink="http://www.w3.org/1999/xlink" viewBox="0 0 70 70"><defs><style>.cls-1{fill:none;}.cls-2{fill:#fbc926;}.cls-3{fill:url(#linear-gradient);}.cls-4{fill:#c3922e;}.cls-5{fill:url(#linear-gradient-2);}.cls-6{fill:url(#linear-gradient-3);}.cls-7{fill:url(#linear-gradient-4);}.cls-8{clip-path:url(#clip-path);}.cls-9{fill:url(#linear-gradient-5);}</style><linearGradient id="linear-gradient" x1="-1426.8" y1="-379.77" x2="-1426.34" y2="-379.77" gradientTransform="translate(-63537.91 -109649.97) rotate(-135) scale(85.87)" gradientUnits="userSpaceOnUse"><stop offset="0" stop-color="#fbca11"/><stop offset="0.01" stop-color="#fbca11"/><stop offset="0.25" stop-color="#ffffbf"/><stop offset="0.3" stop-color="#f9f3ae"/><stop offset="0.39" stop-color="#e8d381"/><stop offset="0.52" stop-color="#cea039"/><stop offset="0.6" stop-color="#be820e"/><stop offset="0.86" stop-color="#ead76c"/><stop offset="0.87" stop-color="#ebda6f"/><stop offset="1" stop-color="#ffffbf"/></linearGradient><linearGradient id="linear-gradient-2" x1="-1429.6" y1="-378.84" x2="-1429.14" y2="-378.84" gradientTransform="matrix(-42.82, -51.41, 53.53, -62.12, -40894.03, -96978.6)" xlink:href="#linear-gradient"/><linearGradient id="linear-gradient-3" x1="-1427.85" y1="-379.97" x2="-1427.39" y2="-379.97" gradientTransform="translate(-57123.78 -98588.78) rotate(-135) scale(77.15)" xlink:href="#linear-gradient"/><linearGradient id="linear-gradient-4" x1="-1420.58" y1="-335.3" x2="-1420.12" y2="-335.3" gradientTransform="translate(24380 -15021.14) rotate(-45) scale(19.61)" xlink:href="#linear-gradient"/><clipPath id="clip-path"><path class="cls-1" d="M62,57.69l-1.42,2h0l-2,1.42S49,51.59,31.25,35.3l5-5C52.5,48.13,62,57.69,62,57.69"/></clipPath><linearGradient id="linear-gradient-5" x1="-1420.9" y1="-330.32" x2="-1420.44" y2="-330.32" gradientTransform="translate(24226.27 5668.13) scale(17.02)" gradientUnits="userSpaceOnUse"><stop offset="0" stop-color="#dee2e5"/><stop offset="0.01" stop-color="#dee2e5"/><stop offset="0.25" stop-color="#fffce4"/><stop offset="0.39" stop-color="#f0ebd8"/><stop offset="0.6" stop-color="#d5ccc0"/><stop offset="0.79" stop-color="#ededee"/><stop offset="1" stop-color="#d7d4ba"/></linearGradient></defs><title>icon_Happy New Year_06</title><path class="cls-2" d="M41.49,38.61C40.17,37.48,27.56,25.86,21.1,15.3c-1.87-3.07-3.6-7.09-3.12-7a24,24,0,0,0,5.42.33s-1.87,3.71,5.52,13.46S41.49,38.61,41.49,38.61Z"/><path class="cls-3" d="M38.69,39C37.62,37.65,26.47,25,15.5,17.7,12.32,15.57,8,13.39,8.06,13.81a14.55,14.55,0,0,1-.54,4.55s4.55-.85,14.44,7.09S38.69,39,38.69,39Z"/><path class="cls-2" d="M41.22,40.49a208.15,208.15,0,0,1-23-21c-2.67-3-5.85-7-5.57-7a4.88,4.88,0,0,0,2.57-.86s1.42,4.49,10.53,13.55S41.22,40.49,41.22,40.49Z"/><path class="cls-4" d="M40.31,39.89c-.84-1.13-8.78-12.52-12.15-21.82-1-2.69-1.7-6.07-1.34-5.88a20.24,20.24,0,0,0,4.12,1.4s-2,2.38,2.2,11.26S40.31,39.89,40.31,39.89Z"/><path class="cls-5" d="M40.15,40.4c-1-.83-11-8.89-20.08-13.68-2.61-1.39-6-2.83-5.92-2.57a7.78,7.78,0,0,1,.41,2.8s3.06-.42,11.43,4.72S40.15,40.4,40.15,40.4Z"/><path class="cls-6" d="M41.31,41.66C40.1,40.6,28.43,29.74,22.58,19.72c-1.69-2.91-3.22-6.74-2.77-6.65a22,22,0,0,0,5.15.16s-1.88,3.63,4.86,12.84S41.31,41.66,41.31,41.66Z"/><path class="cls-4" d="M41.24,42.12c-1-1.22-11.35-13-21.72-19.75-3-1.95-7.09-3.91-7.06-3.5a15,15,0,0,1-.69,4.43s4.44-1,13.74,6.35S41.24,42.12,41.24,42.12Z"/><path class="cls-4" d="M42.74,40.19A180.57,180.57,0,0,1,21.22,20.62c-2.48-2.76-5.41-6.55-5.14-6.55a5.1,5.1,0,0,0,2.52-.92s1.21,4.3,9.71,12.75S42.74,40.19,42.74,40.19Z"/><path class="cls-7" d="M39.41,39.46c-.86-1-9-10.94-13-19.34-1.14-2.43-2.14-5.54-1.81-5.39a17,17,0,0,0,3.75.93S26.87,18.07,31.51,26,39.41,39.46,39.41,39.46Z"/><path class="cls-2" d="M36.34,37.88A151.28,151.28,0,0,0,18.14,24.3c-2.38-1.43-5.49-3-5.4-2.76A6.46,6.46,0,0,1,13.06,24s2.83-.06,10.42,5.12S36.34,37.88,36.34,37.88Z"/><g class="cls-8"><rect class="cls-9" x="43.17" y="24.92" width="7.82" height="42.75" transform="translate(-18.94 46.85) rotate(-45)"/><polygon points="64.63 59.36 61.2 57.46 59.3 54.04 62.73 55.94 64.63 59.36"/><polygon points="59.38 54.12 55.96 52.22 54.06 48.8 57.48 50.7 59.38 54.12"/><polygon points="54.14 48.88 50.72 46.98 48.82 43.55 52.24 45.45 54.14 48.88"/><polygon points="63.09 60.9 59.67 59 57.77 55.57 61.19 57.47 63.09 60.9"/><polygon points="57.85 55.65 54.43 53.76 52.53 50.33 55.95 52.23 57.85 55.65"/><polygon points="52.61 50.41 49.18 48.51 47.28 45.09 50.71 46.99 52.61 50.41"/><polygon points="61.56 62.43 58.14 60.53 56.24 57.11 59.66 59.01 61.56 62.43"/><polygon points="56.32 57.19 52.89 55.29 50.99 51.87 54.42 53.76 56.32 57.19"/><polygon points="51.07 51.95 47.65 50.05 45.75 46.62 49.17 48.52 51.07 51.95"/><polygon points="60.02 63.96 56.6 62.06 54.7 58.64 58.13 60.54 60.02 63.96"/><polygon points="54.78 58.72 51.36 56.82 49.46 53.4 52.88 55.3 54.78 58.72"/><polygon points="49.54 53.48 46.12 51.58 44.22 48.16 47.64 50.06 49.54 53.48"/><polygon points="48.91 43.64 45.48 41.74 43.58 38.32 47 40.22 48.91 43.64"/><polygon points="43.66 38.4 40.24 36.5 38.34 33.08 41.76 34.98 43.66 38.4"/><polygon points="38.42 33.16 34.99 31.26 33.1 27.83 36.52 29.73 38.42 33.16"/><polygon points="47.37 45.18 43.95 43.28 42.05 39.85 45.47 41.75 47.37 45.18"/><polygon points="42.13 39.93 38.7 38.03 36.8 34.61 40.23 36.51 42.13 39.93"/><polygon points="36.88 34.69 33.46 32.79 31.56 29.37 34.99 31.27 36.88 34.69"/><polygon points="45.84 46.71 42.41 44.81 40.51 41.39 43.94 43.28 45.84 46.71"/><polygon points="40.59 41.47 37.17 39.57 35.27 36.14 38.7 38.04 40.59 41.47"/><polygon points="35.35 36.22 31.93 34.32 30.03 30.9 33.45 32.8 35.35 36.22"/><polygon points="44.3 48.24 40.88 46.34 38.98 42.92 42.4 44.82 44.3 48.24"/><polygon points="39.06 43 35.64 41.1 33.74 37.68 37.16 39.58 39.06 43"/><polygon points="33.82 37.76 30.39 35.86 28.5 32.43 31.92 34.33 33.82 37.76"/></g><path d="M62.48,58.21l-3.31,3.47s-2.5-2.59-7.4-7l3.78-3.81C60.07,55.61,62.48,58.21,62.48,58.21Z"/></svg>