<svg id="Layer_1" data-name="Layer 1" xmlns="http://www.w3.org/2000/svg" viewBox="0 0 70 70"><defs><style>.cls-1{fill:#ffd54b;}.cls-2{fill:#eabd38;}.cls-3{fill:#ffe693;}</style></defs><title>icon_xmas_07 copy</title><path class="cls-1" d="M10.25,10.25a35,35,0,1,0,49.5,0A35,35,0,0,0,10.25,10.25Zm33.5,33.5H26.25V26.25h17.5Z"/><path class="cls-2" d="M43.75,26.25v17.5H26.25V26.25h17.5m5-3.75H22.5V48.75H48.75V22.5Z"/><path class="cls-3" d="M43.75,26.25v17.5H26.25V26.25h17.5M47.5,22.5h-25v25h25v-25Z"/><path class="cls-3" d="M10.25,10.25a35,35,0,1,0,49.5,0A35,35,0,0,0,10.25,10.25ZM53.56,53.56a26.25,26.25,0,1,1,0-37.12A26.25,26.25,0,0,1,53.56,53.56Z"/><path class="cls-2" d="M18.94,18.94a26.23,26.23,0,0,1,35.81-1.19c-.39-.44-.77-.89-1.19-1.31A26.25,26.25,0,0,0,16.44,53.56c.42.42.87.8,1.31,1.19A26.23,26.23,0,0,1,18.94,18.94Z"/></svg>