<svg xmlns="http://www.w3.org/2000/svg" viewBox="0 0 61 60.98"><defs><style>.cls-1{fill:#ffc629;}</style></defs><title>Asset 10</title><g id="Layer_2" data-name="Layer 2"><g id="Layer_1-2" data-name="Layer 1"><polygon class="cls-1" points="30.5 58.63 32.25 55.14 34 51.65 30.5 51.65 27 51.65 28.75 55.14 30.5 58.63"/><path d="M30,46.48a16.4,16.4,0,0,1-11.62-5A14.62,14.62,0,0,1,14,30.65a15.26,15.26,0,0,1,4.22-11.22,16.33,16.33,0,0,1,11.38-5.15h.18A16.41,16.41,0,0,1,46.23,30.21c.18,8.33-7.38,16.08-15.85,16.27Zm-.22-31.2h-.17A15.3,15.3,0,0,0,19,20.12,14.26,14.26,0,0,0,15,30.63v0a13.63,13.63,0,0,0,4.09,10.1,15.28,15.28,0,0,0,11.22,4.71c8-.18,15-7.45,14.88-15.25A15.4,15.4,0,0,0,29.82,15.28Z"/><path d="M35.58,11.1H25.42a.49.49,0,0,1-.45-.72L30.05.25a.53.53,0,0,1,.9,0L36,10.38a.49.49,0,0,1-.45.72Zm-9.35-1h8.54L30.5,1.59Z"/><path d="M30.5,61a.51.51,0,0,1-.45-.28L25,50.58a.5.5,0,0,1,0-.49.5.5,0,0,1,.43-.24H35.58a.5.5,0,0,1,.43.24.5.5,0,0,1,0,.49L31,60.7A.51.51,0,0,1,30.5,61ZM26.23,50.85l4.27,8.51,4.27-8.51Z"/><path d="M50.37,36.06a.59.59,0,0,1-.26-.07.52.52,0,0,1-.24-.43V25.4a.5.5,0,0,1,.24-.43.5.5,0,0,1,.49,0L60.72,30a.51.51,0,0,1,.28.45.49.49,0,0,1-.28.44L50.6,36A.59.59,0,0,1,50.37,36.06Zm.5-9.85v8.54l8.52-4.27Z"/><path d="M10.63,36.06A.59.59,0,0,1,10.4,36L.28,30.92A.49.49,0,0,1,0,30.48.51.51,0,0,1,.28,30L10.4,25a.5.5,0,0,1,.49,0,.5.5,0,0,1,.24.43V35.56a.52.52,0,0,1-.24.43A.59.59,0,0,1,10.63,36.06Zm-9-5.58,8.52,4.27V26.21Z"/><path d="M48.15,20.52a.51.51,0,0,1-.36-.15l-7.18-7.19a.47.47,0,0,1-.14-.46.5.5,0,0,1,.33-.36L51.56,8.79a.51.51,0,0,1,.51.12.5.5,0,0,1,.12.51L48.62,20.18a.49.49,0,0,1-.36.32Zm-6.26-7.47,6,6,3-9Z"/><path d="M9.29,52.19a.5.5,0,0,1-.48-.66l3.57-10.75a.48.48,0,0,1,.36-.33.51.51,0,0,1,.47.13l7.18,7.19a.49.49,0,0,1,.14.47.52.52,0,0,1-.33.36L9.44,52.17Zm3.78-10.33-3,9,9-3Z"/><path d="M51.71,52.19l-.15,0L40.8,48.6a.52.52,0,0,1-.33-.36.49.49,0,0,1,.14-.47l7.18-7.19a.51.51,0,0,1,.47-.13.48.48,0,0,1,.36.33l3.57,10.75a.5.5,0,0,1-.48.66Zm-9.82-4.28,9,3-3-9Z"/><path d="M12.85,20.52l-.11,0a.49.49,0,0,1-.36-.32L8.81,9.42a.5.5,0,0,1,.12-.51.51.51,0,0,1,.51-.12L20.2,12.36a.5.5,0,0,1,.33.36.47.47,0,0,1-.14.46l-7.18,7.19A.51.51,0,0,1,12.85,20.52ZM10.08,10.05l3,9,6-6Z"/><path class="cls-1" d="M17.18,30.61c-.35-7.79,6.4-13.15,12.58-13.22a13.26,13.26,0,0,1,13.4,12.87c.15,6.77-6,13-12.8,13.13S16.88,37.59,17.18,30.61Z"/><polygon class="cls-1" points="30.5 2.68 32.25 6.17 34 9.66 30.5 9.66 27 9.66 28.75 6.17 30.5 2.68"/><polygon class="cls-1" points="58.58 30.48 55.08 32.23 51.58 33.99 51.58 30.48 51.58 26.96 55.08 28.72 58.58 30.48"/><polygon class="cls-1" points="2.58 30.48 6.08 32.23 9.58 33.99 9.58 30.48 9.58 26.96 6.08 28.72 2.58 30.48"/><polygon class="cls-1" points="50.25 10.72 49.09 14.22 47.93 17.73 45.59 15.39 43.25 13.05 46.75 11.89 50.25 10.72"/><polygon class="cls-1" points="10.75 50.23 14.25 49.07 17.75 47.91 15.41 45.57 13.07 43.23 11.91 46.73 10.75 50.23"/><polygon class="cls-1" points="50.25 50.23 46.75 49.07 43.25 47.91 45.59 45.57 47.93 43.23 49.09 46.73 50.25 50.23"/><polygon class="cls-1" points="10.75 10.72 11.91 14.22 13.07 17.73 15.41 15.39 17.75 13.05 14.25 11.89 10.75 10.72"/></g></g></svg>