<svg xmlns="http://www.w3.org/2000/svg" viewBox="0 0 41.31 72.15"><defs><style>.cls-1{fill:#ffc629;}</style></defs><title>Asset 8</title><g id="Layer_2" data-name="Layer 2"><g id="Layer_1-2" data-name="Layer 1"><path class="cls-1" d="M27.43,18.33a.7.7,0,0,0,.75-.52c.11-.35.27-.29.49-.13.47.36.94.73,1.42,1.07a1.07,1.07,0,0,0,.46.17c.82.08,1.64.11,2.45.22.4.05.53-.11.56-.48s.08-.72.14-1.19c.42.51.74.93,1.09,1.32a.74.74,0,0,0,.49.22,7.11,7.11,0,0,1,3.36.7c.33.16.64.37,1,.58a6.3,6.3,0,0,0-3.06-4.07,12.86,12.86,0,0,0-5.2-1.89,9.76,9.76,0,0,0-7.77,2.09c-.57.46-1.28.55-1.83,1.06a.56.56,0,0,1,0-.13,5.92,5.92,0,0,1,2.75-3.6c.43-.26.61-.49.46-1,0,0,0-.07,0-.15.33,0,.67.07,1,.07a1.31,1.31,0,0,0,.59-.13c.49-.28.94-.64,1.43-.9a.51.51,0,0,0,.29-.59c0-.42-.06-.84-.09-1.38.37.25.65.42.91.62a.48.48,0,0,0,.6,0c1.3-.68,2.62-1.33,3.93-2,.28-.13.59-.2.92-.32A5.63,5.63,0,0,0,31.94,7a6.25,6.25,0,0,0-5,1,16.5,16.5,0,0,0-5.11,5.21c-.56,1-1.08,2.07-1.55,3.1,0-.05-.39-.19-.4-.29a6.54,6.54,0,0,1,.67-3.78c.39-.66.5-1.2,0-1.78a.7.7,0,0,1,0-.13c.22-.18.47-.37.69-.58a2.9,2.9,0,0,0,.65-.66A21.62,21.62,0,0,0,22.8,7a2.41,2.41,0,0,0,.1-.76c0-.28-.14-.64,0-.81C23.8,4.23,24.76,3,25.7,1.84A2.27,2.27,0,0,1,26,1.58l-.06-.14c-.78.18-1.06.43-1.82.66a7.56,7.56,0,0,0-4.51,3.62A14,14,0,0,0,18,11.3a15.38,15.38,0,0,0,.41,5.37c-.79-.54-2-1.32-2.71-1.78A15.88,15.88,0,0,0,10.2,12.5a4.1,4.1,0,0,0-2.64.33,21,21,0,0,0-4.69,3c-.42.36-.82.76-1.23,1.15.09.06.11.1.13.09l4-.22a.75.75,0,0,0,.4-.17c.31-.26.6-.53.91-.81.27.38.5.73.75,1.05a.46.46,0,0,0,.38.15c.59-.12,1.17-.32,1.77-.4a4.75,4.75,0,0,1,2.86.2c.65.31,1.32.58,2,.86s1.62.49,2.19.73c.2.36-.45.29-.6.31-1.14.17-2.29.29-3.42.53a8.74,8.74,0,0,0-3.38,1.51,7,7,0,0,0-2.31,3.81,34.68,34.68,0,0,0-1.81,7.69c0,.13,0,.27,0,.5.43-.6.78-1.14,1.18-1.61.8-.94,1.64-1.85,2.45-2.78A.78.78,0,0,0,9.27,28c.08-.67,0-1.24,0-1.9h.08L10,27.52c.13-.15.37-.34.45-.44a15,15,0,0,1,2.67-3,.6.6,0,0,0,.16-.38c0-.36,0-.73,0-1.09l.11-.09.76,1c1-1,1.91-2.1,3.42-2.4,1.36-.47.68.27.6.35A22.63,22.63,0,0,0,15,25.69a6.65,6.65,0,0,0-1,3.94,12.81,12.81,0,0,1-.05,1.86,13.42,13.42,0,0,0,1,6.78c.29.6-.23,1.18.1,1.77h.19c.53-1.47,1.08-2.93,1.6-4.39a2.38,2.38,0,0,0-.18-2.06c-.11-.23-.35-.5-.48-.78l1.67,1c.27-1.49.57-3.11.81-4.54a.72.72,0,0,0-.17-.48c-.28-.36-.6-.7-.91-1l0-.07c.34.09.64.37,1.05.48A8.07,8.07,0,0,1,20,22.54a.36.36,0,0,1,.13.13c.33.44.66.89,1,1.35a63.07,63.07,0,0,1,6.46,12,43.19,43.19,0,0,1,2.25,7.5,34.08,34.08,0,0,1,.56,7.2c0,.89-.25,5.7-.34,6.5-.18,1.47-.34,3-.6,4.42a37.59,37.59,0,0,1-1,4.07,27.79,27.79,0,0,1-1.26,3,.49.49,0,0,1-.76.26A10.69,10.69,0,0,0,25,68.45a1.75,1.75,0,0,0-2.15.82,13.2,13.2,0,0,1-1,1.33,6.13,6.13,0,0,1-.64.57l7.65-.47c.74,0,1.47-.12,2.2-.16a.58.58,0,0,0,.14,0L36,70.18s-2.58-2.51-4.94-2.07a38.88,38.88,0,0,0,1-4.68c.28-2,.56-4.06.7-6.11.12-1.71,0-3.43,0-5.15,0-.15-.16-2.13-.18-2.3-.29-1.75-.49-3.52-.93-5.23a47.21,47.21,0,0,0-1.51-5.35,86.3,86.3,0,0,0-3.63-8.51,65.12,65.12,0,0,0-5.25-9.15c-.06-.09.11-.24.06-.35s.1-.06.13-.06h.12a8.12,8.12,0,0,1,4,1.65.59.59,0,0,0,.64.13c.33-.1.66-.17,1-.26a6.79,6.79,0,0,0,.1.68.89.89,0,0,0,.25.42l2.81,2a.41.41,0,0,0,.57,0c.2-.17.43-.33.64-.49l.17,0c-.5,1.15.32,1.36,1,1.7a1.1,1.1,0,0,1,.14.09c.51.29,1.51.51,2,.8l.05-.06-.58-1,.09-.11c.81.65,1.14,1.38,2,2,0-.23-.14-.27-.2-.52a8,8,0,0,0-3.13-4.75,24.1,24.1,0,0,0-4.9-2.81,17.71,17.71,0,0,0-4.39-1.35,7.93,7.93,0,0,0-1.09,0,4.47,4.47,0,0,1,1-.47A11.94,11.94,0,0,1,27.43,18.33Z"/><path d="M26.07,1.17l.06.14a1.73,1.73,0,0,0-.28.26c-1,1.2-2,2.4-2.89,3.63-.13.17,0,.53,0,.8a2.18,2.18,0,0,1-.11.77,20.55,20.55,0,0,1-1,2.07,2.76,2.76,0,0,1-.66.66c-.23.21-.48.4-.71.58a.7.7,0,0,0,0,.13c.55.58.43,1.12,0,1.78a6.32,6.32,0,0,0-.7,3.78A1.37,1.37,0,0,0,20,16c.48-1,.9-2.12,1.47-3.11a16.76,16.76,0,0,1,4.93-5.56A6.35,6.35,0,0,1,30,6.2a7,7,0,0,1,1.43.14A9.63,9.63,0,0,1,35,7.8a7,7,0,0,0-1,.32c-1.35.65-2.7,1.3-4,2a.6.6,0,0,1-.29.09.55.55,0,0,1-.32-.13c-.27-.2-.56-.37-.94-.62,0,.54.05,1,.09,1.38a.5.5,0,0,1-.29.59c-.51.27-1,.62-1.47.9a1.24,1.24,0,0,1-.61.13h0c-.34,0-.68,0-1-.07,0,.08,0,.13,0,.16.15.48,0,.71-.48,1a6,6,0,0,0-2.82,3.6.3.3,0,0,0,0,.13c.56-.51,1.08-1.05,1.66-1.51a10,10,0,0,1,6.33-2.21,11.52,11.52,0,0,1,1.64.12,13.26,13.26,0,0,1,5.34,1.89A7.5,7.5,0,0,1,40.14,20c-.37-.21-.69-.41-1-.58a7.39,7.39,0,0,0-3.28-.7h-.17a.74.74,0,0,1-.49-.22c-.37-.39-.69-.81-1.12-1.32-.06.47-.12.83-.15,1.2s-.13.48-.43.48h-.14c-.83-.11-1.68-.14-2.51-.22a1,1,0,0,1-.47-.17c-.5-.34-1-.71-1.46-1.07a.62.62,0,0,0-.28-.13c-.09,0-.16.07-.22.26a.72.72,0,0,1-.78.52,12.55,12.55,0,0,0-3.84.58,5.2,5.2,0,0,0-1,.47h1.12a12.93,12.93,0,0,1,4.55,1.15,24.84,24.84,0,0,1,5.11,2.79,7.93,7.93,0,0,1,3.21,4.76,4.63,4.63,0,0,1,.07.74l-2.51-2-.1.11.6,1,0,.06-1.57-.88L33,26.79c-.65-.34-1.49-.55-1-1.7l-.17,0c-.23.16-.46.32-.67.49a.44.44,0,0,1-.3.13.45.45,0,0,1-.27-.1c-1-.68-1.94-1.35-2.89-2a.82.82,0,0,1-.25-.41,4.84,4.84,0,0,1-.11-.68c-.35.09-.7.16-1,.26a.67.67,0,0,1-.24,0,.65.65,0,0,1-.42-.17A8.31,8.31,0,0,0,21.62,21h-.13s0,0-.13.06a3.07,3.07,0,0,0,.17.31,73.33,73.33,0,0,1,5.92,9.45A80.75,80.75,0,0,1,31.25,39a46.21,46.21,0,0,1,1.8,5.36c.45,1.71.66,3.49,1,5.24,0,.17.19,2.16.19,2.3,0,1.72.08,3.45,0,5.16-.14,2-.43,4.09-.72,6.12a35.79,35.79,0,0,1-1,4.68,3.77,3.77,0,0,1,.57-.05c2.09,0,3.41,2.14,3.41,2.14l-4.91.34-.14,0-2.25.17L21.24,71a4.84,4.84,0,0,0,.67-.56,16.18,16.18,0,0,0,1-1.33,1.81,1.81,0,0,1,1.55-.93,2.57,2.57,0,0,1,.65.1,12.23,12.23,0,0,1,1.47.53.72.72,0,0,0,.33.08.48.48,0,0,0,.45-.33,27,27,0,0,0,1.29-3.05,36.17,36.17,0,0,0,1-4.08c.27-1.46.43-2.95.61-4.42.1-.8.34-5.62.35-6.51A33,33,0,0,0,30,43.27a41.78,41.78,0,0,0-2.3-7.51,62.73,62.73,0,0,0-6.62-12c-.32-.46-.66-.91-1-1.36a1.43,1.43,0,0,0-.13-.13,8,8,0,0,0-1.42,5.65l-1.13-.29,0,.08c.32.34.65.67.94,1a.69.69,0,0,1,.17.48c-.24,1.44-.51,2.87-.78,4.36l-1.71-1a4.26,4.26,0,0,0,.29.6,2.26,2.26,0,0,1,.38,2.24c-.53,1.47-1.09,2.93-1.64,4.39h-.2c-.33-.59-.69-1.17-1-1.78a13,13,0,0,1-1-6.78,11.58,11.58,0,0,0,0-1.86A6.55,6.55,0,0,1,14,25.45a22.19,22.19,0,0,1,3.24-4.23c.07-.08.13-.18.28-.36-1.56.31-2.44,1.39-3.51,2.41l-.78-1-.11.09c0,.37,0,.73,0,1.1a.55.55,0,0,1-.16.38,15.13,15.13,0,0,0-2.74,3l-.31.34c-.21-.53-.4-1-.6-1.49l-.08,0c-.06.66-.12,1.33-.19,2a.84.84,0,0,1-.2.45C8,29.09,7.11,30,6.3,30.93c-.42.48-.77,1-1.21,1.62,0-.23,0-.37,0-.5a35.4,35.4,0,0,1,1.48-7.91A7.09,7.09,0,0,1,9,20.32a9,9,0,0,1,3.46-1.5c1.16-.24,2.34-.37,3.51-.54a1.37,1.37,0,0,0,.49-.11l-1.76-.72c-.68-.28-1.36-.55-2-.87a3.44,3.44,0,0,0-1.53-.31,11.18,11.18,0,0,0-1.41.12c-.61.08-1.21.28-1.82.4h0a.47.47,0,0,1-.34-.15c-.26-.32-.49-.67-.77-1.06-.32.28-.62.56-.94.82a.79.79,0,0,1-.41.17l-4.07.22h0s-.05,0-.13-.09c.42-.39.82-.79,1.25-1.15a22.71,22.71,0,0,1,4.86-3.26,4.06,4.06,0,0,1,1.82-.41A5.33,5.33,0,0,1,10,12a16.64,16.64,0,0,1,5.61,2.4c.74.45,1.45,1,2.27,1.49a12.44,12.44,0,0,1-.48-4.92,13.59,13.59,0,0,1,1.67-5.59,7.75,7.75,0,0,1,4.63-3.63c.78-.23,1.59-.36,2.39-.54m0-1.17a1.09,1.09,0,0,0-.26,0l-.73.15c-.57.12-1.15.24-1.74.42A8.85,8.85,0,0,0,18,4.76a14.88,14.88,0,0,0-1.83,6.05,13.69,13.69,0,0,0,0,2.56h0a17.54,17.54,0,0,0-6-2.56,5.89,5.89,0,0,0-1.09-.1,5.33,5.33,0,0,0-2.32.53,24.13,24.13,0,0,0-5.11,3.41c-.32.27-.62.55-.91.83l-.38.36a1.15,1.15,0,0,0-.38.91,1.17,1.17,0,0,0,.46.87A1.22,1.22,0,0,0,1.3,18h.06l.44,0c1.21-.07,2.43-.13,3.64-.21a1.91,1.91,0,0,0,1.07-.42h0a.27.27,0,0,0,.07.08A1.66,1.66,0,0,0,7.83,18l.26,0,.81-.19c.33-.08.65-.16.94-.2H9.9a10.91,10.91,0,0,1,1.2-.11,2.26,2.26,0,0,1,1,.21l.07,0h0a10.32,10.32,0,0,0-3.9,1.7,8.17,8.17,0,0,0-2.8,4.41,35.19,35.19,0,0,0-1.54,8.16c0,.13,0,.25,0,.41v.2a1.17,1.17,0,0,0,2.1.69l.42-.57a10.62,10.62,0,0,1,.74-1c.47-.55,1-1.08,1.44-1.61.36-.38.71-.77,1.05-1.16a1.77,1.77,0,0,0,.36-.59,1.16,1.16,0,0,0,.72-.38l.11-.13a2.11,2.11,0,0,0,.21-.24c.23-.27.45-.55.67-.84l.67-.84a7.26,7.26,0,0,0-.67,3.59,8.55,8.55,0,0,1,0,1.42l0,.26a14.33,14.33,0,0,0,1.12,7.37,14.59,14.59,0,0,0,.72,1.3l.31.54a1.16,1.16,0,0,0,1,.6h.23a1.21,1.21,0,0,0,1.07-.76l.48-1.29c.39-1,.78-2.07,1.16-3.11A3.45,3.45,0,0,0,18,34.74l.21-.07a1.18,1.18,0,0,0,.67-.86l.18-1c.21-1.14.41-2.26.6-3.39a1.69,1.69,0,0,0-.1-.87,1.2,1.2,0,0,0,.17-.72,7.59,7.59,0,0,1,.41-3.43l0,0a61.3,61.3,0,0,1,6.5,11.76,40.39,40.39,0,0,1,2.24,7.3,31.67,31.67,0,0,1,.56,7c0,.87-.26,5.65-.35,6.38l-.1.88c-.14,1.15-.29,2.34-.5,3.48a33.1,33.1,0,0,1-1,3.94,18.31,18.31,0,0,1-.91,2.2l-.08.17c-.4-.15-.79-.27-1.1-.36a3.5,3.5,0,0,0-1-.15A2.94,2.94,0,0,0,22,68.44,13.17,13.17,0,0,1,21,69.66a2.08,2.08,0,0,1-.25.21l-.27.22a1.15,1.15,0,0,0-.34,1.32,1.17,1.17,0,0,0,1.08.74h.07L23.55,72l5.62-.34,1.13-.08,1.12-.08.24,0,4.82-.34a1.17,1.17,0,0,0,.91-1.77,6.11,6.11,0,0,0-3.47-2.59c.3-1.22.51-2.33.67-3.41.27-1.91.58-4.07.72-6.19.09-1.25.07-2.51.06-3.72,0-.51,0-1,0-1.53,0-.19-.16-2.24-.2-2.49-.07-.46-.15-.91-.22-1.37a37.89,37.89,0,0,0-.75-4,50.17,50.17,0,0,0-1.85-5.5,79.79,79.79,0,0,0-3.85-8.35A76.55,76.55,0,0,0,24.12,23a6.13,6.13,0,0,1,.84.56,1.78,1.78,0,0,0,1.15.44,2,2,0,0,0,.43-.05,1.7,1.7,0,0,0,.53.62l1.66,1.18,1.23.86a1.64,1.64,0,0,0,.95.32l.24,0a3.29,3.29,0,0,0,1.13.83l.17.08.16.1,1.23.69.34.19a1.18,1.18,0,0,0,.57.15,1.16,1.16,0,0,0,.48-.11l.87.68a1.17,1.17,0,0,0,.71.24,1.11,1.11,0,0,0,.56-.14A1.16,1.16,0,0,0,38,28.48a1.09,1.09,0,0,1,0-.18,3.61,3.61,0,0,0-.09-.74,9.2,9.2,0,0,0-3.67-5.43,26.11,26.11,0,0,0-5.35-2.92l-.36-.14a2.5,2.5,0,0,0,.35-.21c.27.2.55.41.83.6a2.17,2.17,0,0,0,1,.37l1,.08c.51,0,1,.08,1.46.14h.29a1.55,1.55,0,0,0,1.15-.46,2,2,0,0,0,1,.33h.17a6.27,6.27,0,0,1,2.77.59l.6.33.36.22a1.17,1.17,0,0,0,1.72-1.28,8.67,8.67,0,0,0-3.86-5.25,14.61,14.61,0,0,0-5.8-2.06,13.87,13.87,0,0,0-1.8-.13c-.3,0-.6,0-.9,0a1.61,1.61,0,0,0,.76-1h0a1.71,1.71,0,0,0,.82-.22c1.35-.69,2.73-1.35,4-2A2.93,2.93,0,0,1,35,9l.36-.11a1.19,1.19,0,0,0,.78-1,1.18,1.18,0,0,0-.51-1.13,10.86,10.86,0,0,0-3.94-1.63A8.54,8.54,0,0,0,30,5,7.54,7.54,0,0,0,25.68,6.4a15.9,15.9,0,0,0-2.19,1.85l.45-1a3,3,0,0,0,.19-1.1V6.05a2.94,2.94,0,0,0,0-.44c.68-.88,1.39-1.76,2.08-2.62l.57-.69,0,0a.69.69,0,0,0,.13-.11A1.17,1.17,0,0,0,27.19.83l0-.07,0-.07A1.16,1.16,0,0,0,26.07,0Z"/><path d="M30.36,51.88a14.51,14.51,0,0,0,4.35-.49.35.35,0,0,0-.19-.67,13.88,13.88,0,0,1-4.16.46c-.45,0-.45.68,0,.7Z"/><path d="M29.86,57.09c1.52,0,3,0,4.57-.05.45,0,.45-.72,0-.7-1.52.08-3.05.09-4.57,0a.35.35,0,0,0,0,.7Z"/><path d="M29.29,61.33a18.63,18.63,0,0,0,4.34.62.35.35,0,0,0,0-.7,17.69,17.69,0,0,1-4.16-.59.35.35,0,0,0-.18.67Z"/><path d="M28.09,66.24a14.84,14.84,0,0,0,4.78.51c.45,0,.45-.73,0-.7a14.22,14.22,0,0,1-4.59-.48.35.35,0,0,0-.19.67Z"/><path d="M22.12,26A5.67,5.67,0,0,0,24,24.8a.35.35,0,0,0-.49-.49c-.12.11-.24.22-.37.32l0,0h0l-.11.08-.2.13-.4.25-.22.11-.12.05-.05,0c-.05,0,.07,0,0,0a.34.34,0,0,0-.21.16.36.36,0,0,0,0,.27c.06.16.25.32.43.24Z"/><path d="M23.83,28.87A3.28,3.28,0,0,0,26,28a.36.36,0,0,0,0-.49.35.35,0,0,0-.5,0l-.18.16s0,0,0,0l0,0-.11.07-.21.13-.11.05,0,0-.05,0h0l-.05,0-.12,0a1.05,1.05,0,0,1-.24.06l-.12,0h-.06s-.07,0,0,0,0,0,0,0h-.2a.37.37,0,0,0-.35.35.36.36,0,0,0,.35.35Z"/><path d="M25.43,32.14a5.73,5.73,0,0,0,2.36-.32.35.35,0,0,0,.24-.43.34.34,0,0,0-.43-.24,5.31,5.31,0,0,1-2.17.29.35.35,0,0,0-.35.35.36.36,0,0,0,.35.35Z"/><path d="M27,35.43l2.39-.3a.35.35,0,0,0,0-.7l-2.39.3a.35.35,0,0,0,0,.7Z"/><path d="M28.54,38.78a3.62,3.62,0,0,0,2.66-.29.34.34,0,0,0,.12-.48.35.35,0,0,0-.47-.12,3,3,0,0,1-2.13.22.36.36,0,0,0-.43.24.35.35,0,0,0,.25.43Z"/><path d="M29.62,42.88a5.13,5.13,0,0,0,3.24-.14.35.35,0,0,0-.19-.67,4.48,4.48,0,0,1-2.87.14.35.35,0,0,0-.18.67Z"/><path d="M30.36,47.62A12.38,12.38,0,0,0,33.78,47c.43-.14.25-.81-.18-.67a11.89,11.89,0,0,1-3.24.55c-.44,0-.45.72,0,.7Z"/></g></g></svg>