<svg xmlns="http://www.w3.org/2000/svg" viewBox="0 0 46.94 61.14"><defs><style>.cls-1{fill:#ffc629;}</style></defs><title>Asset 12</title><g id="Layer_2" data-name="Layer 2"><g id="Layer_1-2" data-name="Layer 1"><path class="cls-1" d="M6.43,28s-1.8,3-1.8,15C4.63,51,5,54,6,56.4c.61,1.55.81,1.91,1.59,1.89s1-.81,1.1-1.89C8.94,52.54,9.31,45.34,10,43c.9-3,3.46-.32,3.46-.32s2.78,11.25,3.32,13.8c.37,1.68,2.05,1.94,2.05-.06s-1.63-18.13-1.63-23.13S15.88,14.16,28,15.41c0,0,.07-1.05-3.24-1-3.59.07-7.14,3.09-11.18,2.59-1.78-.22-4.49-1.84-6.28.16a20.5,20.5,0,0,0-4.49,14c.4,5.81,1.48,6.45,1.48,6.45"/><path class="cls-1" d="M31.76,18.4a42.83,42.83,0,0,1,5,.59c3.86,1,7.53,2.77,8,9.09s-4.58,10.64-4.58,10.64-.37-.81.81-2.19c1.35-1.58,2.16-6.36,1.41-8.4a20.41,20.41,0,0,0-3.17-4.79l.05,32.47s0,1.88-1.13,1.88S37,56.15,36.43,53.63,34.5,39.6,33,39.71,30.7,55.77,30.7,55.77s-.14,2-1.38,1.95-1.41-1.95-1.41-1.95-2.42-30.52-2.62-31.28c-.38-1.43-2.72-2.85-5.44,1.63a7.46,7.46,0,0,1,2.29-6.39C24.4,17.63,31.76,18.4,31.76,18.4Z"/><path d="M15.55,14a7,7,0,1,1,7-7A7,7,0,0,1,15.55,14Zm0-13a6,6,0,1,0,6,6A6,6,0,0,0,15.55,1Z"/><path d="M33.05,14.5a7,7,0,1,1,7-7A7,7,0,0,1,33.05,14.5Zm0-13a6,6,0,1,0,6,6A6,6,0,0,0,33.05,1.5Z"/><circle class="cls-1" cx="33.05" cy="7.5" r="5"/><circle class="cls-1" cx="15.65" cy="7.06" r="5"/><path d="M18.6,60.91a2.07,2.07,0,0,1-1.82-1.74c-.58-2.41-3.42-14.76-3.7-16-.33-.48-1-1.08-1.36-1s-.5.39-.7,1c-.58,1.74-1,7.69-1.24,12-.09,1.31-.16,2.48-.23,3.36s-.19,2.31-1.71,2.35c-1.24,0-1.57-.65-2.25-2.19C4.52,56.29,4.05,51.45,4.05,43c0-1.83,0-3.45.12-4.89l-.1,0c-.15,0-3.55-1-4-7.05A19.65,19.65,0,0,1,5.2,16.65c1.74-1.74,5.19-1,7.72-.46.68.14,1.26.27,1.68.31,2.32.26,4-.57,5.87-1.46a12,12,0,0,1,5.07-1.54c1.62,0,2.73.33,3.32,1.06a1.88,1.88,0,0,1,.39,1.55l-.09.41-.43,0A7.22,7.22,0,0,0,23,18.22c-3.18,3-3.06,9.45-3,13.28,0,.55,0,1.06,0,1.5V59c0,1.29-.67,1.83-1.29,1.9ZM11.77,41.17c1.12,0,2.08,1.39,2.19,1.55l.08.17c0,.13,3.11,13.53,3.71,16,.17.71.65,1,.89,1s.41-.39.41-.91V33c0-.44,0-.93,0-1.48-.08-4-.21-10.69,3.29-14a7.94,7.94,0,0,1,5.91-2,.84.84,0,0,0-.16-.29c-.27-.33-.91-.71-2.51-.68a11.17,11.17,0,0,0-4.66,1.44c-1.87.91-3.81,1.84-6.41,1.56-.47-.06-1.08-.19-1.78-.34-2.17-.46-5.45-1.16-6.81.19A18.87,18.87,0,0,0,1.05,31c.37,4.91,2.72,6,3.19,6.14.5-7.19,1.82-9.27,1.89-9.38a.5.5,0,0,1,.84.55c0,.05-1.92,3.18-1.92,14.73,0,8.19.46,13,1.46,15.3.71,1.6.82,1.6,1.31,1.59s.63-.14.73-1.43c.07-.88.15-2,.23-3.34.3-4.64.67-10.41,1.29-12.28.34-1,.85-1.57,1.52-1.66Z"/><path d="M29.43,61.14h0c-1.41,0-1.88-1.64-1.94-2.59-.69-9.13-2.51-33-2.69-34a1.5,1.5,0,0,0-1.18-1.13c-1-.15-2.31,1-3.5,3a.49.49,0,0,1-.48.25.54.54,0,0,1-.43-.34c-.1-.28-.21-5.5,2.9-8.53a8.08,8.08,0,0,1,7-2.27l8.11.44c4.53.24,9.34,4.14,9.79,11.11s-6.38,12.55-6.68,12.78a.41.41,0,0,1-.11.07l0,18.55a3.33,3.33,0,0,1-.67,2.13,1.37,1.37,0,0,1-1,.42c-1.37,0-1.62-1.37-2-3.26q-.12-.7-.3-1.56c-.14-.67-.34-1.93-.58-3.52-.51-3.27-1.66-10.72-2.57-12-.75,1.47-1.48,9.94-1.76,17.74C31.25,59.52,30.79,61.14,29.43,61.14Zm-6-38.69.32,0a2.49,2.49,0,0,1,2,1.88c.21.85,2.46,30.73,2.72,34.13,0,0,.12,1.64,1,1.66h0c.66,0,.88-1.3.9-1.66.45-12.36,1.34-18.69,2.66-18.79s2.07,2.67,3.65,12.92c.24,1.52.44,2.83.58,3.48s.22,1.11.3,1.58c.33,1.77.49,2.44,1,2.44a.38.38,0,0,0,.29-.12,2.41,2.41,0,0,0,.38-1.42l-.06-35a.51.51,0,0,1,.34-.48.49.49,0,0,1,.56.18,23,23,0,0,1,2.84,5c.86,2.45-.26,7.41-1.69,9.18a5.39,5.39,0,0,0-.5.75c1.87-1.82,5.59-6.08,5.27-11-.41-6.39-4.76-9.95-8.84-10.17l-8.15-.45h-.07a7.07,7.07,0,0,0-6.09,2,10.14,10.14,0,0,0-2.56,5.89C21.45,22.88,22.57,22.45,23.4,22.45ZM40.1,25.2l0,12c.08-.11.16-.22.26-.34,1.24-1.54,2.25-6.13,1.52-8.22A17.4,17.4,0,0,0,40.1,25.2Z"/></g></g></svg>