<svg xmlns="http://www.w3.org/2000/svg" viewBox="0 0 31.06 70.95"><defs><style>.cls-1{fill:#ffc629;}.cls-2{fill:none;stroke:#000;stroke-linecap:round;stroke-miterlimit:10;stroke-width:0.78px;}</style></defs><title>Asset 4</title><g id="Layer_2" data-name="Layer 2"><g id="Layer_1-2" data-name="Layer 1"><path class="cls-1" d="M18.24,65.47,18,66.92a.23.23,0,0,1-.23.2,16,16,0,0,1-2.32.26,16.68,16.68,0,0,1-2.35-.26.22.22,0,0,1-.21-.18l-.2-1.46c-5.52.18-9.64.87-9.64,1.7s5.57,1.76,12.44,1.76S28,68.15,28,67.18,23.8,65.65,18.24,65.47Z"/><path d="M15.49,67.77a16.67,16.67,0,0,1-2.42-.27h0a.58.58,0,0,1-.51-.51L10.8,54.45,0,1.91.32,1.8C.52,1.72,5.32,0,15,0A59.36,59.36,0,0,1,30.71,1.79l.35.1L31,2.24,20.09,54.48,18.43,67a.63.63,0,0,1-.62.54A15.42,15.42,0,0,1,15.49,67.77Zm-2.19-1a15.34,15.34,0,0,0,2.19.24,15.3,15.3,0,0,0,2.18-.24L19.4,54,30.14,2.44A61.89,61.89,0,0,0,15,.78C6.85.78,2.12,2.05.9,2.43L11.5,54h0l.05.34Zm4.36.12Zm.08-.13h0Zm-4.6,0h0Z"/><path d="M15.8,54.54A16.71,16.71,0,0,1,11,53.35a.39.39,0,1,1,.29-.73,16,16,0,0,0,4.51,1.14,13.23,13.23,0,0,0,4-.91.39.39,0,0,1,.51.21.39.39,0,0,1-.22.51A13.88,13.88,0,0,1,15.8,54.54Z"/><path class="cls-2" d="M18.23,65.5,18,66.92a.17.17,0,0,1-.07.14.25.25,0,0,1-.16.06,18.32,18.32,0,0,1-2,.25h-.36a16.68,16.68,0,0,1-2.35-.26.19.19,0,0,1-.13-.05.22.22,0,0,1-.08-.13l-.19-1.43C6.14,65.76,1.2,66.78,1.2,68c0,1.41,6.52,2.55,14.57,2.55S30.35,69.42,30.35,68,25.11,65.7,18.23,65.5Z"/><path d="M15.14,5.44c-2.27,0-13.58-.1-13.58-1.95S12.87,1.55,15.14,1.55s13.58.1,13.58,1.94S17.41,5.44,15.14,5.44ZM2.44,3.49C3.32,4,7.9,4.66,15.14,4.66S27,4,27.85,3.49C27,3,22.38,2.33,15.14,2.33S3.32,3,2.44,3.49ZM28,3.59h0Z"/><path class="cls-1" d="M26.33,12.52C24.92,15.24,22,20.73,21.09,22c-4.29,5.74-8.3-1-1.3-4.8,8.59-4.63.65-8.22.65-8.22S5,10,3.09,8.79l8.7,41.92s0,1.86,3.4,1.86,3.71-1.78,3.71-1.78l7.87-38.11A.24.24,0,0,0,26.33,12.52ZM5.28,14a.5.5,0,0,1-.5-.5.5.5,0,0,1,1,0A.5.5,0,0,1,5.28,14Zm.83-3.2a.5.5,0,0,1,.5-.5.51.51,0,0,1,.5.5.5.5,0,0,1-.5.5A.5.5,0,0,1,6.11,10.81Zm1.24,5.41a.5.5,0,0,1-.5-.5.5.5,0,0,1,.5-.5.5.5,0,0,1,.5.5A.51.51,0,0,1,7.35,16.22Zm9.53,26.7a.5.5,0,0,1,.5.5.51.51,0,0,1-.5.5.5.5,0,0,1-.5-.5A.5.5,0,0,1,16.88,42.92ZM16,46.38a.5.5,0,0,1-.5.5.5.5,0,0,1,0-1A.5.5,0,0,1,16,46.38ZM14.84,20.29a.5.5,0,0,1-.5-.5.5.5,0,0,1,.5-.5.51.51,0,0,1,.5.5A.5.5,0,0,1,14.84,20.29Zm1-2.41a.5.5,0,0,1-.5-.5.51.51,0,0,1,.5-.5.5.5,0,0,1,.5.5A.5.5,0,0,1,15.83,17.88Zm4.36-7.34a.5.5,0,0,1,.5.5.51.51,0,0,1-.5.5.5.5,0,0,1-.5-.5A.5.5,0,0,1,20.19,10.54ZM17.58,12.2a.5.5,0,1,1-.5.5A.5.5,0,0,1,17.58,12.2ZM17,15a.5.5,0,1,1-.5.5A.5.5,0,0,1,17,15Zm-1-4.53a.5.5,0,1,1,0,1,.5.5,0,0,1,0-1Zm-.72,2.31a.51.51,0,0,1,.5.5.5.5,0,0,1-.5.5.5.5,0,0,1-.5-.5A.5.5,0,0,1,15.2,12.75ZM14.74,15a.5.5,0,0,1,.5.5.5.5,0,0,1-.5.5.5.5,0,0,1-.5-.5A.51.51,0,0,1,14.74,15Zm-.41,7.46a.5.5,0,1,1-.5-.5A.5.5,0,0,1,14.33,22.47Zm-.47-4a.5.5,0,0,1-.5.5.5.5,0,0,1,0-1A.5.5,0,0,1,13.86,18.48Zm-.54,1.71a.5.5,0,0,1-.5.5.5.5,0,0,1-.5-.5.51.51,0,0,1,.5-.5A.5.5,0,0,1,13.32,20.19Zm-.78-10a.51.51,0,0,1,.5.5.5.5,0,0,1-.5.5.5.5,0,0,1-.5-.5A.5.5,0,0,1,12.54,10.2Zm-.08,5.92a.5.5,0,0,1,.5.5.5.5,0,0,1-.5.5.51.51,0,0,1-.5-.5A.5.5,0,0,1,12.46,16.12Zm-.59-1.37a.5.5,0,0,1-.5.5.5.5,0,1,1,0-1A.5.5,0,0,1,11.87,14.75Zm-1-2.44a.5.5,0,0,1,0,1,.5.5,0,0,1,0-1ZM9.49,17.72a.5.5,0,0,1,.5-.5.5.5,0,0,1,.5.5.51.51,0,0,1-.5.5A.5.5,0,0,1,9.49,17.72Zm1,4.49a.5.5,0,0,1-.5-.5.5.5,0,0,1,.5-.5.5.5,0,0,1,.5.5A.51.51,0,0,1,10.46,22.21ZM10.85,20a.5.5,0,0,1,.5-.5.5.5,0,1,1,0,1A.5.5,0,0,1,10.85,20Zm.77,25.66a.5.5,0,0,1,1,0,.5.5,0,0,1-1,0Zm1,4.49a.51.51,0,0,1-.5-.5.5.5,0,0,1,.5-.5.5.5,0,0,1,.5.5A.5.5,0,0,1,12.59,50.11Zm.89-1.75a.5.5,0,1,1,.5-.5A.5.5,0,0,1,13.48,48.36Zm0-5.21a.5.5,0,1,1,0-1,.5.5,0,0,1,0,1Zm.59,1.37a.5.5,0,0,1,.5-.5.5.5,0,0,1,.5.5.51.51,0,0,1-.5.5A.5.5,0,0,1,14.1,44.52ZM15,48.59a.5.5,0,0,1-.5-.5.5.5,0,0,1,.5-.5.51.51,0,0,1,.5.5A.5.5,0,0,1,15,48.59Zm1,2.28a.5.5,0,0,1-.5-.5.51.51,0,0,1,.5-.5.5.5,0,0,1,.5.5A.5.5,0,0,1,16,50.87Zm1-2.68a.5.5,0,0,1-.5-.5.5.5,0,0,1,1,0A.5.5,0,0,1,17,48.19Zm1-2.41a.5.5,0,0,1-.5-.5.5.5,0,0,1,.5-.5.51.51,0,0,1,.5.5A.5.5,0,0,1,18,45.78Z"/></g></g></svg>