<svg xmlns="http://www.w3.org/2000/svg" viewBox="0 0 46.99 61"><defs><style>.cls-1{fill:#ffc629;}.cls-2{fill:#231f20;}</style></defs><title>Asset 6</title><g id="Layer_2" data-name="Layer 2"><g id="Layer_1-2" data-name="Layer 1"><path class="cls-1" d="M3,20a1.93,1.93,0,0,1,1.65-2A151.48,151.48,0,0,1,25,16.26c7.16,0,13.3.51,16.21.81a1.93,1.93,0,0,1,1.73,2L42,46.87a2,2,0,0,1-1.47,1.82c-2.33.58-7.73,1.57-17.57,1.57s-15.24-1-17.58-1.58a1.93,1.93,0,0,1-1.47-1.81Z"/><path class="cls-2" d="M23.49,8.28c-.89,0-21.85,0-21.85-3.23s21-3.24,21.85-3.24,21.85,0,21.85,3.24S24.38,8.28,23.49,8.28Zm0-5.47C10.82,2.81,3.11,4.16,2.63,5.09c.48.84,8.19,2.19,20.86,2.19C36,7.28,43.62,6,44.32,5.05,43.62,4.12,36,2.81,23.49,2.81ZM44.35,5.09h0Z"/><path class="cls-2" d="M24.61,61C17,61,1.12,59.92,1.12,56.58V51L0,6.12V3.71l.08-.12C.33,3.22,3,0,21.81,0c19,0,24.69,3.3,24.93,3.44l.25.14L45.86,52.1c0,.19,0,4.8-2.52,6S35.37,61,24.61,61ZM1,4.06V6.11L2.12,51v5.61C2.12,58,11.56,60,24.61,60c10.56,0,15.77-1.5,18.28-2.75,1.61-.81,2-4,2-5.16L46,4.17C44.69,3.56,38.31,1,21.81,1S1.6,3.54,1,4.06Z"/><path class="cls-2" d="M24.11,53.17C8,53.17,2.23,51.42,2,51.35a.5.5,0,1,1,.3-1c.06,0,5.94,1.78,21.82,1.78s20.58-1.75,20.63-1.76a.49.49,0,0,1,.64.28.5.5,0,0,1-.28.65C44.91,51.41,40.2,53.17,24.11,53.17Z"/><path class="cls-2" d="M28.76,43.37,24.1,37.54,23,25.35c0-.61.76-1.71,5.88-2.73,1.07-.21,2-.43,2.85-.62,3.48-.79,5.4-1.22,6.45.89,1.18,2.36,3.35,13.37,2.23,17.86l-.08.31Zm-3.69-6.22,4.09,5.12L39.5,40.2c.88-4.41-1.14-14.71-2.22-16.87C36.6,22,35.53,22.16,31.94,23c-.84.19-1.8.4-2.88.62-4,.81-4.91,1.6-5.06,1.78Z"/><path class="cls-2" d="M29,43.32a.51.51,0,0,1-.5-.5V34.18l-4.32-8.1a.5.5,0,0,1,.21-.67.51.51,0,0,1,.68.2l4.43,8.32v8.89A.5.5,0,0,1,29,43.32Z"/><path d="M29,35.11a.51.51,0,0,1-.49-.41.5.5,0,0,1,.4-.59,89.81,89.81,0,0,0,9.24-2.17.5.5,0,0,1,.32.95,91.59,91.59,0,0,1-9.38,2.21Z"/><path d="M15.21,46.27A5.57,5.57,0,0,1,13.48,46C10,44.88,6.75,37.31,6.61,37l-.11-.26.17-.23C6.8,36.32,10,32.08,11.09,31s7.18-3.18,7.86-3.41l.32-.1.22.25c2.91,3.32,7.78,9.06,7.78,10.18s-2.59,4.72-3.38,5.77l-.07.1-.11.05C23.48,43.93,18.74,46.27,15.21,46.27ZM7.64,36.86c1,2.25,3.74,7.41,6.15,8.22,2.83.94,8.53-1.71,9.37-2.11,1.51-2,3.11-4.52,3.11-5.08S22.48,32.66,19,28.62c-2.52.85-6.44,2.35-7.15,3.05C10.89,32.59,8.34,36,7.64,36.86Z"/><path d="M8.16,37.29a.5.5,0,0,1-.06-1l8.45-1.06L18.64,29a.5.5,0,0,1,.63-.31.5.5,0,0,1,.32.63L17.3,36.16,8.23,37.29Z"/><path d="M22.4,42.77a.51.51,0,0,1-.36-.15l-5.47-5.47a.5.5,0,0,1,0-.71.51.51,0,0,1,.71,0l5.47,5.48a.5.5,0,0,1-.35.85Z"/></g></g></svg>