<svg xmlns="http://www.w3.org/2000/svg" viewBox="0 0 44.68 60.97"><defs><style>.cls-1{fill:#ffc629;}</style></defs><title>Asset 13</title><g id="Layer_2" data-name="Layer 2"><g id="Layer_1-2" data-name="Layer 1"><ellipse class="cls-1" cx="22.68" cy="8.26" rx="14.36" ry="2.86"/><path class="cls-1" d="M39,11.4a8,8,0,0,0-1.8-3c-1,2-7.24,3.5-14.86,3.5S8.62,10.43,7.55,8.48a7.39,7.39,0,0,0-1.9,2.92A74,74,0,0,0,5.65,53,6.2,6.2,0,0,0,8.43,56.6a40.06,40.06,0,0,0,27.48.06A6.62,6.62,0,0,0,39,53,74,74,0,0,0,39,11.4Z"/><path d="M22.2,61A44.37,44.37,0,0,1,6.72,58.22a7.37,7.37,0,0,1-3.4-4.3,83.12,83.12,0,0,1,0-46.53A8.19,8.19,0,0,1,7,2.9C16.68-.94,28.79-1,37.87,2.81a8.31,8.31,0,0,1,3.49,4.57,83.12,83.12,0,0,1,0,46.53,7.88,7.88,0,0,1-3.73,4.36l0,0A45.32,45.32,0,0,1,22.2,61Zm.57-60A42.42,42.42,0,0,0,7.4,3.8,7.14,7.14,0,0,0,4.27,7.69a82.26,82.26,0,0,0,0,46,6.33,6.33,0,0,0,2.81,3.65,44.21,44.21,0,0,0,30.14.06,6.92,6.92,0,0,0,3.18-3.73,82.29,82.29,0,0,0,0-46,7.43,7.43,0,0,0-2.94-3.94A38.79,38.79,0,0,0,22.77,1ZM37.42,57.82h0Z"/><path d="M43.5,43.13a54.58,54.58,0,0,1-21.15,3.61A72.82,72.82,0,0,1,1.19,43.13a2.29,2.29,0,0,1,.32-.73c.12-.13.73.27,3.6,1.16a53.17,53.17,0,0,0,6.26,1.5,60.45,60.45,0,0,0,11.07.88A67.77,67.77,0,0,0,34.9,44.63c3.59-.75,6.24-1.62,7-1.76C43.3,42.63,43.18,42.12,43.5,43.13Z"/><path d="M42.93,46.31a51.36,51.36,0,0,1-20.66,3.44A73.68,73.68,0,0,1,1.67,46,2.41,2.41,0,0,1,2,45.23c.11-.12.71.27,3.5,1.16a53.78,53.78,0,0,0,6.09,1.54,57.38,57.38,0,0,0,10.79,1,62.51,62.51,0,0,0,12.16-1.19C38,47,40.61,46.17,41.33,46,42.73,45.81,42.6,45.3,42.93,46.31Z"/><path d="M42.54,48.91A51.89,51.89,0,0,1,22.3,52.52,69.12,69.12,0,0,1,2.05,48.91a2.41,2.41,0,0,1,.32-.74c.11-.11.7.26,3.44,1.14a51.3,51.3,0,0,0,6,1.5,54.36,54.36,0,0,0,10.6.91A61,61,0,0,0,34.3,50.38c3.43-.76,6-1.62,6.67-1.75C42.34,48.41,42.21,47.9,42.54,48.91Z"/><path d="M42.44,15.87a52.09,52.09,0,0,1-20.28,3.61,69.39,69.39,0,0,1-20.3-3.61,2.41,2.41,0,0,1,.32-.74c.11-.12.7.27,3.45,1.14a51,51,0,0,0,6,1.5,54.59,54.59,0,0,0,10.62.91,61.48,61.48,0,0,0,12-1.34c3.44-.76,6-1.62,6.68-1.75C42.24,15.37,42.12,14.86,42.44,15.87Z"/><path d="M42.93,18.76A51.36,51.36,0,0,1,22.27,22.2a73.68,73.68,0,0,1-20.6-3.78A2.41,2.41,0,0,1,2,17.68c.11-.12.71.27,3.5,1.16a53.78,53.78,0,0,0,6.09,1.54,57.38,57.38,0,0,0,10.79,1,62.51,62.51,0,0,0,12.16-1.19c3.5-.73,6.08-1.59,6.8-1.72C42.73,18.26,42.6,17.75,42.93,18.76Z"/><path d="M43.89,21.55A55.25,55.25,0,0,1,22.5,25.16a73.8,73.8,0,0,1-21.41-3.6,2.41,2.41,0,0,1,.32-.74c.12-.12.74.28,3.64,1.17a54.3,54.3,0,0,0,6.34,1.5,61,61,0,0,0,11.19.87,69.31,69.31,0,0,0,12.61-1.3c3.64-.74,6.31-1.62,7.06-1.76C43.69,21.06,43.57,20.54,43.89,21.55Z"/><path d="M10.12,59.28a3.06,3.06,0,0,1-.51-.78,5.48,5.48,0,0,1-.32-.77,15.57,15.57,0,0,1-.44-1.54c-.26-1-.43-2-.6-3.08-.33-2.06-.56-4.12-.74-6.19-.37-4.13-.56-8.27-.63-12.41s0-8.29.31-12.43c.16-2.07.36-4.14.69-6.2a22.69,22.69,0,0,1,1.71-6.1,2.25,2.25,0,0,1,.68.44,31.45,31.45,0,0,0-1.39,4.09c-.79,3.37-1.59,9.54-1.19,20.27.19,5,.57,10.33,1,14.57A80,80,0,0,0,10,57.37a2.87,2.87,0,0,0,.51,1.29C10.6,58.83,10.52,58.94,10.12,59.28Z"/><path d="M16.19,59.94a198.78,198.78,0,0,1-1.78-24.26,118,118,0,0,1,.51-12.18,63.41,63.41,0,0,1,2.26-12,2.18,2.18,0,0,1,.74.32c0,.06,0,.27-.21.88-.1.3-.24.7-.41,1.22s-.32,1.2-.54,2c-.79,3.3-1.85,9.31-1.55,19.83.27,9.83,1.62,20.76,1.57,22.48S17.25,59.89,16.19,59.94Z"/><path d="M26.22,60l.45-1.41L27,57.09c.22-1,.32-2,.49-3l.35-3L28.08,48c.28-4.1.39-8.21.39-12.32s-.15-8.22-.51-12.31a49.28,49.28,0,0,0-2.23-12,2.1,2.1,0,0,1,.76-.22c.08,0,.15.24.33.88.09.32.22.74.36,1.3s.24,1.26.41,2.12a145.76,145.76,0,0,1,1.68,20.29,129.85,129.85,0,0,1-.39,14.63,36.58,36.58,0,0,1-1.42,8.33C26.71,60.2,27.17,60.46,26.22,60Z"/><path d="M34.24,58.8c2-8,3.85-16.14,4-24.39a67.3,67.3,0,0,0-4.05-24.24A2.17,2.17,0,0,1,35,10c.13,0,.33.87,1.24,4.25.44,1.71,1.07,4,1.65,7.34a71.88,71.88,0,0,1,1.18,12.93,77.55,77.55,0,0,1-1.59,14.67,64.86,64.86,0,0,1-2.07,8.21C34.76,58.93,35.25,59.15,34.24,58.8Z"/><path d="M22.46,11.91c-7.76,0-16-1.75-16-5s8.24-5,16-5,16,1.75,16,5S30.21,11.91,22.46,11.91Zm0-9c-8.84,0-15,2.1-15,4s6.16,4,15,4,15-2.1,15-4S31.3,2.94,22.46,2.94Z"/></g></g></svg>