<svg xmlns="http://www.w3.org/2000/svg" viewBox="0 0 21.2 78.97"><defs><style>.cls-1{fill:#ffc629;}</style></defs><title>Asset 7</title><g id="Layer_2" data-name="Layer 2"><g id="Layer_1-2" data-name="Layer 1"><path d="M10.6,79H9.81a23.15,23.15,0,0,1-6.3-.81,2.72,2.72,0,0,1-2.06-2.49l0-10.37L0,27.52a28.34,28.34,0,0,1,.1-3.79c.21-1.32,1.73-3.17,3.37-4.12a6.75,6.75,0,0,0,2.56-3,16.75,16.75,0,0,0,.33-3.24l0-11.8A1.1,1.1,0,0,1,7.1.4,13.08,13.08,0,0,1,10.38,0c.94,0,1.93.11,2.72.19l.37,0a1.44,1.44,0,0,1,1.31,1.46l.05,11.66L15,16.27h0A6.39,6.39,0,0,0,16.7,19c.36.34.75.68,1.15,1,1.28,1.12,2.6,2.28,3,3.4a12.34,12.34,0,0,1,.21,4.38l-1.7,37.3c0,.39.05,10.14,0,11.11-.06,1.28-1.69,2.14-3.17,2.39A37,37,0,0,1,10.6,79ZM10.38,1a12,12,0,0,0-2.91.34s-.09,0-.07.16v.08l0,11.85A18.14,18.14,0,0,1,7,17a7.8,7.8,0,0,1-3,3.46,6.48,6.48,0,0,0-2.9,3.44A28,28,0,0,0,1,27.48l1.38,37.8.05,10.39a1.72,1.72,0,0,0,1.35,1.56A22.23,22.23,0,0,0,9.83,78a37.57,37.57,0,0,0,6.22-.36c1.28-.22,2.34-.88,2.37-1.48,0-.94,0-11,0-11.08l1.7-37.36a11.41,11.41,0,0,0-.15-4,10.5,10.5,0,0,0-2.76-3C16.8,20.39,16.4,20,16,19.7a7,7,0,0,1-2-3.3l-.2-3,0-11.69a.48.48,0,0,0-.44-.49l-.37,0A24.45,24.45,0,0,0,10.38,1Z"/><path class="cls-1" d="M3.8,75V65.12a.32.32,0,0,1,.36-.33c.85.07,3.15.25,6.11.25a60.37,60.37,0,0,0,6.59-.38.32.32,0,0,1,.36.33l-.17,10a.32.32,0,0,1-.24.31,24.61,24.61,0,0,1-6.48,1.06,22.92,22.92,0,0,1-6.3-1A.33.33,0,0,1,3.8,75Z"/><path class="cls-1" d="M2.09,31.82a2.32,2.32,0,0,0,2.42,2.25c1.56-.07,3.69-.14,5.81-.14s4.55.06,6.23.11a2.32,2.32,0,0,0,2.39-2.25L19.09,27s.06-.59-.22-.59a.43.43,0,0,1-.39-.27.78.78,0,0,0,.16-.66,5.73,5.73,0,0,0-2.47-3.08,9.29,9.29,0,0,0-3.63-1.42,16.34,16.34,0,0,1,1.89-.63c.84-.19.61-.52.42-.52s-3,.13-4.3.13-4-.37-4-.37-.64,0-.1.3a7.56,7.56,0,0,0,1.74.89c.45,0-.19.3-.48.37a7.26,7.26,0,0,0-3.5,1.62C2.9,23.94,2.1,25.36,2.32,25.56s.48.8.19.8a1.62,1.62,0,0,0-.57.13Z"/><path d="M10.34,63.09c-3.74,0-6.25-.23-6.28-.24l-.39,0L2.45,36.12l.45,0s3.68-.23,7.59-.23,7.65.08,7.69.08h.46L17.42,62.79l-.39,0S14.08,63.09,10.34,63.09ZM4.54,62c.83.07,3,.2,5.8.2s5.3-.16,6.21-.22l1.14-25.12c-1.12,0-4.11-.08-7.2-.08s-6,.14-7.09.2Z"/><path d="M6.91,16.71l-.6-.77c.43-.4,2.24-.48,3.68-.48,3.8,0,4.48.06,4.83.4l-.68.7A31.52,31.52,0,0,0,10,16.43C7.46,16.43,6.93,16.69,6.91,16.71Z"/><path d="M10.79,27.88a.74.74,0,0,1-.75-.49,12.75,12.75,0,0,0-.94-1.72,18.71,18.71,0,0,0-1.59-1.9A.77.77,0,0,1,7.18,23a.66.66,0,0,1,.39-.47,8.49,8.49,0,0,1,3.11-.33,8.24,8.24,0,0,1,3.42.47l.12.09a.76.76,0,0,1,.22.57.62.62,0,0,1-.27.46c-.14.12-1.07,1.17-1.59,1.85a14.39,14.39,0,0,0-1.06,1.83h0A.72.72,0,0,1,10.79,27.88ZM8.44,23.33c.48.51,1.14,1.35,1.45,1.77a11.86,11.86,0,0,1,.92,1.63,12.68,12.68,0,0,1,1-1.66c.3-.38.95-1.16,1.39-1.65a11.45,11.45,0,0,0-2.51-.22A13.72,13.72,0,0,0,8.44,23.33ZM8,23.45H8Z"/></g></g></svg>