<svg xmlns="http://www.w3.org/2000/svg" viewBox="0 0 70 34.98"><defs><style>.cls-1{fill:#ffc629;}.cls-2{fill:#fff;}</style></defs><title>Asset 9</title><g id="Layer_2" data-name="Layer 2"><g id="Layer_1-2" data-name="Layer 1"><path class="cls-1" d="M18.35,13.9s1.34-3.9,3.31-4.43c3.25-.86,4.6.12,4.6.12s-4,1.51-4.71,3.84-1.34,4,.35,8.15,7.27,6,7.27,6l6,2.74s-4.3,1.63-8.09.29-9.51-6.44-10.08-10.82S18.35,13.9,18.35,13.9Z"/><path class="cls-1" d="M43.78,13.66S40.52,16.92,45.87,24s15.68,7.76,15.68,7.76-7.14-2.37-8.38-4c-1.5-2,1.32-2.33,1.32-2.33a11.85,11.85,0,0,1-5.28-4.46c-1.47-2.25-1.55-4-1.71-7.52A4.13,4.13,0,0,1,43.78,13.66Z"/><path class="cls-1" d="M26.94,9.74s-.23-.27,1.24.51l1.48.77s-3,2.64-2.8,6.06a8.44,8.44,0,0,0,4.73,7.25c3.88,2.13,4.93,1.94,4.93,1.94s-5.16.12-5.39,0a11.89,11.89,0,0,1-8.3-7.91C21.28,13.78,26,10.43,26.94,9.74Z"/><path class="cls-1" d="M31.59,12.67S28,15.76,29.73,20s7.65,5.74,10.71,7.29,9.78,3.1,9.78,3.1-7.72-5.66-9.12-9.62-.1-5.57-.1-5.57a10.24,10.24,0,0,1-5.06,0A21.09,21.09,0,0,1,31.59,12.67Z"/><path d="M68.24,26.81a16.46,16.46,0,0,1-8.33-2.53c-3.28-2.12-5.27-5.12-5.28-9.08a7.8,7.8,0,0,1,2.44-6c1-.88,1.23-.84,2.19.1a15.64,15.64,0,0,0,1.88,1.57,3,3,0,0,0,3.21.18c1.09-.61,1.1-1.64.68-2.67,1.42-.81,1.58-1.32,1.12-2.89-.94-3.24-3.36-4.6-6.46-5a19.21,19.21,0,0,0-7.64.71A3.3,3.3,0,0,1,50.11,1a15.71,15.71,0,0,0-6.35-1,14.62,14.62,0,0,0-8.13,2.43,1.3,1.3,0,0,1-.87.15A19,19,0,0,0,25,3.52c-5.66,1.83-9.54,5.75-12.46,10.76-.23.39-.42.81-.62,1.22,1-1.19,1.93-2.35,2.83-3.57A21,21,0,0,1,28.07,3.57a33.07,33.07,0,0,1,5.64-.38,3.37,3.37,0,0,1,3,2.29,1.78,1.78,0,0,1-2.16,2.3,10.84,10.84,0,0,1-1.46-.48c-.45-.19-.89-.44-1.48-.75,1.16,1.6,3.49,2.19,4.76,1.34s1.26-2.12-.6-5A33.45,33.45,0,0,1,40,1.15,13.9,13.9,0,0,1,51.59,2.79a4,4,0,0,1,1,.85c.39.52.78,1.13.2,1.77a1.32,1.32,0,0,1-1.76.24,4.94,4.94,0,0,0-3.21-.55c1.07.41,2.18.74,3.21,1.25a3.65,3.65,0,0,1,2.08,3.08,1.63,1.63,0,0,1-1.52,1.93,3,3,0,0,1-2.87-.67,1.34,1.34,0,0,1-.32-.5,5.26,5.26,0,0,0-4.28-3.9A1.71,1.71,0,0,1,42.76,5a3.45,3.45,0,0,0-2.46-2.3,2,2,0,0,0,.28.5A7.67,7.67,0,0,1,42,4.65a2.57,2.57,0,0,1,.36,2,2.3,2.3,0,0,1-1.79.89A10.42,10.42,0,0,1,38,6.89a3.28,3.28,0,0,0,4.55.4A1.89,1.89,0,0,1,43.78,7c2.11.34,4,2.38,4,4.23A2.53,2.53,0,0,1,46,13.56a2.4,2.4,0,0,1-2.61-.7c-.24-.22-.26-.72-.3-1.1-.07-.66,0-1.35-.56-1.81l-.29.1a2.45,2.45,0,0,0,0,.66c.54,2.46-1.14,3.62-3.18,4a6.59,6.59,0,0,1-4.85-1.28c-1.92-1.22-3.75-2.62-5.76-3.66a8.37,8.37,0,0,0-7.8-.34,3.13,3.13,0,0,0-1,.82C23.1,8.43,26.33,9,29.38,11a20.34,20.34,0,0,0-2.06,3.07c-1.73,3.91-.06,7.24,3.05,9.59a8.44,8.44,0,0,0,1.22.67l.08-.08a27,27,0,0,1-2.14-1.85c-3.18-3.29-2.93-7.23.32-10.4.2-.19.75,0,1.18.11a6.94,6.94,0,0,0-1.36,7.69c-.6-2.68-.25-5.09,1.92-7.13,2.8,2.14,5.7,3.91,9.41,2.48a29.77,29.77,0,0,0,.59,3.8,14.29,14.29,0,0,0,1.65,3.38c-1.25-3-2.42-6-.55-9.33,1.5,1.57,3,1.75,4.81.4-.47,5.74,1.79,9.74,7,12-5.39-3-7.5-7.45-5.87-13.63a3.9,3.9,0,0,0,3.89.26A2.27,2.27,0,0,0,54,9.77c-.08-2.45,1.31-3.27,3.42-2.14a14.72,14.72,0,0,0-2.18,2.44A10.82,10.82,0,0,0,57.31,23a15.7,15.7,0,0,0,9,4.09c1.21.17,2.44.25,3.66.38l.06-.4A17.74,17.74,0,0,0,68.24,26.81Zm-14.81-19-.92-1.28c.9-.66,1.76-1.39,1.33-2.41A11.28,11.28,0,0,0,52,1.78c.89-.19,1.75-.36,2.6-.56A11.83,11.83,0,0,1,62.68,2a5,5,0,0,1,3,4.29c.09,1.13-.28,1.38-1.33,1-.24-.1-.5-.16-.75-.24l-.15.23a2.77,2.77,0,0,1,.52.79,4,4,0,0,1,.26,2,1.29,1.29,0,0,1-1.82.66,23.81,23.81,0,0,1-3-2.08,15,15,0,0,0-2-1.67A3.17,3.17,0,0,0,53.43,7.84Z"/><path d="M11.82,15.62l0-.12-.08.1Z"/><path d="M60.08,34.82c-.57-.11-1-.19-1.35-.25-3.32-.51-6.66-.88-9.94-1.56-4.52-.94-9-2-13.48-3.21-3.87-1.08-7.67-2.46-10.68-5.35A3.93,3.93,0,0,0,24,23.9c-.07.07-.25.44-.32.5a7.65,7.65,0,0,0,.88.83,17.92,17.92,0,0,0,7.06,4c4.35,1.34,8.73,2.6,13.15,3.63A81.88,81.88,0,0,0,59.69,35C59.75,35,59.81,34.93,60.08,34.82Z"/><path d="M21,18.42a9.4,9.4,0,0,1,4.86-8.55C22.63,9.81,19.41,15.51,21,18.42Z"/><path d="M11.82,15.62l-1.56,1.69a11.91,11.91,0,0,1-9,3.89A3,3,0,0,0,0,21.38a3.69,3.69,0,0,0,.56.11c3.36.2,6.5-.44,9-2.79a17.84,17.84,0,0,0,2.2-3.1Z"/><path d="M16.86,18.06,19,12.36C18,12.65,16.55,16.28,16.86,18.06Z"/><path d="M21.07,19a5.81,5.81,0,0,0,2,4.53l.25-.12A17.43,17.43,0,0,1,21.07,19Z"/><path d="M24.14,29.53l4.52,2.79.16-.24a30.8,30.8,0,0,0-4.45-2.84Z"/><path d="M31.59,24.33a9.93,9.93,0,0,0,4.93,2l-4.85-2.08Z"/><path d="M16.61,19.5c.13.94.4,2.54.53,3.47.13,0,.17-.39.3-.4l-.39-2.79C16.92,19.79,16.74,19.49,16.61,19.5Z"/><path class="cls-2" d="M60,13.52l1,.93.4-.15c0-.33.19-.82,0-1A2.91,2.91,0,0,0,60.33,13Z"/></g></g></svg>