<svg xmlns="http://www.w3.org/2000/svg" viewBox="0 0 65.74 61.14"><defs><style>.cls-1{fill:#fff;}.cls-2{fill:#ffc629;}</style></defs><title>Asset 5</title><g id="Layer_2" data-name="Layer 2"><g id="Layer_1-2" data-name="Layer 1"><path class="cls-1" d="M32.11,8S44.25-4.44,57,3.82,66.8,29.2,54.66,40.41c-9.7,9-23.13,20.07-23.13,20.07l-22-20.07c-11-10-12.72-27.15-1.16-36.59S32.11,8,32.11,8Z"/><path d="M31.52,61.14,9.23,40.78A27.75,27.75,0,0,1,0,20,21.8,21.8,0,0,1,8.09,3.43C18.77-5.29,30,5.1,32.13,7.25c2.17-2,13.45-11.42,25.11-3.85a17.82,17.82,0,0,1,8.42,13.81c.68,8-3.31,16.78-10.66,23.57-9.6,8.87-23,20-23.15,20.09ZM17.26,1A13.23,13.23,0,0,0,8.73,4.21,20.77,20.77,0,0,0,1,20,26.74,26.74,0,0,0,9.9,40L31.55,59.82c2.14-1.78,14-11.71,22.77-19.77,7.13-6.59,11-15.1,10.35-22.75a16.88,16.88,0,0,0-8-13.06C44.47-3.7,32.59,8.18,32.47,8.3l-.37.38-.36-.39a27.1,27.1,0,0,0-7.39-5.51A16.07,16.07,0,0,0,17.26,1Z"/><path class="cls-1" d="M32.16,9.45S43.49-2.11,55.36,5.6s9.17,23.69-2.16,34.15c-9.05,8.36-21.58,18.73-21.58,18.73L11.12,39.75C.87,30.39-.75,14.41,10,5.6S32.16,9.45,32.16,9.45Z"/><path d="M31.61,59.14l-20.83-19A25.92,25.92,0,0,1,2.17,20.65,20.4,20.4,0,0,1,9.72,5.21c10-8.13,20.42,1.48,22.46,3.54C34.27,6.84,44.77-1.87,55.64,5.18a16.67,16.67,0,0,1,7.87,12.91c.63,7.45-3.09,15.68-10,22-9,8.28-21.47,18.64-21.6,18.75ZM18.3,3a12.33,12.33,0,0,0-7.94,3A19.35,19.35,0,0,0,3.17,20.68a24.9,24.9,0,0,0,8.29,18.7L31.64,57.82c2-1.71,13.11-10.94,21.23-18.44,6.64-6.14,10.25-14.06,9.64-21.2A15.7,15.7,0,0,0,55.09,6C43.71-1.38,32.63,9.69,32.52,9.81l-.37.38-.36-.4A25.33,25.33,0,0,0,24.9,4.66,14.9,14.9,0,0,0,18.3,3Z"/><path class="cls-2" d="M30.23,11.37a4,4,0,0,0,4.64.1C38.31,9.12,45.06,5.89,52,10.24c10,6.22,7.72,19.12-1.82,27.57-5.28,4.68-12,10.13-15.57,13a4,4,0,0,1-5.11-.11L14.77,37.81c-8.63-7.56-10-20.46-.91-27.57C20.25,5.23,26.87,8.8,30.23,11.37Z"/></g></g></svg>