<svg xmlns="http://www.w3.org/2000/svg" viewBox="0 0 72.01 31.14"><defs><style>.cls-1{fill:#ffc629;}</style></defs><title>Asset 11</title><g id="Layer_2" data-name="Layer 2"><g id="Layer_1-2" data-name="Layer 1"><path class="cls-1" d="M50.8,18.54s-.31,3.75-1.58,5.66c-1.15,1.72-4.45,2.54-8,2.42s-5.61-.5-7.08-2.33a14.83,14.83,0,0,1-3.64-9.21s-.05-2.92,1.53-4.22A7.4,7.4,0,0,1,33.48,10c1.47,1.38,2,2.19,2.37,2.36a1.16,1.16,0,0,0,1.45-.54s-1-1-2.55-2.3A20.21,20.21,0,0,1,41.54,9c5.66.34,7.07.36,8.4,2.64C51,13.36,50.8,18.54,50.8,18.54Z"/><path class="cls-1" d="M20.61,14.22c-.4,2.9-1.82,8.3-3.83,9.26s-6.25-.19-9.1-2.82c-3.19-2.95-3.14-6.55-3.44-10a22.79,22.79,0,0,1,.15-5.7,30.47,30.47,0,0,1,10,2.26C19.62,9.36,21,11.32,20.61,14.22Z"/><path d="M18.81,1a26.79,26.79,0,0,1,4.71.3c2.11.44,5.64,3,8.57,5.45a24,24,0,0,1,7.76-1.23c.83,0,1.7,0,2.62.12,8.2.73,12.17,1.86,13.36,2.25h.11c2.23,0,10.41-1.94,12.88-2.25a6.88,6.88,0,0,1,.84-.06c1.73,0,1.3,1,1.3,1L67.86,14s-.88,2.38-1.5,2.38l-.08,0c-.62-.22-.14-1-.14-1l2.22-6.53S64,10.71,62.12,11.27a28.35,28.35,0,0,1-5.61.69,3.53,3.53,0,0,0-.69.1,1.31,1.31,0,0,0-1,1.38c0,1-.83,9.41-2,12.24-1.1,2.65-4.95,4.46-10.27,4.46-.67,0-1.37,0-2.09-.09-6.66-.56-7.72-3-8.67-4.22s-5.58-9.75-5.58-9.75a7.45,7.45,0,0,0-1.76-1.18,1.7,1.7,0,0,0-.52-.1.82.82,0,0,0-.84.75c-.17.73-2.85,8.51-3.92,9.49a6.45,6.45,0,0,1-4.25,1.44,9.23,9.23,0,0,1-4.53-1.27c-4.11-2.31-7.21-5.41-8-10.87A40.25,40.25,0,0,1,2,6.74,3.78,3.78,0,0,0,1,5.56a6.4,6.4,0,0,1,.24-2.41c.34-.44-.09-1.67,2.89-1.67l.6,0c.64,0,1.24.07,1.81.12C7.84,1.51,14,1,18.81,1m0-1C14.06,0,8,.5,6.56.62,6,.57,5.43.53,4.79.5l-.64,0c-2.73,0-3.39,1-3.7,2l0,.1a5.64,5.64,0,0,0-.39,3,1,1,0,0,0,.33.69A3.84,3.84,0,0,1,1,7c0,.09,0,.24,0,.37a34,34,0,0,0,.46,7.13c.74,5.14,3.36,8.71,8.49,11.6a10.18,10.18,0,0,0,5,1.4,7.49,7.49,0,0,0,4.92-1.7c1.4-1.27,4-9.2,4.21-10l.09,0a6.13,6.13,0,0,1,1.28.87c.77,1.41,4.64,8.51,5.57,9.72q.13.16.27.36c1,1.39,2.64,3.7,9.11,4.24.74.07,1.47.1,2.18.1,5.61,0,9.89-1.95,11.19-5.07s2.08-11.65,2.08-12.63c0-.29,0-.33.28-.42a1.94,1.94,0,0,1,.4-.06,29.38,29.38,0,0,0,5.9-.73c1.06-.32,2.88-1,4.3-1.59L65.22,15A1.83,1.83,0,0,0,65,16.44a1.42,1.42,0,0,0,.9.89,1.25,1.25,0,0,0,.42.08c.36,0,1.32,0,2.44-3l3.08-7.46a1.57,1.57,0,0,0-.12-1.47,2.31,2.31,0,0,0-2.1-.87,6.91,6.91,0,0,0-1,.07c-1,.12-2.82.49-4.92.91A68.57,68.57,0,0,1,56,6.89c-1.49-.47-5.53-1.54-13.43-2.25-.92-.08-1.83-.12-2.71-.12A25.3,25.3,0,0,0,32.3,5.63C28.44,2.49,25.56.7,23.72.32A27.36,27.36,0,0,0,18.81,0Z"/><path d="M4.23,4.79a35.22,35.22,0,0,1,10,2.43C20.05,9.63,21,11.54,20.65,14c-.55,4-2.26,9-3.73,9.71a3.62,3.62,0,0,1-1.58.3,12.28,12.28,0,0,1-7.56-3.33c-3-2.74-3.21-6-3.47-9.54,0-.4-.06-.8-.1-1.19a28.67,28.67,0,0,1,0-5.2m-1-1.23a25.73,25.73,0,0,0-.17,6.53c.34,4,.28,8.11,3.94,11.48a13.35,13.35,0,0,0,8.35,3.64,5,5,0,0,0,2.08-.4c2.3-1.1,3.93-7.29,4.38-10.61s-1.12-5.58-7.09-8A35.21,35.21,0,0,0,3.22,3.56Z"/><path d="M24.48,10.73a3.11,3.11,0,0,1-2.41-1.18A35.63,35.63,0,0,0,15.4,4.63a.57.57,0,0,1-.31-.5.58.58,0,0,1,.28-.52C18.43,1.8,23.76,2.44,24,2.47l.1,0a21.25,21.25,0,0,1,7,4.34.61.61,0,0,1,.2.54.58.58,0,0,1-.36.44,29.93,29.93,0,0,0-3.68,1.87,10.75,10.75,0,0,1-1.53.81h0A3.34,3.34,0,0,1,24.48,10.73Zm1-.78h0ZM17,4.16a38.64,38.64,0,0,1,6,4.58.27.27,0,0,1,.07.08,1.9,1.9,0,0,0,2.3.58h0a12.9,12.9,0,0,0,1.37-.72,30.87,30.87,0,0,1,2.94-1.56,18.67,18.67,0,0,0-5.8-3.5A17.8,17.8,0,0,0,17,4.16Z"/><path d="M39.59,9h0c.75,0,1.56,0,2.41.08l.54,0c6.36.37,7.22.5,8.38,2.49.73,1.26.91,5.22.85,7.45-.1,1.17-.59,4.46-1.66,6.06-1,1.42-3.93,2.34-7.61,2.34h-.75c-3.89-.13-6-.51-7.44-2.3a16.1,16.1,0,0,1-4-10.09c0-.81.22-3.09,1.37-4a7.55,7.55,0,0,1,.76-.54l.76.73a9.93,9.93,0,0,0,2.46,2.07,2.08,2.08,0,0,0,.82.17,1.69,1.69,0,0,0,1.25-.53,2.55,2.55,0,0,0,.54-1.82,1.16,1.16,0,0,0-.36-.76L36.63,9.14a24,24,0,0,1,3-.16m0-1.17a19.3,19.3,0,0,0-5.49.65c1.76,1.53,3,2.7,3,2.7s.08,1.1-.63,1.1a1,1,0,0,1-.38-.09A29.6,29.6,0,0,1,32.61,9a7.76,7.76,0,0,0-1.69,1.07c-1.85,1.52-1.8,4.95-1.8,4.95A17.39,17.39,0,0,0,33.4,25.85c1.73,2.15,4.17,2.59,8.31,2.73h.79c3.84,0,7.32-.95,8.58-2.85,1.49-2.23,1.86-6.64,1.86-6.64s.17-6.08-1-8.11c-1.57-2.68-3.21-2.7-9.86-3.1-.89,0-1.72-.08-2.48-.08Z"/><path d="M16.74,12.21a2.9,2.9,0,0,1-.31.34l-2.69,2c-.56.41-1.11.84-1.67,1.26-.11.08-.23.27-.38.1s0-.33.13-.44L14,13.89,16,12.32a1.67,1.67,0,0,1,.33-.21C16.46,12.09,16.57,12.16,16.74,12.21Z"/><path d="M12,12.86c-.06,0-.15-.09-.15-.14s0-.24.07-.29c.28-.26.57-.49.87-.72,1-.81,2.08-1.61,3.12-2.41.12-.09.25-.21.38,0s0,.27-.14.37l-4,3.09A1.4,1.4,0,0,1,12,12.86Z"/><path d="M16,16c-.06,0-.16-.09-.16-.13a.45.45,0,0,1,.1-.28c.32-.27.66-.53,1-.78.7-.53,1.4-1.06,2.11-1.58,0,0,.09-.1.15-.1a1.77,1.77,0,0,1,.32,0c0,.1,0,.24-.09.29-.38.3-.77.59-1.16.88l-2.09,1.56Z"/><path d="M47.37,13.67a2.25,2.25,0,0,1-.31.34c-.89.68-1.79,1.35-2.69,2L42.7,17.29c-.11.09-.23.27-.38.1s0-.32.13-.43l2.13-1.61,2.09-1.56a1.08,1.08,0,0,1,.33-.21C47.09,13.55,47.2,13.62,47.37,13.67Z"/><path d="M42.59,14.33c-.06-.06-.15-.1-.15-.15a.45.45,0,0,1,.07-.29q.42-.37.87-.72l3.12-2.41c.12-.09.25-.21.38,0s0,.26-.14.36l-4,3.1Z"/><path d="M46.67,17.48c-.06-.05-.16-.09-.16-.13a.46.46,0,0,1,.1-.29c.32-.27.66-.53,1-.78l2.11-1.58a.31.31,0,0,1,.15-.1l.32,0c0,.1,0,.23-.09.28-.38.31-.77.6-1.16.89l-2.09,1.55Z"/></g></g></svg>