<svg id="Layer_1" data-name="Layer 1" xmlns="http://www.w3.org/2000/svg" viewBox="0 0 70 70"><defs><style>.cls-1{fill:#cdc8a0;}.cls-2{fill:#faf2dc;}.cls-3{fill:#149646;}.cls-4{fill:#645014;}.cls-5{fill:#eb1e4b;}</style></defs><title>icon_xmas_07</title><path class="cls-1" d="M36.4,26V24c0-.14-.17-.26-.37-.26A8.42,8.42,0,0,0,34,23.57a10.59,10.59,0,0,0-2.09.15c-.2,0-.37.12-.37.26v2a10.3,10.3,0,1,0,4.88,0Z"/><path class="cls-2" d="M29,32c-1.23,1.41-1.72,5-3.22,3.58-.68-.65.41-3.75,1.73-5.07,1.93-1.94,3.37-2.29,4-1.73C32.58,29.7,30.48,30.24,29,32Z"/><path class="cls-3" d="M15.17,49.71v-2c0-.14-.17-.25-.37-.25a8.63,8.63,0,0,0-2.05-.16,9.69,9.69,0,0,0-2.09.16c-.21,0-.37.11-.37.25v2a10.29,10.29,0,1,0,4.88,0Z"/><path class="cls-2" d="M7.81,55.92c-1.23,1.4-1.72,5-3.23,3.57-.67-.65.42-3.75,1.73-5.07,1.94-1.93,3.38-2.28,4-1.72C11.43,53.65,9.33,54.19,7.81,55.92Z"/><path class="cls-4" d="M12.66,37.57A1.17,1.17,0,1,0,11.5,36.4,1.16,1.16,0,0,0,12.66,37.57Z"/><path class="cls-4" d="M12.66,33.68a1.17,1.17,0,1,0-1.16-1.16A1.16,1.16,0,0,0,12.66,33.68Z"/><path class="cls-4" d="M12.66,45.39a1.17,1.17,0,1,0-1.16-1.17A1.16,1.16,0,0,0,12.66,45.39Z"/><path class="cls-4" d="M12.66,41.49a1.16,1.16,0,1,0-1.16-1.16A1.16,1.16,0,0,0,12.66,41.49Z"/><path class="cls-4" d="M12.66,29.79a1.16,1.16,0,1,0-1.16-1.16A1.16,1.16,0,0,0,12.66,29.79Z"/><path class="cls-4" d="M12.66,25.9a1.16,1.16,0,1,0-1.16-1.15A1.16,1.16,0,0,0,12.66,25.9Z"/><path class="cls-4" d="M12.66,22a1.16,1.16,0,1,0-1.16-1.16A1.16,1.16,0,0,0,12.66,22Z"/><path class="cls-4" d="M12.66,18.13A1.16,1.16,0,1,0,11.5,17,1.16,1.16,0,0,0,12.66,18.13Z"/><path class="cls-4" d="M12.66,14.25a1.16,1.16,0,1,0-1.16-1.16A1.16,1.16,0,0,0,12.66,14.25Z"/><path class="cls-4" d="M12.66,10.36A1.16,1.16,0,1,0,11.5,9.2,1.16,1.16,0,0,0,12.66,10.36Z"/><path class="cls-4" d="M12.66,6.48A1.16,1.16,0,1,0,11.5,5.32,1.17,1.17,0,0,0,12.66,6.48Z"/><path class="cls-4" d="M12.66,2.6A1.16,1.16,0,1,0,11.5,1.43,1.16,1.16,0,0,0,12.66,2.6Z"/><path class="cls-4" d="M33.88,21.75a1.17,1.17,0,1,0-1.16-1.17A1.16,1.16,0,0,0,33.88,21.75Z"/><path class="cls-4" d="M33.88,17.85a1.16,1.16,0,1,0-1.16-1.15A1.16,1.16,0,0,0,33.88,17.85Z"/><path class="cls-4" d="M33.88,14a1.17,1.17,0,1,0-1.16-1.16A1.16,1.16,0,0,0,33.88,14Z"/><path class="cls-4" d="M33.88,10.08a1.16,1.16,0,1,0-1.16-1.15A1.16,1.16,0,0,0,33.88,10.08Z"/><path class="cls-4" d="M33.88,6.2A1.16,1.16,0,1,0,32.72,5,1.17,1.17,0,0,0,33.88,6.2Z"/><path class="cls-4" d="M33.88,2.31a1.16,1.16,0,1,0-1.16-1.16A1.16,1.16,0,0,0,33.88,2.31Z"/><path class="cls-5" d="M59.71,42.16v-2c0-.14-.17-.26-.37-.26a8.22,8.22,0,0,0-2.05-.14,9.36,9.36,0,0,0-2.09.14c-.2,0-.37.12-.37.26v2a10.3,10.3,0,1,0,4.88,0Z"/><path class="cls-2" d="M52.4,48.21c-1.23,1.4-1.72,5-3.22,3.57-.68-.64.41-3.74,1.73-5.06,1.93-1.94,3.37-2.29,4-1.73C56,46,53.92,46.49,52.4,48.21Z"/><path class="cls-4" d="M57.52,37.57a1.17,1.17,0,1,0-1.16-1.17A1.16,1.16,0,0,0,57.52,37.57Z"/><path class="cls-4" d="M57.52,33.68a1.17,1.17,0,1,0-1.16-1.16A1.16,1.16,0,0,0,57.52,33.68Z"/><path class="cls-4" d="M57.52,29.79a1.16,1.16,0,1,0-1.16-1.16A1.16,1.16,0,0,0,57.52,29.79Z"/><path class="cls-4" d="M57.52,25.9a1.16,1.16,0,1,0-1.16-1.15A1.16,1.16,0,0,0,57.52,25.9Z"/><path class="cls-4" d="M57.52,22a1.16,1.16,0,1,0-1.16-1.16A1.16,1.16,0,0,0,57.52,22Z"/><path class="cls-4" d="M57.52,18.13a1.16,1.16,0,1,0,0-2.31,1.16,1.16,0,1,0,0,2.31Z"/><path class="cls-4" d="M57.52,14.25a1.16,1.16,0,1,0-1.16-1.16A1.16,1.16,0,0,0,57.52,14.25Z"/><path class="cls-4" d="M57.52,10.36A1.16,1.16,0,1,0,56.36,9.2,1.16,1.16,0,0,0,57.52,10.36Z"/><path class="cls-4" d="M57.52,6.48a1.16,1.16,0,0,0,0-2.32,1.16,1.16,0,0,0,0,2.32Z"/><path class="cls-4" d="M57.52,2.6a1.16,1.16,0,1,0,0-2.32,1.15,1.15,0,0,0-1.16,1.15A1.16,1.16,0,0,0,57.52,2.6Z"/></svg>