<svg id="Layer_1" data-name="Layer 1" xmlns="http://www.w3.org/2000/svg" viewBox="0 0 70 70"><defs><style>.cls-1{fill:#eb1e4b;}.cls-2,.cls-3{fill:#faf2dc;}.cls-3{fill-rule:evenodd;}</style></defs><title>icon_xmas_06</title><path class="cls-1" d="M34.49,11c-6.37.45-13.83,4.33-20.21,11.42C7.19,30.32,3,45,3.39,43.89L3,45.51c1-.42,4.51-2.13,6.53-2.86,4.68-1.65,11.78-2.8,21.22-2.75,7.55,0,20.51,2.55,24.42,4.88A96.22,96.22,0,0,0,52,35.57c-.69-1.65-2.63-5.67-3.09-6.75,0,0,.11-.22.17-.13a14.57,14.57,0,0,0,3.55.57c1.63.13,4.34.45,5.7.6,1,.11,4.12.66,5.52.86-4.58-4.53-7.23-8.23-16.75-15A29.64,29.64,0,0,0,34.49,11Z"/><path class="cls-2" d="M64.59,38.78l-.58,0-.25,0a1.58,1.58,0,0,1-.86-.44,1.51,1.51,0,0,0-.31-.22l-.3-.08a2.75,2.75,0,0,1-.85-.33,2.43,2.43,0,0,0-.36-.16A2,2,0,0,1,60.3,37a3.27,3.27,0,0,1-.54-.81c-.07-.13-.14-.27-.22-.39a1.23,1.23,0,0,0-.33-.3,1.66,1.66,0,0,1-.67-.77l-.14-.33A5.49,5.49,0,0,1,58,33.26a1.43,1.43,0,0,1,.44-1.11,1.5,1.5,0,0,0,.25-.37,1.44,1.44,0,0,0-.2-.49,1.6,1.6,0,0,1-.28-1.16,4.1,4.1,0,0,1,.44-1,3.79,3.79,0,0,0,.18-.34,1.26,1.26,0,0,1,.85-.59,1.2,1.2,0,0,0,.29-.12,5.25,5.25,0,0,1,.87-.9,5.61,5.61,0,0,1,1-.58l.26-.12a3,3,0,0,1,.86-.3,1.3,1.3,0,0,0,.3-.18,1.46,1.46,0,0,1,.82-.33l.31,0a3,3,0,0,1,1.93.66l.26.18a1.87,1.87,0,0,1,.61.77,2.42,2.42,0,0,0,.25.39,1.1,1.1,0,0,0,.34.15,1.49,1.49,0,0,1,.84.56,2.94,2.94,0,0,1,.33,1,4.4,4.4,0,0,0,.12.49,1.94,1.94,0,0,0,.28.39,1.92,1.92,0,0,1,.53,1,5.66,5.66,0,0,1,0,1.3l0,.28a1.41,1.41,0,0,1-.56,1c-.1.1-.25.24-.26.31a1.56,1.56,0,0,0,0,.51,1.82,1.82,0,0,1-.06,1.08,1.31,1.31,0,0,1-.79.61,1.57,1.57,0,0,0-.3.16,1.91,1.91,0,0,1-.67.52l-.31.19a2.43,2.43,0,0,0-.16.35,1.39,1.39,0,0,1-.64.88,4.92,4.92,0,0,1-1.2.37A3,3,0,0,1,64.59,38.78Z"/><path class="cls-3" d="M4.63,59a6.62,6.62,0,0,1-1.34-.14A3.31,3.31,0,0,1,.85,56.71c-1.39-3-.89-8.17.16-9.85,3.7-5.94,17.2-8,27.64-8a61.38,61.38,0,0,1,11.61,1c.52.1,1.19.21,2,.33,5.59.86,16,2.46,16.4,10.07.18,3.3-.35,5.63-1.59,6.93a3.77,3.77,0,0,1-2.81,1.17,5,5,0,0,1-.76-.06.29.29,0,0,1-.1,0c-5.54-2-10.91-3.6-25.15-3.78h-.78a45.53,45.53,0,0,0-17.28,3.15A16.71,16.71,0,0,1,4.63,59Z"/></svg>