<svg id="Layer_1" data-name="Layer 1" xmlns="http://www.w3.org/2000/svg" viewBox="0 0 70 70"><defs><style>.cls-1{fill:#f8b919;}.cls-2{fill:#149646;}.cls-3{fill:#fce1a0;}</style></defs><title>icon_xmas_03</title><path class="cls-1" d="M32.36,6.64l-.61,3.61a.14.14,0,0,0,.06.15l.09,0,.07,0,3.25-1.65,3.25,1.63a.15.15,0,0,0,.16,0,.15.15,0,0,0,.07-.15l-.63-3.66,2.51-2.4a.14.14,0,0,0,0-.15.14.14,0,0,0-.12-.11L37,3.32,35.33.09A.13.13,0,0,0,35.2,0a.15.15,0,0,0-.14.09L33.4,3.31l-3.54.63a.14.14,0,0,0-.13.1.2.2,0,0,0,0,.16Z"/><path class="cls-2" d="M65.65,60C63,57.86,57.78,55.19,50.8,48.62c2.49,1.44,3.84,1.59,5.65.93,3.22-1.18-1.6-1.75-2.62-4,3.7.93,7-.79,6-1.7-1.72-1.57-5.13-2.44-11-9,0,0-.14-.12-.33-.24a5.79,5.79,0,0,0,5.17-.06c1.25-.79-1.26-.94-3-3.14,4.54,1.57,7.52.57,5.32-1.15-2-1.58-5.47-4.22-10.64-9.1a115.65,115.65,0,0,1-9-10c-.68-.78-1.31-1-2.27.3a113.05,113.05,0,0,1-8.43,9.1c-5.89,5.7-9.41,8.31-11,9.73-.9.8,1.18,2.3,4.47,1.47-1.54,2.76-4.11,2.42-2.27,3.45,1.46.82,2.54,1,4.72-.1a127.51,127.51,0,0,1-11,8.75c-2.46,2,1.9,3.14,7,1.37-1.93,2.48-4.77,2.66-3.36,3.55a4.23,4.23,0,0,0,4.82.36c-6.89,7-12.78,9.6-14.74,11.38C3,61.55,6.92,63.41,11.38,62.29c-.41,2-3.34,3.21-1.21,3.9,2.51.8,4.61.7,8-1.44-1.67,2.14-1,3.46.13,4,2.92,1.38,7.34-2.18,7.63-2.44-.46,3,.89,3.71,2.7,3.72a5.94,5.94,0,0,0,2.77-.68,9.78,9.78,0,0,0,2.12-1.7l.66-.73.64.73a5.62,5.62,0,0,0,3,2.15,6.07,6.07,0,0,0,1.88.08c2.8-.19,2.68-3.26,2.68-3.26,2.44,3.35,5.31,3.24,7.58,2.5,3.27-1,1.2-4,1.2-4a8.19,8.19,0,0,0,9.17,1.22c2.4-1.23-1.07-1.53-2-3.77C65,63.33,66.86,61,65.65,60Z"/><path class="cls-3" d="M24.33,59.35A2.32,2.32,0,0,1,22.1,61a2.15,2.15,0,0,1-.7-.12A2.28,2.28,0,0,1,19.87,58a2.32,2.32,0,0,1,2.92-1.49A2.27,2.27,0,0,1,24.33,59.35Z"/><path class="cls-3" d="M29.82,44.09a2.44,2.44,0,0,1-2.33,1.7,2.48,2.48,0,0,1-2.33-3.13,2.42,2.42,0,0,1,3.06-1.56A2.37,2.37,0,0,1,29.82,44.09Z"/><path class="cls-3" d="M30.6,28.5a2.5,2.5,0,0,1-.71-.11,2.34,2.34,0,1,1,3-1.54A2.38,2.38,0,0,1,30.6,28.5Z"/><path class="cls-3" d="M37.5,55.44a2.43,2.43,0,0,1-2.32,1.69,1.93,1.93,0,0,1-.74-.13,2.36,2.36,0,0,1-1.58-3,2.41,2.41,0,0,1,3-1.56A2.38,2.38,0,0,1,37.5,55.44Z"/><path class="cls-3" d="M39.41,37.41A2.27,2.27,0,0,1,37.24,39a2.3,2.3,0,0,1-.68-.11,2.22,2.22,0,0,1-1.49-2.78,2.27,2.27,0,0,1,2.85-1.46A2.23,2.23,0,0,1,39.41,37.41Z"/><path class="cls-3" d="M41,30.42a2.17,2.17,0,0,1-1.46-2.73,2.22,2.22,0,0,1,2.79-1.43A2.18,2.18,0,0,1,43.76,29a2.22,2.22,0,0,1-2.12,1.54A2,2,0,0,1,41,30.42Z"/><path class="cls-3" d="M45.9,47.58a2.22,2.22,0,0,1-2.13,1.54A2.29,2.29,0,0,1,43.1,49a2.18,2.18,0,0,1-1.46-2.73,2.22,2.22,0,0,1,2.79-1.44A2.18,2.18,0,0,1,45.9,47.58Z"/><path class="cls-3" d="M51.69,59.15a2.25,2.25,0,0,1-2.13,1.54,2.29,2.29,0,0,1-.67-.11,2.18,2.18,0,0,1-1.46-2.73,2.23,2.23,0,0,1,2.8-1.44A2.19,2.19,0,0,1,51.69,59.15Z"/></svg>