<svg id="Layer_1" data-name="Layer 1" xmlns="http://www.w3.org/2000/svg" viewBox="0 0 70 70"><defs><style>.cls-1{fill:#ffdd41;}.cls-1,.cls-2{fill-rule:evenodd;}.cls-3{fill:#664e27;}.cls-4{fill:#fff;}.cls-5{opacity:0.1;isolation:isolate;}</style></defs><title>icon_generic_04</title><path class="cls-1" d="M35.16.5A34.5,34.5,0,1,1,.83,35,34.42,34.42,0,0,1,35.16.5"/><path class="cls-2" d="M39.57,18.79a10.74,10.74,0,0,1-8.81,0,26.37,26.37,0,0,0-9.91-2.62c-3.84-.34-12-.33-16,1.11a11.2,11.2,0,0,0-1.37.61c-.25.12-.3.22-.3.69v.61c0,1.14-.14.7.67,1.17,1.58.93,2.47,3.34,3,6.67.68,4.84,3.05,7.88,6.89,9.33a15.32,15.32,0,0,0,11.09-.12,10.53,10.53,0,0,0,5-4c2.37-3.49,1.66-5.67,2.88-8.68,1.07-2.61,4.06-2.61,5.12,0,1.23,3,.52,5.19,2.88,8.68a10.56,10.56,0,0,0,5,4,15.32,15.32,0,0,0,11.09.12c3.84-1.45,6.21-4.49,6.89-9.33.48-3.33,1.38-5.74,3-6.67.81-.47.67,0,.67-1.17v-.61c0-.47,0-.57-.3-.69a9.86,9.86,0,0,0-1.37-.61c-4.07-1.44-12.21-1.45-16.05-1.12a26.56,26.56,0,0,0-9.91,2.63"/><path class="cls-3" d="M49.57,46.82c-9.28,6.5-19.58,6.47-28.81,0-1.11-.78-2.11.57-1.36,1.81a18.52,18.52,0,0,0,31.53,0C51.68,47.39,50.68,46,49.57,46.82Z"/><path class="cls-4" d="M19,52.75,8.79,57.47a34.4,34.4,0,0,0,3,3.13l8.68-4.1Z"/><path class="cls-4" d="M17.81,38.59l-17.3-4c0,.13,0,.26,0,.39a34,34,0,0,0,.21,3.79l16.2,3.72Z"/><path class="cls-4" d="M60.88,57.46,50.63,52.75,49.18,56.5l8.68,4.1A34.45,34.45,0,0,0,60.88,57.46Z"/><path class="cls-4" d="M52.76,42.51,69,38.79A34,34,0,0,0,69.17,35c0-.13,0-.26,0-.39l-17.29,4Z"/><g class="cls-5"><path d="M55.28,44.05c0,12.15-9.15,22-20.44,22s-20.45-9.85-20.45-22,11.88-9.82,20.45-9.82S55.28,31.9,55.28,44.05Z"/></g><path class="cls-4" d="M54.87,43.13c0,11.46-9,20.75-20,20.75s-20-9.29-20-20.75,11.64-9.26,20-9.26S54.87,31.66,54.87,43.13Z"/></svg>