<svg id="Layer_1" data-name="Layer 1" xmlns="http://www.w3.org/2000/svg" viewBox="0 0 70 70"><defs><style>.cls-1{fill:#fbb03b;}.cls-2{fill:#ffdd7d;}.cls-3{fill:#493816;}.cls-4{fill:#42ade2;}.cls-5{fill:#ff8736;}.cls-6{fill:#ed4c5c;}.cls-7{fill:#c28fef;}</style></defs><title>icon_occasion_02</title><polygon class="cls-1" points="1.38 67.5 10.96 64.15 3.71 60.77 1.38 67.5"/><polygon class="cls-2" points="29.33 39.93 15.71 26.23 13.51 32.56 29.33 39.93"/><polygon class="cls-1" points="13.51 32.56 11.06 39.61 41.11 53.61 42.47 53.13 29.33 39.93 13.51 32.56"/><polygon class="cls-2" points="8.61 46.66 31.06 57.12 41.11 53.61 11.06 39.61 8.61 46.66"/><polygon class="cls-1" points="6.16 53.72 21.01 60.63 31.06 57.12 8.61 46.66 6.16 53.72"/><polygon class="cls-2" points="6.16 53.72 3.71 60.77 10.96 64.15 21.01 60.63 6.16 53.72"/><path class="cls-3" d="M34.88,34.1c7.56,7.44,11.46,15.67,8.71,18.37s-11.1-1.14-18.66-8.58S13.47,28.23,16.21,25.53,27.31,26.66,34.88,34.1Z"/><path class="cls-4" d="M25.47,15.36c-1.83-2.53.15-3.67,2.59-3.21-2.32-2.85-.89-4.82,2.75-4,1.14.24-.44,2.16-1.46,2.09,3.06,2.3,1.38,4.72-1.86,4.15,2.86,3.94-2.06,3-4.22,3.13-.56,2.95,2.8,6.31,1.68,6.31C22.44,23.79,18.45,14.49,25.47,15.36Z"/><path class="cls-5" d="M49.06,20.8c-1.66.75-6.4-6.66-.59-6.72-3.33-3-2.9-4.49,1.57-4.58-5.13-5.14,3-7,3.83-4.25.25.82-2.48-.73-3.37.75-1,1.7,6.3,6-1.27,5.75,2.79,2.84,3,4.16-1.49,4.64C48.33,17.19,50.11,20.33,49.06,20.8Z"/><path class="cls-6" d="M50.94,38.29l1.7-1.45a19.39,19.39,0,0,0,2.74,3.21c.87-4,.64-6.42,5.29-3.65C58,29.46,62.38,32.08,66.47,34c-.23-1.76,0-1.57,1.81-2.07,1.58,5.9-2.65,4.19-6.1,2.25,2,5.33-.09,5.09-4.41,3.26-.07,2.26-.81,4.82-2.17,5C54.06,42.69,50.94,38.29,50.94,38.29Z"/><path class="cls-7" d="M38.38,21.61c-2.07,2.69-5.23,4.2-7.62,6.55s-4,9.2-4,9.2.89-7,3.27-9.74c2.15-2.45,5.22-4.23,6.89-7.08,3-5.1.32-11.92-3.48-15.81C34.27,4,35.33,3.12,36,2.5,39.54,7.09,42.72,16,38.38,21.61Z"/><path class="cls-5" d="M41.82,27.36c-3,2.13-5,5.22-7.07,8.17-1.82,2.6-7.52,5.79-7.52,5.79s5.42-3.65,7-6.39c2-3.37,4-6.84,7.14-9.28,6.28-4.87,15.33-4.32,22.44-1.76L62.59,27S47.8,23.06,41.82,27.36Z"/><path class="cls-4" d="M54.33,26.84c-1.89,2.5-2.86,5.51-4.3,8.26a14.37,14.37,0,0,1-5.75,6.39c-2.86,1.48-9.33,1-9.33,1s6.43-.08,9.08-1.86,4.12-4.9,5.18-7.87c2-5.55,4.46-11.62,10.3-14.09l1.17,3.17S57.47,22.67,54.33,26.84Z"/><rect class="cls-4" x="3.67" y="12.88" width="4.48" height="4.48" transform="translate(-8.96 8.61) rotate(-45)"/><rect class="cls-5" x="8.1" y="22.89" width="4.48" height="4.48" transform="translate(-14.74 14.67) rotate(-44.99)"/><rect class="cls-6" x="16.19" y="7.91" width="4.48" height="4.48" transform="translate(-1.78 16) rotate(-44.99)"/><rect class="cls-7" x="50.7" y="45.82" width="4.48" height="4.48" transform="translate(-18.48 51.5) rotate(-44.99)"/><rect class="cls-6" x="43.63" y="56.69" width="4.48" height="4.48" transform="translate(-28.23 49.67) rotate(-44.98)"/><rect class="cls-5" x="57.54" y="59.2" width="4.48" height="4.48" transform="translate(-25.94 60.28) rotate(-45.01)"/><rect class="cls-4" x="60.71" y="44.76" width="4.48" height="4.48" transform="translate(-14.79 58.29) rotate(-45.01)"/><rect class="cls-4" x="55.42" y="11.27" width="4.48" height="4.48" transform="translate(7.33 44.72) rotate(-44.99)"/><rect class="cls-6" x="21.41" y="30.32" width="4.48" height="4.48" transform="translate(-16.1 26.27) rotate(-45.01)"/></svg>